SplineFontDB: 3.0
FontName: FaunaOne
FullName: Fauna One
FamilyName: Fauna One
Weight: Book
Copyright: Copyright (c) 2013, Eduardo Tunni (http://www.tipo.net.ar edu@tipo.net.ar), with Reserved Font Name 'Fauna'
Version: 1.001
ItalicAngle: 0
UnderlinePosition: -50
UnderlineWidth: 50
Ascent: 800
Descent: 200
sfntRevision: 0x00010042
LayerCount: 2
Layer: 0 1 "Back"  1
Layer: 1 1 "Fore"  0
XUID: [1021 923 298334494 13666800]
FSType: 0
OS2Version: 3
OS2_WeightWidthSlopeOnly: 0
OS2_UseTypoMetrics: 1
CreationTime: 1366208400
ModificationTime: 1369838657
PfmFamily: 17
TTFWeight: 400
TTFWidth: 5
LineGap: 0
VLineGap: 0
Panose: 2 0 5 3 2 0 0 2 0 4
OS2TypoAscent: 987
OS2TypoAOffset: 0
OS2TypoDescent: -243
OS2TypoDOffset: 0
OS2TypoLinegap: 0
OS2WinAscent: 987
OS2WinAOffset: 0
OS2WinDescent: 243
OS2WinDOffset: 0
HheadAscent: 987
HheadAOffset: 0
HheadDescent: -243
HheadDOffset: 0
OS2SubXSize: 650
OS2SubYSize: 600
OS2SubXOff: 0
OS2SubYOff: 75
OS2SupXSize: 650
OS2SupYSize: 600
OS2SupXOff: 0
OS2SupYOff: 350
OS2StrikeYSize: 50
OS2StrikeYPos: 343
OS2Vendor: 'TIPO'
OS2CodePages: 20000001.00000000
OS2UnicodeRanges: 00000003.00000000.00000000.00000000
Lookup: 258 0 0 "'kern' Horizontal Kerning in Latin lookup 0"  {"'kern' Horizontal Kerning in Latin lookup 0 per glyph data 0"  "'kern' Horizontal Kerning in Latin lookup 0 per glyph data 1"  "'kern' Horizontal Kerning in Latin lookup 0 kerning class 2"  } ['kern' ('latn' <'dflt' > ) ]
DEI: 91125
KernClass2: 4+ 7 "'kern' Horizontal Kerning in Latin lookup 0 kerning class 2" 
 50 A Agrave Aacute Acircumflex Atilde Adieresis Aring
 18 Y Yacute Ydieresis
 8 L Lslash
 68 quotedbl quotesingle quoteleft quoteright quotedblleft quotedblright
 18 Y Yacute Ydieresis
 68 quotedbl quotesingle quoteleft quoteright quotedblleft quotedblright
 50 A Agrave Aacute Acircumflex Atilde Adieresis Aring
 109 c d e g o q ccedilla egrave eacute ecircumflex edieresis ograve oacute ocircumflex otilde odieresis oslash oe

StartChar: exclam
Encoding: 33 33 4
Width: 281
GlyphClass: 2
Flags: W
LayerCount: 2
Fore
SplineSet
162 176 m 1,0,-1
 119 176 l 1,1,-1
 95 730 l 1,2,-1
 186 730 l 1,3,-1
 162 176 l 1,0,-1
103 7.5 m 128,-1,5
 87 23 87 23 87 44.5 c 128,-1,6
 87 66 87 66 103 82 c 128,-1,7
 119 98 119 98 140.5 98 c 128,-1,8
 162 98 162 98 177.5 82 c 128,-1,9
 193 66 193 66 193 44.5 c 128,-1,10
 193 23 193 23 177.5 7.5 c 128,-1,11
 162 -8 162 -8 140.5 -8 c 128,-1,4
 119 -8 119 -8 103 7.5 c 128,-1,5
EndSplineSet
EndChar

StartChar: quotedbl
Encoding: 34 34 5
Width: 396
GlyphClass: 2
Flags: W
LayerCount: 2
Fore
SplineSet
140 490 m 1,0,-1
 95 490 l 1,1,-1
 76 730 l 1,2,-1
 158 730 l 1,3,-1
 140 490 l 1,0,-1
301 490 m 1,4,-1
 256 490 l 1,5,-1
 238 730 l 1,6,-1
 320 730 l 1,7,-1
 301 490 l 1,4,-1
EndSplineSet
EndChar

StartChar: numbersign
Encoding: 35 35 6
Width: 797
GlyphClass: 2
Flags: W
LayerCount: 2
Fore
SplineSet
624 567 m 1,0,-1
 737 567 l 1,1,-1
 727 506 l 1,2,-1
 613 506 l 1,3,-1
 569 257 l 1,4,-1
 683 257 l 1,5,-1
 672 196 l 1,6,-1
 557 196 l 1,7,-1
 512 -59 l 1,8,-1
 432 -59 l 1,9,-1
 479 196 l 1,10,-1
 252 196 l 1,11,-1
 206 -59 l 1,12,-1
 127 -59 l 1,13,-1
 173 196 l 1,14,-1
 59 196 l 1,15,-1
 70 257 l 1,16,-1
 184 257 l 1,17,-1
 229 506 l 1,18,-1
 114 506 l 1,19,-1
 124 567 l 1,20,-1
 240 567 l 1,21,-1
 287 822 l 1,22,-1
 366 822 l 1,23,-1
 319 567 l 1,24,-1
 546 567 l 1,25,-1
 592 822 l 1,26,-1
 672 822 l 1,27,-1
 624 567 l 1,0,-1
308 506 m 1,28,-1
 263 257 l 1,29,-1
 490 257 l 1,30,-1
 534 506 l 1,31,-1
 308 506 l 1,28,-1
EndSplineSet
EndChar

StartChar: dollar
Encoding: 36 36 7
Width: 545
GlyphClass: 2
Flags: W
LayerCount: 2
Fore
SplineSet
60 559 m 0,0,1
 60 647 60 647 121.5 695.5 c 128,-1,2
 183 744 183 744 281 744 c 2,3,-1
 292 744 l 1,4,-1
 300 836 l 1,5,-1
 346 836 l 1,6,-1
 338 740 l 1,7,8
 404 731 404 731 486 695 c 1,9,-1
 461 635 l 1,10,11
 389 670 389 670 332 679 c 1,12,-1
 308 396 l 1,13,14
 395 359 395 359 418 341 c 128,-1,15
 441 323 441 323 458.5 306 c 128,-1,16
 476 289 476 289 485 272 c 0,17,18
 507 229 507 229 507 180 c 0,19,20
 507 89 507 89 444 37.5 c 128,-1,21
 381 -14 381 -14 276 -14 c 2,22,-1
 273 -14 l 1,23,-1
 265 -105 l 1,24,-1
 219 -105 l 1,25,-1
 227 -10 l 1,26,27
 154 3 154 3 105 54.5 c 128,-1,28
 56 106 56 106 38 189 c 1,29,-1
 108 206 l 1,30,31
 140 76 140 76 232 52 c 1,32,-1
 257 338 l 1,33,34
 139 389 139 389 100 436 c 1,35,36
 60 487 60 487 60 559 c 0,0,1
388 82 m 128,-1,38
 427 117 427 117 427 173 c 128,-1,39
 427 229 427 229 394.5 260 c 128,-1,40
 362 291 362 291 301 318 c 1,41,-1
 278 47 l 1,42,37
 349 47 349 47 388 82 c 128,-1,38
178.5 650.5 m 128,-1,44
 140 618 140 618 140 563 c 128,-1,45
 140 508 140 508 172 476 c 128,-1,46
 204 444 204 444 264 416 c 1,47,-1
 287 683 l 1,48,-1
 281 683 l 2,49,43
 217 683 217 683 178.5 650.5 c 128,-1,44
EndSplineSet
EndChar

StartChar: percent
Encoding: 37 37 8
Width: 825
GlyphClass: 2
Flags: W
LayerCount: 2
Fore
SplineSet
323 -66 m 1,0,-1
 261 -66 l 1,1,-1
 501 795 l 1,2,-1
 563 795 l 1,3,-1
 323 -66 l 1,0,-1
98.5 699.5 m 128,-1,5
 137 751 137 751 206.5 751 c 128,-1,6
 276 751 276 751 317 696 c 128,-1,7
 358 641 358 641 358 546.5 c 128,-1,8
 358 452 358 452 320 400.5 c 128,-1,9
 282 349 282 349 212 349 c 128,-1,10
 142 349 142 349 101 404.5 c 128,-1,11
 60 460 60 460 60 554 c 128,-1,4
 60 648 60 648 98.5 699.5 c 128,-1,5
270 660 m 128,-1,13
 247 702 247 702 207.5 702 c 128,-1,14
 168 702 168 702 146 663 c 128,-1,15
 124 624 124 624 124 553 c 128,-1,16
 124 482 124 482 147.5 440 c 128,-1,17
 171 398 171 398 209 398 c 0,18,19
 293 398 293 398 293 550 c 0,20,12
 293 618 293 618 270 660 c 128,-1,13
504.5 342.5 m 128,-1,22
 543 394 543 394 612.5 394 c 128,-1,23
 682 394 682 394 723 339 c 128,-1,24
 764 284 764 284 764 189.5 c 128,-1,25
 764 95 764 95 726 43.5 c 128,-1,26
 688 -8 688 -8 618 -8 c 128,-1,27
 548 -8 548 -8 507 47.5 c 128,-1,28
 466 103 466 103 466 197 c 128,-1,21
 466 291 466 291 504.5 342.5 c 128,-1,22
676 303 m 128,-1,30
 653 345 653 345 613.5 345 c 128,-1,31
 574 345 574 345 552 306 c 128,-1,32
 530 267 530 267 530 196 c 128,-1,33
 530 125 530 125 553.5 83 c 128,-1,34
 577 41 577 41 615 41 c 0,35,36
 699 41 699 41 699 193 c 0,37,29
 699 261 699 261 676 303 c 128,-1,30
EndSplineSet
EndChar

StartChar: ampersand
Encoding: 38 38 9
Width: 665
GlyphClass: 2
Flags: W
LayerCount: 2
Fore
SplineSet
514 627 m 1,0,1
 415 683 415 683 334 683 c 128,-1,2
 253 683 253 683 212.5 646 c 128,-1,3
 172 609 172 609 172 539.5 c 128,-1,4
 172 470 172 470 224 433 c 128,-1,5
 276 396 276 396 349 396 c 2,6,-1
 646 396 l 1,7,-1
 643 343 l 1,8,-1
 537 343 l 1,9,-1
 537 219 l 2,10,11
 537 113 537 113 476.5 49.5 c 128,-1,12
 416 -14 416 -14 307.5 -14 c 128,-1,13
 199 -14 199 -14 137.5 41 c 128,-1,14
 76 96 76 96 76 197 c 0,15,16
 76 258 76 258 112 307.5 c 128,-1,17
 148 357 148 357 217 374 c 1,18,19
 156 395 156 395 124.5 440.5 c 128,-1,20
 93 486 93 486 93 542 c 0,21,22
 93 639 93 639 154 691.5 c 128,-1,23
 215 744 215 744 322.5 744 c 128,-1,24
 430 744 430 744 540 687 c 1,25,-1
 514 627 l 1,0,1
465 219 m 2,26,-1
 465 343 l 1,27,-1
 348 343 l 2,28,29
 155 343 155 343 155 195 c 0,30,31
 155 125 155 125 195.5 85.5 c 128,-1,32
 236 46 236 46 309.5 46 c 128,-1,33
 383 46 383 46 424 94 c 128,-1,34
 465 142 465 142 465 219 c 2,26,-1
EndSplineSet
EndChar

StartChar: quotesingle
Encoding: 39 39 10
Width: 234
GlyphClass: 2
Flags: W
LayerCount: 2
Fore
SplineSet
140 490 m 1,0,-1
 95 490 l 1,1,-1
 76 730 l 1,2,-1
 158 730 l 1,3,-1
 140 490 l 1,0,-1
EndSplineSet
EndChar

StartChar: parenleft
Encoding: 40 40 11
Width: 293
GlyphClass: 2
Flags: W
LayerCount: 2
Fore
SplineSet
126 365 m 128,-1,1
 126 233 126 233 166 135 c 128,-1,2
 206 37 206 37 274 -19 c 1,3,-1
 274 -74 l 1,4,5
 175 -26 175 -26 111 86.5 c 128,-1,6
 47 199 47 199 47 365 c 128,-1,7
 47 531 47 531 111 643 c 128,-1,8
 175 755 175 755 274 802 c 1,9,-1
 274 748 l 1,10,11
 206 692 206 692 166 594.5 c 128,-1,0
 126 497 126 497 126 365 c 128,-1,1
EndSplineSet
EndChar

StartChar: parenright
Encoding: 41 41 12
Width: 293
GlyphClass: 2
Flags: W
LayerCount: 2
Fore
SplineSet
246 365 m 128,-1,1
 246 199 246 199 182 86.5 c 128,-1,2
 118 -26 118 -26 19 -74 c 1,3,-1
 19 -19 l 1,4,5
 87 37 87 37 127 135 c 128,-1,6
 167 233 167 233 167 365 c 128,-1,7
 167 497 167 497 127 594.5 c 128,-1,8
 87 692 87 692 19 748 c 1,9,-1
 19 802 l 1,10,11
 118 755 118 755 182 643 c 128,-1,0
 246 531 246 531 246 365 c 128,-1,1
EndSplineSet
EndChar

StartChar: asterisk
Encoding: 42 42 13
Width: 538
GlyphClass: 2
Flags: W
LayerCount: 2
Fore
SplineSet
308 769 m 1,0,-1
 294 584 l 1,1,-1
 466 654 l 1,2,-1
 490 581 l 1,3,-1
 308 536 l 1,4,-1
 427 399 l 1,5,-1
 364 351 l 1,6,-1
 268 504 l 1,7,-1
 174 351 l 1,8,-1
 111 396 l 1,9,-1
 229 536 l 1,10,-1
 48 581 l 1,11,-1
 72 654 l 1,12,-1
 244 584 l 1,13,-1
 230 769 l 1,14,-1
 308 769 l 1,0,-1
EndSplineSet
EndChar

StartChar: plus
Encoding: 43 43 14
Width: 584
GlyphClass: 2
Flags: W
LayerCount: 2
Fore
SplineSet
324 397 m 1,0,-1
 488 397 l 1,1,-1
 488 333 l 1,2,-1
 324 333 l 1,3,-1
 324 167 l 1,4,-1
 259 167 l 1,5,-1
 259 333 l 1,6,-1
 95 333 l 1,7,-1
 95 397 l 1,8,-1
 259 397 l 1,9,-1
 259 562 l 1,10,-1
 324 562 l 1,11,-1
 324 397 l 1,0,-1
EndSplineSet
EndChar

StartChar: comma
Encoding: 44 44 15
Width: 262
GlyphClass: 2
Flags: W
LayerCount: 2
Fore
SplineSet
155 97 m 1,0,1
 182 80 182 80 182 50 c 2,2,-1
 182 43 l 1,3,4
 181 5 181 5 162 -34 c 1,5,-1
 154 -49 l 1,6,7
 139 -74 139 -74 113 -102 c 1,8,-1
 106 -110 l 1,9,-1
 95 -120 l 1,10,-1
 74 -137 l 1,11,-1
 49 -109 l 1,12,-1
 61 -97 l 1,13,14
 81 -70 81 -70 87 -55 c 128,-1,15
 93 -40 93 -40 93 -22 c 1,16,-1
 92 -8 l 1,17,18
 88 0 88 0 88 8 c 1,19,20
 86 14 86 14 86 15 c 2,21,-1
 83 25 l 1,22,23
 80 31 80 31 79.5 36 c 128,-1,24
 79 41 79 41 79 54 c 128,-1,25
 79 67 79 67 93 88 c 1,26,-1
 103 95 l 1,27,-1
 112 99 l 1,28,-1
 114 100 l 1,29,30
 117 100 117 100 119 101 c 2,31,-1
 131 102 l 1,32,-1
 136 102 l 2,33,34
 141 102 141 102 147 99.5 c 128,-1,35
 153 97 153 97 155 97 c 1,0,1
EndSplineSet
EndChar

StartChar: hyphen
Encoding: 45 45 16
Width: 485
GlyphClass: 2
Flags: W
LayerCount: 2
Fore
SplineSet
418 287 m 1,0,-1
 66 287 l 1,1,-1
 66 348 l 1,2,-1
 418 348 l 1,3,-1
 418 287 l 1,0,-1
EndSplineSet
EndChar

StartChar: period
Encoding: 46 46 17
Width: 262
GlyphClass: 2
Flags: W
LayerCount: 2
Fore
SplineSet
92 8 m 128,-1,1
 76 24 76 24 76 46.5 c 128,-1,2
 76 69 76 69 92.5 85.5 c 128,-1,3
 109 102 109 102 131 102 c 128,-1,4
 153 102 153 102 169.5 85.5 c 128,-1,5
 186 69 186 69 186 47 c 128,-1,6
 186 25 186 25 169.5 8.5 c 128,-1,7
 153 -8 153 -8 130.5 -8 c 128,-1,0
 108 -8 108 -8 92 8 c 128,-1,1
EndSplineSet
EndChar

StartChar: slash
Encoding: 47 47 18
Width: 302
GlyphClass: 2
Flags: W
LayerCount: 2
Fore
SplineSet
62 -106 m 1,0,-1
 0 -106 l 1,1,-1
 240 775 l 1,2,-1
 302 775 l 1,3,-1
 62 -106 l 1,0,-1
EndSplineSet
EndChar

StartChar: zero
Encoding: 48 48 19
Width: 661
GlyphClass: 2
Flags: W
LayerCount: 2
Fore
SplineSet
137.5 646.5 m 128,-1,1
 204 744 204 744 325.5 744 c 128,-1,2
 447 744 447 744 518 639.5 c 128,-1,3
 589 535 589 535 589 357.5 c 128,-1,4
 589 180 589 180 523 82.5 c 128,-1,5
 457 -15 457 -15 335.5 -15 c 128,-1,6
 214 -15 214 -15 142.5 89.5 c 128,-1,7
 71 194 71 194 71 371.5 c 128,-1,0
 71 549 71 549 137.5 646.5 c 128,-1,1
460.5 595.5 m 128,-1,9
 411 683 411 683 327 683 c 128,-1,10
 243 683 243 683 196.5 601 c 128,-1,11
 150 519 150 519 150 370.5 c 128,-1,12
 150 222 150 222 199.5 134 c 128,-1,13
 249 46 249 46 333.5 46 c 128,-1,14
 418 46 418 46 464 127.5 c 128,-1,15
 510 209 510 209 510 358.5 c 128,-1,8
 510 508 510 508 460.5 595.5 c 128,-1,9
EndSplineSet
EndChar

StartChar: one
Encoding: 49 49 20
Width: 472
GlyphClass: 2
Flags: W
LayerCount: 2
Fore
SplineSet
444 0 m 1,0,-1
 61 0 l 1,1,-1
 61 53 l 1,2,-1
 212 61 l 1,3,-1
 212 654 l 1,4,-1
 44 614 l 1,5,-1
 38 670 l 1,6,-1
 233 730 l 1,7,-1
 292 730 l 1,8,-1
 292 61 l 1,9,-1
 444 53 l 1,10,-1
 444 0 l 1,0,-1
EndSplineSet
EndChar

StartChar: two
Encoding: 50 50 21
Width: 596
GlyphClass: 2
Flags: W
LayerCount: 2
Fore
SplineSet
149 528 m 1,0,-1
 74 528 l 1,1,2
 74 633 74 633 134 688.5 c 128,-1,3
 194 744 194 744 301 744 c 128,-1,4
 408 744 408 744 467 692.5 c 128,-1,5
 526 641 526 641 526 551 c 0,6,7
 526 489 526 489 493.5 435 c 128,-1,8
 461 381 461 381 394 310 c 2,9,-1
 163 61 l 1,10,-1
 534 61 l 1,11,-1
 534 0 l 1,12,-1
 62 0 l 1,13,-1
 62 60 l 1,14,-1
 340 356 l 2,15,16
 397 416 397 416 421.5 459.5 c 128,-1,17
 446 503 446 503 446 557 c 128,-1,18
 446 611 446 611 408 647 c 128,-1,19
 370 683 370 683 300.5 683 c 128,-1,20
 231 683 231 683 190 642.5 c 128,-1,21
 149 602 149 602 149 528 c 1,0,-1
EndSplineSet
EndChar

StartChar: three
Encoding: 51 51 22
Width: 624
GlyphClass: 2
Flags: W
LayerCount: 2
Fore
SplineSet
275 396 m 2,0,1
 348 396 348 396 400 433 c 128,-1,2
 452 470 452 470 452 539.5 c 128,-1,3
 452 609 452 609 411.5 646.5 c 128,-1,4
 371 684 371 684 298.5 684 c 128,-1,5
 226 684 226 684 186.5 642 c 128,-1,6
 147 600 147 600 147 532 c 1,7,-1
 76 532 l 1,8,9
 76 629 76 629 135 687 c 128,-1,10
 194 745 194 745 301.5 745 c 128,-1,11
 409 745 409 745 470 692 c 128,-1,12
 531 639 531 639 531 542 c 0,13,14
 531 486 531 486 499.5 440.5 c 128,-1,15
 468 395 468 395 407 374 c 1,16,17
 476 357 476 357 512 307.5 c 128,-1,18
 548 258 548 258 548 197 c 0,19,20
 548 96 548 96 481 41 c 128,-1,21
 414 -14 414 -14 300.5 -14 c 128,-1,22
 187 -14 187 -14 127 43.5 c 128,-1,23
 67 101 67 101 67 193 c 0,24,25
 67 196 67 196 67 199 c 1,26,-1
 139 199 l 1,27,28
 139 196 139 196 139 193 c 0,29,30
 139 129 139 129 179.5 87.5 c 128,-1,31
 220 46 220 46 299 46 c 128,-1,32
 378 46 378 46 423.5 85.5 c 128,-1,33
 469 125 469 125 469 195 c 0,34,35
 469 343 469 343 276 343 c 2,36,-1
 201 343 l 1,37,-1
 198 396 l 1,38,-1
 275 396 l 2,0,1
EndSplineSet
EndChar

StartChar: four
Encoding: 52 52 23
Width: 610
GlyphClass: 2
Flags: W
LayerCount: 2
Fore
SplineSet
465 227 m 1,0,-1
 553 227 l 1,1,-1
 553 172 l 1,2,-1
 465 172 l 1,3,-1
 465 0 l 1,4,-1
 385 0 l 1,5,-1
 385 172 l 1,6,-1
 19 172 l 1,7,-1
 19 219 l 1,8,-1
 343 730 l 1,9,-1
 465 730 l 1,10,-1
 465 227 l 1,0,-1
385 227 m 1,11,-1
 385 659 l 1,12,-1
 107 227 l 1,13,-1
 385 227 l 1,11,-1
EndSplineSet
EndChar

StartChar: five
Encoding: 53 53 24
Width: 608
GlyphClass: 2
Flags: W
LayerCount: 2
Fore
SplineSet
304 431 m 0,0,1
 426 431 426 431 488.5 369 c 128,-1,2
 551 307 551 307 551 205 c 128,-1,3
 551 103 551 103 485.5 44 c 128,-1,4
 420 -15 420 -15 298 -15 c 0,5,6
 197 -15 197 -15 137 46.5 c 128,-1,7
 77 108 77 108 77 211 c 1,8,-1
 148 211 l 1,9,10
 148 136 148 136 188 91 c 128,-1,11
 228 46 228 46 306 46 c 128,-1,12
 384 46 384 46 428 89 c 128,-1,13
 472 132 472 132 472 214.5 c 128,-1,14
 472 297 472 297 418 337 c 128,-1,15
 364 377 364 377 283 377 c 128,-1,16
 202 377 202 377 119 350 c 1,17,-1
 100 364 l 1,18,-1
 134 730 l 1,19,-1
 513 730 l 1,20,-1
 506 669 l 1,21,-1
 198 669 l 1,22,-1
 174 409 l 1,23,24
 248 431 248 431 304 431 c 0,0,1
EndSplineSet
EndChar

StartChar: six
Encoding: 54 54 25
Width: 629
GlyphClass: 2
Flags: W
LayerCount: 2
Fore
SplineSet
334 683 m 0,0,1
 245 683 245 683 198 597.5 c 128,-1,2
 151 512 151 512 150 358 c 1,3,4
 238 427 238 427 339 427 c 128,-1,5
 440 427 440 427 504 371 c 128,-1,6
 568 315 568 315 568 210 c 128,-1,7
 568 105 568 105 502.5 45.5 c 128,-1,8
 437 -14 437 -14 319.5 -14 c 128,-1,9
 202 -14 202 -14 137 78.5 c 128,-1,10
 72 171 72 171 72 350 c 128,-1,11
 72 529 72 529 139.5 637 c 128,-1,12
 207 745 207 745 333 745 c 0,13,14
 437 745 437 745 493 695.5 c 128,-1,15
 549 646 549 646 558 562 c 1,16,-1
 481 546 l 1,17,18
 467 683 467 683 334 683 c 0,0,1
198.5 111.5 m 128,-1,20
 244 46 244 46 322.5 46 c 128,-1,21
 401 46 401 46 444.5 90 c 128,-1,22
 488 134 488 134 488 211.5 c 128,-1,23
 488 289 488 289 444 327.5 c 128,-1,24
 400 366 400 366 333 366 c 0,25,26
 236 366 236 366 149 296 c 1,27,19
 153 177 153 177 198.5 111.5 c 128,-1,20
EndSplineSet
EndChar

StartChar: seven
Encoding: 55 55 26
Width: 528
GlyphClass: 2
Flags: W
LayerCount: 2
Fore
SplineSet
481 730 m 1,0,-1
 481 671 l 1,1,-1
 185 0 l 1,2,-1
 106 0 l 1,3,-1
 402 669 l 1,4,-1
 41 669 l 1,5,-1
 36 730 l 1,6,-1
 481 730 l 1,0,-1
EndSplineSet
EndChar

StartChar: eight
Encoding: 56 56 27
Width: 637
GlyphClass: 2
Flags: W
LayerCount: 2
Fore
SplineSet
549 554 m 0,0,1
 549 493 549 493 511 442 c 128,-1,2
 473 391 473 391 397 364 c 1,3,4
 475 333 475 333 518 292.5 c 128,-1,5
 561 252 561 252 561 180 c 0,6,7
 561 84 561 84 494 34.5 c 128,-1,8
 427 -15 427 -15 320 -15 c 128,-1,9
 213 -15 213 -15 144.5 34.5 c 128,-1,10
 76 84 76 84 76 180 c 0,11,12
 76 320 76 320 223 373 c 1,13,14
 160 404 160 404 125 446 c 128,-1,15
 90 488 90 488 90 554 c 0,16,17
 90 641 90 641 153.5 692.5 c 128,-1,18
 217 744 217 744 320 744 c 128,-1,19
 423 744 423 744 486 692.5 c 128,-1,20
 549 641 549 641 549 554 c 0,0,1
482 186 m 0,21,22
 482 235 482 235 442 272 c 0,23,24
 427 286 427 286 394 302 c 256,25,26
 361 318 361 318 283 347 c 1,27,28
 220 330 220 330 187.5 287 c 128,-1,29
 155 244 155 244 155 180 c 128,-1,30
 155 116 155 116 198 79 c 128,-1,31
 241 42 241 42 319 42 c 128,-1,32
 397 42 397 42 439.5 78.5 c 128,-1,33
 482 115 482 115 482 186 c 0,21,22
207.5 648.5 m 128,-1,35
 169 610 169 610 169 548.5 c 128,-1,36
 169 487 169 487 209 453 c 128,-1,37
 249 419 249 419 326 390 c 1,38,39
 390 408 390 408 430 451 c 128,-1,40
 470 494 470 494 470 550 c 128,-1,41
 470 606 470 606 431 646.5 c 128,-1,42
 392 687 392 687 319 687 c 128,-1,34
 246 687 246 687 207.5 648.5 c 128,-1,35
EndSplineSet
EndChar

StartChar: nine
Encoding: 57 57 28
Width: 626
GlyphClass: 2
Flags: W
LayerCount: 2
Fore
SplineSet
286 -14 m 0,0,1
 180 -14 180 -14 122 43.5 c 128,-1,2
 64 101 64 101 64 199 c 1,3,-1
 135 199 l 1,4,5
 135 130 135 130 175 88 c 128,-1,6
 215 46 215 46 288 46 c 0,7,8
 378 46 378 46 427 129.5 c 128,-1,9
 476 213 476 213 479 373 c 1,10,11
 386 301 386 301 285.5 301 c 128,-1,12
 185 301 185 301 123 355.5 c 128,-1,13
 61 410 61 410 61 516 c 128,-1,14
 61 622 61 622 125 683.5 c 128,-1,15
 189 745 189 745 306 745 c 128,-1,16
 423 745 423 745 489 655.5 c 128,-1,17
 555 566 555 566 555 401 c 0,18,19
 555 203 555 203 485.5 94.5 c 128,-1,20
 416 -14 416 -14 286 -14 c 0,0,1
430 619 m 128,-1,22
 383 683 383 683 304 683 c 128,-1,23
 225 683 225 683 182.5 638 c 128,-1,24
 140 593 140 593 140 515 c 128,-1,25
 140 437 140 437 182 399.5 c 128,-1,26
 224 362 224 362 290 362 c 0,27,28
 388 362 388 362 478 434 c 1,29,21
 477 555 477 555 430 619 c 128,-1,22
EndSplineSet
EndChar

StartChar: colon
Encoding: 58 58 29
Width: 262
GlyphClass: 2
Flags: W
LayerCount: 2
Fore
SplineSet
92 8 m 128,-1,1
 76 24 76 24 76 46.5 c 128,-1,2
 76 69 76 69 92.5 85.5 c 128,-1,3
 109 102 109 102 131 102 c 128,-1,4
 153 102 153 102 169.5 85.5 c 128,-1,5
 186 69 186 69 186 47 c 128,-1,6
 186 25 186 25 169.5 8.5 c 128,-1,7
 153 -8 153 -8 130.5 -8 c 128,-1,0
 108 -8 108 -8 92 8 c 128,-1,1
92 448 m 128,-1,9
 76 464 76 464 76 486.5 c 128,-1,10
 76 509 76 509 92.5 525.5 c 128,-1,11
 109 542 109 542 131 542 c 128,-1,12
 153 542 153 542 169.5 525.5 c 128,-1,13
 186 509 186 509 186 487 c 128,-1,14
 186 465 186 465 169.5 448.5 c 128,-1,15
 153 432 153 432 130.5 432 c 128,-1,8
 108 432 108 432 92 448 c 128,-1,9
EndSplineSet
EndChar

StartChar: semicolon
Encoding: 59 59 30
Width: 262
GlyphClass: 2
Flags: W
LayerCount: 2
Fore
SplineSet
121 101 m 1,0,-1
 126 102 l 1,1,-1
 131 102 l 2,2,3
 141 102 141 102 145 100 c 2,4,-1
 155 97 l 1,5,6
 157 95 157 95 158 95 c 2,7,-1
 163 92 l 1,8,-1
 171 83 l 1,9,10
 181 70 181 70 181 63.5 c 128,-1,11
 181 57 181 57 182 54 c 1,12,-1
 182 43 l 1,13,14
 179 11 179 11 167 -23 c 1,15,-1
 159 -39 l 2,16,17
 151 -54 151 -54 144 -64 c 2,18,-1
 138 -73 l 2,19,20
 134 -78 134 -78 113 -102 c 1,21,22
 90 -125 90 -125 74 -137 c 1,23,-1
 49 -109 l 1,24,-1
 61 -97 l 1,25,26
 76 -77 76 -77 89 -51 c 1,27,28
 93 -33 93 -33 93 -22 c 2,29,-1
 93 -15 l 1,30,31
 92 -2 92 -2 84 20 c 0,32,33
 83 24 83 24 81 30.5 c 128,-1,34
 79 37 79 37 79 44 c 2,35,-1
 79 50 l 2,36,37
 79 83 79 83 103 95 c 0,38,39
 104 95 104 95 106 97 c 1,40,41
 108 97 108 97 108 98 c 2,42,-1
 114 100 l 2,43,44
 117 100 117 100 119 101 c 1,45,-1
 121 101 l 1,0,-1
92 448 m 128,-1,47
 76 464 76 464 76 486.5 c 128,-1,48
 76 509 76 509 92.5 525.5 c 128,-1,49
 109 542 109 542 131 542 c 128,-1,50
 153 542 153 542 169.5 525.5 c 128,-1,51
 186 509 186 509 186 487 c 128,-1,52
 186 465 186 465 169.5 448.5 c 128,-1,53
 153 432 153 432 130.5 432 c 128,-1,46
 108 432 108 432 92 448 c 128,-1,47
EndSplineSet
EndChar

StartChar: less
Encoding: 60 60 31
Width: 584
GlyphClass: 2
Flags: W
LayerCount: 2
Fore
SplineSet
489 502 m 1,0,-1
 156 364 l 1,1,-1
 489 226 l 1,2,-1
 489 154 l 1,3,-1
 95 323 l 1,4,-1
 95 405 l 1,5,-1
 489 574 l 1,6,-1
 489 502 l 1,0,-1
EndSplineSet
EndChar

StartChar: equal
Encoding: 61 61 32
Width: 584
GlyphClass: 2
Flags: W
LayerCount: 2
Fore
SplineSet
489 434 m 1,0,-1
 95 434 l 1,1,-1
 95 499 l 1,2,-1
 489 499 l 1,3,-1
 489 434 l 1,0,-1
489 231 m 1,4,-1
 95 231 l 1,5,-1
 95 296 l 1,6,-1
 489 296 l 1,7,-1
 489 231 l 1,4,-1
EndSplineSet
EndChar

StartChar: greater
Encoding: 62 62 33
Width: 584
GlyphClass: 2
Flags: W
LayerCount: 2
Fore
SplineSet
428 364 m 1,0,-1
 95 502 l 1,1,-1
 95 574 l 1,2,-1
 489 405 l 1,3,-1
 489 323 l 1,4,-1
 95 154 l 1,5,-1
 95 226 l 1,6,-1
 428 364 l 1,0,-1
EndSplineSet
EndChar

StartChar: question
Encoding: 63 63 34
Width: 457
GlyphClass: 2
Flags: W
LayerCount: 2
Fore
SplineSet
88 552 m 1,0,-1
 19 552 l 1,1,2
 19 638 19 638 71.5 691 c 128,-1,3
 124 744 124 744 215.5 744 c 128,-1,4
 307 744 307 744 358.5 692 c 128,-1,5
 410 640 410 640 410 554 c 128,-1,6
 410 468 410 468 346 396 c 0,7,8
 320 366 320 366 293 336 c 0,9,10
 229 263 229 263 229 176 c 1,11,-1
 171 176 l 1,12,13
 171 280 171 280 229 354 c 0,14,15
 253 384 253 384 278 412 c 0,16,17
 336 479 336 479 336 554 c 0,18,19
 336 608 336 608 303 646 c 128,-1,20
 270 684 270 684 212.5 684 c 128,-1,21
 155 684 155 684 121.5 646.5 c 128,-1,22
 88 609 88 609 88 552 c 1,0,-1
164 7.5 m 128,-1,24
 148 23 148 23 148 44.5 c 128,-1,25
 148 66 148 66 164 82 c 128,-1,26
 180 98 180 98 201.5 98 c 128,-1,27
 223 98 223 98 238.5 82 c 128,-1,28
 254 66 254 66 254 44.5 c 128,-1,29
 254 23 254 23 238.5 7.5 c 128,-1,30
 223 -8 223 -8 201.5 -8 c 128,-1,23
 180 -8 180 -8 164 7.5 c 128,-1,24
EndSplineSet
EndChar

StartChar: at
Encoding: 64 64 35
Width: 1070
GlyphClass: 2
Flags: W
LayerCount: 2
Fore
SplineSet
984 379 m 0,0,1
 984 251 984 251 912 171 c 0,2,3
 887 144 887 144 849 127 c 128,-1,4
 811 110 811 110 764 110 c 0,5,6
 661 110 661 110 629 206 c 1,7,8
 574 124 574 124 481 124 c 0,9,10
 405 124 405 124 366 186 c 128,-1,11
 327 248 327 248 327 338 c 0,12,13
 327 435 327 435 369 507 c 0,14,15
 390 543 390 543 427.5 564.5 c 128,-1,16
 465 586 465 586 522 586 c 128,-1,17
 579 586 579 586 638 550 c 1,18,-1
 674 586 l 1,19,20
 701 586 701 586 699 559 c 2,21,-1
 685 313 l 2,22,23
 684 302 684 302 684 293 c 0,24,25
 684 229 684 229 708.5 196.5 c 128,-1,26
 733 164 733 164 777 164 c 0,27,28
 841 164 841 164 876.5 221.5 c 128,-1,29
 912 279 912 279 912 379 c 128,-1,30
 912 479 912 479 874.5 558.5 c 128,-1,31
 837 638 837 638 755 688 c 128,-1,32
 673 738 673 738 549 738 c 128,-1,33
 425 738 425 738 334 681 c 0,34,35
 158 572 158 572 158 331 c 0,36,37
 158 114 158 114 314 19 c 0,38,39
 396 -31 396 -31 514 -31 c 0,40,41
 674 -31 674 -31 781 56 c 1,42,-1
 819 6 l 1,43,44
 699 -92 699 -92 511 -92 c 0,45,46
 404 -92 404 -92 321 -58.5 c 128,-1,47
 238 -25 238 -25 188 34 c 1,48,49
 85 152 85 152 85 328 c 0,50,51
 85 522 85 522 200 657 c 0,52,53
 257 723 257 723 349 761 c 128,-1,54
 441 799 441 799 553 799 c 128,-1,55
 665 799 665 799 748 765.5 c 128,-1,56
 831 732 831 732 882 674 c 0,57,58
 984 555 984 555 984 379 c 0,0,1
529 532 m 0,59,60
 399 532 399 532 399 336 c 0,61,62
 399 267 399 267 423 222.5 c 128,-1,63
 447 178 447 178 506 178 c 128,-1,64
 565 178 565 178 613 241 c 1,65,-1
 616 316 l 1,66,-1
 626 506 l 1,67,68
 581 532 581 532 529 532 c 0,59,60
EndSplineSet
EndChar

StartChar: A
Encoding: 65 65 36
Width: 643
GlyphClass: 2
Flags: W
LayerCount: 2
Fore
SplineSet
77 0 m 2,0,-1
 -1 0 l 1,1,-1
 -1 52 l 1,2,-1
 47 59 l 1,3,-1
 268 730 l 1,4,-1
 374 730 l 1,5,-1
 596 59 l 1,6,-1
 644 52 l 1,7,-1
 644 0 l 1,8,-1
 566 0 l 2,9,10
 539 0 539 0 530 26 c 2,11,-1
 465 224 l 1,12,-1
 178 224 l 1,13,-1
 113 26 l 2,14,15
 104 0 104 0 77 0 c 2,0,-1
324 655 m 1,16,-1
 319 655 l 1,17,-1
 198 286 l 1,18,-1
 445 286 l 1,19,-1
 324 655 l 1,16,-1
EndSplineSet
EndChar

StartChar: B
Encoding: 66 66 37
Width: 644
GlyphClass: 2
Flags: W
LayerCount: 2
Fore
SplineSet
73 730 m 1,0,-1
 335 730 l 2,1,2
 444 730 444 730 504 678.5 c 128,-1,3
 564 627 564 627 564 539 c 0,4,5
 564 475 564 475 531 431 c 128,-1,6
 498 387 498 387 438 375 c 1,7,8
 512 365 512 365 554 317.5 c 128,-1,9
 596 270 596 270 596 200 c 0,10,11
 596 0 596 0 370 0 c 2,12,-1
 73 0 l 1,13,-1
 73 52 l 1,14,-1
 136 59 l 1,15,-1
 136 670 l 1,16,-1
 73 678 l 1,17,-1
 73 730 l 1,0,-1
216 675 m 1,18,-1
 216 55 l 1,19,-1
 368 55 l 2,20,21
 517 55 517 55 517 200 c 0,22,23
 517 269 517 269 473 307 c 128,-1,24
 429 345 429 345 348 345 c 2,25,-1
 279 345 l 1,26,-1
 279 400 l 1,27,-1
 348 400 l 2,28,29
 485 400 485 400 485 539 c 0,30,31
 485 601 485 601 445.5 638 c 128,-1,32
 406 675 406 675 330 675 c 2,33,-1
 216 675 l 1,18,-1
EndSplineSet
EndChar

StartChar: C
Encoding: 67 67 38
Width: 621
GlyphClass: 2
Flags: W
LayerCount: 2
Fore
SplineSet
340 683 m 0,0,1
 280 683 280 683 238 653.5 c 128,-1,2
 196 624 196 624 176 574 c 0,3,4
 141 483 141 483 141 377 c 0,5,6
 141 266 141 266 176 166 c 1,7,8
 196 112 196 112 238 79 c 128,-1,9
 280 46 280 46 340 46 c 0,10,11
 483 46 483 46 519 245 c 1,12,-1
 588 229 l 1,13,14
 535 -15 535 -15 339 -15 c 0,15,16
 274 -15 274 -15 223.5 10.5 c 128,-1,17
 173 36 173 36 143 75 c 128,-1,18
 113 114 113 114 94 168 c 0,19,20
 61 260 61 260 61 374 c 0,21,22
 61 480 61 480 94 569 c 0,23,24
 113 620 113 620 143 657.5 c 128,-1,25
 173 695 173 695 224 719.5 c 128,-1,26
 275 744 275 744 340 744 c 0,27,28
 449 744 449 744 563 687 c 1,29,-1
 537 627 l 1,30,31
 436 683 436 683 340 683 c 0,0,1
EndSplineSet
EndChar

StartChar: D
Encoding: 68 68 39
Width: 711
GlyphClass: 2
Flags: W
LayerCount: 2
Fore
SplineSet
73 730 m 1,0,-1
 347 730 l 2,1,2
 496 730 496 730 575 636.5 c 128,-1,3
 654 543 654 543 654 365 c 128,-1,4
 654 187 654 187 575 93.5 c 128,-1,5
 496 0 496 0 347 0 c 2,6,-1
 73 0 l 1,7,-1
 73 52 l 1,8,-1
 135 59 l 1,9,-1
 135 670 l 1,10,-1
 73 678 l 1,11,-1
 73 730 l 1,0,-1
215 675 m 1,12,-1
 215 55 l 1,13,-1
 351 55 l 2,14,15
 460 55 460 55 517.5 135 c 128,-1,16
 575 215 575 215 575 365 c 128,-1,17
 575 515 575 515 517.5 595 c 128,-1,18
 460 675 460 675 351 675 c 2,19,-1
 215 675 l 1,12,-1
EndSplineSet
EndChar

StartChar: E
Encoding: 69 69 40
Width: 627
GlyphClass: 2
Flags: W
LayerCount: 2
Fore
SplineSet
73 730 m 1,0,-1
 514 730 l 2,1,2
 544 730 544 730 544 699 c 2,3,-1
 544 566 l 1,4,-1
 492 566 l 1,5,-1
 485 675 l 1,6,-1
 215 675 l 1,7,-1
 215 398 l 1,8,-1
 499 398 l 1,9,-1
 499 343 l 1,10,-1
 215 343 l 1,11,-1
 215 54 l 1,12,-1
 494 54 l 1,13,-1
 502 160 l 1,14,-1
 554 160 l 1,15,-1
 554 31 l 2,16,17
 554 0 554 0 523 0 c 2,18,-1
 73 0 l 1,19,-1
 73 52 l 1,20,-1
 135 59 l 1,21,-1
 135 670 l 1,22,-1
 73 678 l 1,23,-1
 73 730 l 1,0,-1
EndSplineSet
EndChar

StartChar: F
Encoding: 70 70 41
Width: 585
GlyphClass: 2
Flags: W
LayerCount: 2
Fore
SplineSet
297 0 m 1,0,-1
 73 0 l 1,1,-1
 73 52 l 1,2,-1
 135 59 l 1,3,-1
 135 670 l 1,4,-1
 73 678 l 1,5,-1
 73 730 l 1,6,-1
 497 730 l 2,7,8
 528 730 528 730 528 699 c 2,9,-1
 528 563 l 1,10,-1
 475 563 l 1,11,-1
 468 675 l 1,12,-1
 215 675 l 1,13,-1
 215 388 l 1,14,-1
 482 388 l 1,15,-1
 482 333 l 1,16,-1
 215 333 l 1,17,-1
 215 59 l 1,18,-1
 297 51 l 1,19,-1
 297 0 l 1,0,-1
EndSplineSet
PairPos2: "'kern' Horizontal Kerning in Latin lookup 0 per glyph data 1" oe dx=0 dy=0 dh=-40 dv=0 dx=0 dy=0 dh=0 dv=0
PairPos2: "'kern' Horizontal Kerning in Latin lookup 0 per glyph data 1" oslash dx=0 dy=0 dh=-40 dv=0 dx=0 dy=0 dh=0 dv=0
PairPos2: "'kern' Horizontal Kerning in Latin lookup 0 per glyph data 1" odieresis dx=0 dy=0 dh=-40 dv=0 dx=0 dy=0 dh=0 dv=0
PairPos2: "'kern' Horizontal Kerning in Latin lookup 0 per glyph data 1" otilde dx=0 dy=0 dh=-40 dv=0 dx=0 dy=0 dh=0 dv=0
PairPos2: "'kern' Horizontal Kerning in Latin lookup 0 per glyph data 1" ocircumflex dx=0 dy=0 dh=-40 dv=0 dx=0 dy=0 dh=0 dv=0
PairPos2: "'kern' Horizontal Kerning in Latin lookup 0 per glyph data 1" oacute dx=0 dy=0 dh=-40 dv=0 dx=0 dy=0 dh=0 dv=0
PairPos2: "'kern' Horizontal Kerning in Latin lookup 0 per glyph data 1" ograve dx=0 dy=0 dh=-40 dv=0 dx=0 dy=0 dh=0 dv=0
PairPos2: "'kern' Horizontal Kerning in Latin lookup 0 per glyph data 1" edieresis dx=0 dy=0 dh=-40 dv=0 dx=0 dy=0 dh=0 dv=0
PairPos2: "'kern' Horizontal Kerning in Latin lookup 0 per glyph data 1" ecircumflex dx=0 dy=0 dh=-40 dv=0 dx=0 dy=0 dh=0 dv=0
PairPos2: "'kern' Horizontal Kerning in Latin lookup 0 per glyph data 1" eacute dx=0 dy=0 dh=-40 dv=0 dx=0 dy=0 dh=0 dv=0
PairPos2: "'kern' Horizontal Kerning in Latin lookup 0 per glyph data 1" egrave dx=0 dy=0 dh=-40 dv=0 dx=0 dy=0 dh=0 dv=0
PairPos2: "'kern' Horizontal Kerning in Latin lookup 0 per glyph data 1" ccedilla dx=0 dy=0 dh=-40 dv=0 dx=0 dy=0 dh=0 dv=0
PairPos2: "'kern' Horizontal Kerning in Latin lookup 0 per glyph data 1" AE dx=0 dy=0 dh=-110 dv=0 dx=0 dy=0 dh=0 dv=0
PairPos2: "'kern' Horizontal Kerning in Latin lookup 0 per glyph data 1" Aring dx=0 dy=0 dh=-80 dv=0 dx=0 dy=0 dh=0 dv=0
PairPos2: "'kern' Horizontal Kerning in Latin lookup 0 per glyph data 1" Adieresis dx=0 dy=0 dh=-80 dv=0 dx=0 dy=0 dh=0 dv=0
PairPos2: "'kern' Horizontal Kerning in Latin lookup 0 per glyph data 1" Atilde dx=0 dy=0 dh=-80 dv=0 dx=0 dy=0 dh=0 dv=0
PairPos2: "'kern' Horizontal Kerning in Latin lookup 0 per glyph data 1" Acircumflex dx=0 dy=0 dh=-80 dv=0 dx=0 dy=0 dh=0 dv=0
PairPos2: "'kern' Horizontal Kerning in Latin lookup 0 per glyph data 1" Aacute dx=0 dy=0 dh=-80 dv=0 dx=0 dy=0 dh=0 dv=0
PairPos2: "'kern' Horizontal Kerning in Latin lookup 0 per glyph data 1" Agrave dx=0 dy=0 dh=-80 dv=0 dx=0 dy=0 dh=0 dv=0
PairPos2: "'kern' Horizontal Kerning in Latin lookup 0 per glyph data 1" q dx=0 dy=0 dh=-40 dv=0 dx=0 dy=0 dh=0 dv=0
PairPos2: "'kern' Horizontal Kerning in Latin lookup 0 per glyph data 1" o dx=0 dy=0 dh=-40 dv=0 dx=0 dy=0 dh=0 dv=0
PairPos2: "'kern' Horizontal Kerning in Latin lookup 0 per glyph data 1" g dx=0 dy=0 dh=-40 dv=0 dx=0 dy=0 dh=0 dv=0
PairPos2: "'kern' Horizontal Kerning in Latin lookup 0 per glyph data 1" e dx=0 dy=0 dh=-40 dv=0 dx=0 dy=0 dh=0 dv=0
PairPos2: "'kern' Horizontal Kerning in Latin lookup 0 per glyph data 1" d dx=0 dy=0 dh=-40 dv=0 dx=0 dy=0 dh=0 dv=0
PairPos2: "'kern' Horizontal Kerning in Latin lookup 0 per glyph data 1" c dx=0 dy=0 dh=-40 dv=0 dx=0 dy=0 dh=0 dv=0
PairPos2: "'kern' Horizontal Kerning in Latin lookup 0 per glyph data 1" A dx=0 dy=0 dh=-80 dv=0 dx=0 dy=0 dh=0 dv=0
EndChar

StartChar: G
Encoding: 71 71 42
Width: 637
GlyphClass: 2
Flags: W
LayerCount: 2
Fore
SplineSet
335 -14 m 0,0,1
 276 -14 276 -14 224 11.5 c 128,-1,2
 172 37 172 37 142 75.5 c 128,-1,3
 112 114 112 114 93 168 c 0,4,5
 61 259 61 259 61 374 c 0,6,7
 61 481 61 481 94 569 c 0,8,9
 114 620 114 620 145 657.5 c 128,-1,10
 176 695 176 695 228.5 719.5 c 128,-1,11
 281 744 281 744 349 744 c 0,12,13
 459 744 459 744 580 687 c 1,14,-1
 553 627 l 1,15,16
 450 683 450 683 349 683 c 0,17,18
 286 683 286 683 242 653.5 c 128,-1,19
 198 624 198 624 178 574 c 0,20,21
 141 485 141 485 141 377 c 0,22,23
 141 214 141 214 195 127 c 0,24,25
 216 93 216 93 254.5 70 c 128,-1,26
 293 47 293 47 344 47 c 0,27,28
 417 47 417 47 465.5 90.5 c 128,-1,29
 514 134 514 134 514 227 c 2,30,-1
 514 311 l 1,31,-1
 382 318 l 1,32,-1
 382 376 l 1,33,-1
 554 376 l 2,34,35
 590 376 590 376 590 346 c 2,36,-1
 590 224 l 2,37,38
 590 91 590 91 514 36 c 0,39,40
 445 -14 445 -14 335 -14 c 0,0,1
EndSplineSet
EndChar

StartChar: H
Encoding: 72 72 43
Width: 775
GlyphClass: 2
Flags: W
LayerCount: 2
Fore
SplineSet
701 0 m 1,0,-1
 590 0 l 2,1,2
 559 0 559 0 559 31 c 2,3,-1
 559 334 l 1,4,-1
 215 334 l 1,5,-1
 215 31 l 2,6,7
 215 0 215 0 184 0 c 2,8,-1
 73 0 l 1,9,-1
 73 52 l 1,10,-1
 135 60 l 1,11,-1
 135 670 l 1,12,-1
 73 678 l 1,13,-1
 73 730 l 1,14,-1
 184 730 l 2,15,16
 215 730 215 730 215 699 c 2,17,-1
 215 396 l 1,18,-1
 559 396 l 1,19,-1
 559 699 l 2,20,21
 559 730 559 730 590 730 c 2,22,-1
 701 730 l 1,23,-1
 701 678 l 1,24,-1
 639 672 l 1,25,-1
 639 60 l 1,26,-1
 701 52 l 1,27,-1
 701 0 l 1,0,-1
EndSplineSet
EndChar

StartChar: I
Encoding: 73 73 44
Width: 350
GlyphClass: 2
Flags: W
LayerCount: 2
Fore
SplineSet
277 0 m 1,0,-1
 73 0 l 1,1,-1
 73 52 l 1,2,-1
 135 59 l 1,3,-1
 135 670 l 1,4,-1
 73 678 l 1,5,-1
 73 730 l 1,6,-1
 277 730 l 1,7,-1
 277 678 l 1,8,-1
 215 670 l 1,9,-1
 215 59 l 1,10,-1
 277 52 l 1,11,-1
 277 0 l 1,0,-1
EndSplineSet
EndChar

StartChar: J
Encoding: 74 74 45
Width: 506
GlyphClass: 2
Flags: W
LayerCount: 2
Fore
SplineSet
411 699 m 2,0,-1
 411 204 l 2,1,2
 411 -14 411 -14 214 -14 c 0,3,4
 19 -14 19 -14 19 204 c 2,5,-1
 19 234 l 1,6,-1
 91 234 l 1,7,-1
 91 207 l 2,8,9
 91 47 91 47 213 47 c 0,10,11
 332 47 332 47 332 207 c 2,12,-1
 332 672 l 1,13,-1
 237 680 l 1,14,-1
 237 730 l 1,15,-1
 378 730 l 2,16,17
 411 730 411 730 411 699 c 2,0,-1
EndSplineSet
EndChar

StartChar: K
Encoding: 75 75 46
Width: 647
GlyphClass: 2
Flags: W
LayerCount: 2
Fore
SplineSet
626 0 m 1,0,-1
 542 0 l 2,1,2
 518 0 518 0 505 20 c 2,3,-1
 294 343 l 1,4,-1
 215 343 l 1,5,-1
 215 31 l 2,6,7
 215 0 215 0 184 0 c 2,8,-1
 73 0 l 1,9,-1
 73 51 l 1,10,-1
 135 57 l 1,11,-1
 135 671 l 1,12,-1
 73 678 l 1,13,-1
 73 730 l 1,14,-1
 184 730 l 2,15,16
 215 730 215 730 215 699 c 2,17,-1
 215 396 l 1,18,-1
 298 396 l 1,19,-1
 496 709 l 2,20,21
 510 730 510 730 534 730 c 2,22,-1
 617 730 l 1,23,-1
 617 678 l 1,24,-1
 562 671 l 1,25,-1
 365 368 l 1,26,-1
 571 59 l 1,27,-1
 626 51 l 1,28,-1
 626 0 l 1,0,-1
EndSplineSet
EndChar

StartChar: L
Encoding: 76 76 47
Width: 514
GlyphClass: 2
Flags: W
LayerCount: 2
Fore
SplineSet
215 54 m 1,0,-1
 444 54 l 1,1,-1
 452 170 l 1,2,-1
 504 170 l 1,3,-1
 504 31 l 2,4,5
 504 0 504 0 473 0 c 2,6,-1
 73 0 l 1,7,-1
 73 52 l 1,8,-1
 135 59 l 1,9,-1
 135 670 l 1,10,-1
 73 678 l 1,11,-1
 73 730 l 1,12,-1
 297 730 l 1,13,-1
 297 678 l 1,14,-1
 215 670 l 1,15,-1
 215 54 l 1,0,-1
EndSplineSet
EndChar

StartChar: M
Encoding: 77 77 48
Width: 987
GlyphClass: 2
Flags: W
LayerCount: 2
Fore
SplineSet
911 0 m 1,0,-1
 797 0 l 2,1,2
 767 0 767 0 765 29 c 2,3,-1
 727 621 l 1,4,-1
 524 103 l 1,5,-1
 451 103 l 1,6,-1
 259 621 l 1,7,-1
 222 29 l 2,8,9
 220 0 220 0 190 0 c 2,10,-1
 76 0 l 1,11,-1
 76 52 l 1,12,-1
 144 59 l 1,13,-1
 180 670 l 1,14,-1
 124 678 l 1,15,-1
 124 730 l 1,16,-1
 271 730 l 2,17,18
 297 730 297 730 306 705 c 2,19,-1
 487 199 l 1,20,-1
 680 705 l 2,21,22
 689 730 689 730 715 730 c 2,23,-1
 862 730 l 1,24,-1
 862 678 l 1,25,-1
 806 670 l 1,26,-1
 843 59 l 1,27,-1
 911 52 l 1,28,-1
 911 0 l 1,0,-1
EndSplineSet
EndChar

StartChar: N
Encoding: 78 78 49
Width: 793
GlyphClass: 2
Flags: W
LayerCount: 2
Fore
SplineSet
668 0 m 1,0,-1
 602 0 l 2,1,2
 576 0 576 0 565 20 c 2,3,-1
 215 603 l 1,4,-1
 215 31 l 2,5,6
 215 0 215 0 184 0 c 2,7,-1
 73 0 l 1,8,-1
 73 52 l 1,9,-1
 135 59 l 1,10,-1
 135 670 l 1,11,-1
 73 678 l 1,12,-1
 73 730 l 1,13,-1
 201 730 l 2,14,15
 225 730 225 730 238 710 c 2,16,-1
 588 126 l 1,17,-1
 588 699 l 2,18,19
 588 730 588 730 618 730 c 2,20,-1
 730 730 l 1,21,-1
 730 678 l 1,22,-1
 668 670 l 1,23,-1
 668 0 l 1,0,-1
EndSplineSet
EndChar

StartChar: O
Encoding: 79 79 50
Width: 707
GlyphClass: 2
Flags: W
LayerCount: 2
Fore
SplineSet
139.5 645.5 m 128,-1,1
 217 744 217 744 353.5 744 c 128,-1,2
 490 744 490 744 568 645.5 c 128,-1,3
 646 547 646 547 646 365 c 128,-1,4
 646 183 646 183 568 84.5 c 128,-1,5
 490 -14 490 -14 353.5 -14 c 128,-1,6
 217 -14 217 -14 139.5 84.5 c 128,-1,7
 62 183 62 183 62 365 c 128,-1,0
 62 547 62 547 139.5 645.5 c 128,-1,1
509.5 600.5 m 128,-1,9
 453 683 453 683 353.5 683 c 128,-1,10
 254 683 254 683 197.5 600.5 c 128,-1,11
 141 518 141 518 141 365 c 128,-1,12
 141 212 141 212 197.5 129.5 c 128,-1,13
 254 47 254 47 353.5 47 c 128,-1,14
 453 47 453 47 509.5 129.5 c 128,-1,15
 566 212 566 212 566 365 c 128,-1,8
 566 518 566 518 509.5 600.5 c 128,-1,9
EndSplineSet
EndChar

StartChar: P
Encoding: 80 80 51
Width: 619
GlyphClass: 2
Flags: W
LayerCount: 2
Fore
SplineSet
278 337 m 1,0,-1
 337 337 l 2,1,2
 493 337 493 337 493 506 c 128,-1,3
 493 675 493 675 337 675 c 2,4,-1
 215 675 l 1,5,-1
 215 59 l 1,6,-1
 302 51 l 1,7,-1
 302 0 l 1,8,-1
 73 0 l 1,9,-1
 73 52 l 1,10,-1
 135 59 l 1,11,-1
 135 670 l 1,12,-1
 73 678 l 1,13,-1
 73 730 l 1,14,-1
 337 730 l 2,15,16
 452 730 452 730 511.5 673 c 128,-1,17
 571 616 571 616 571 504.5 c 128,-1,18
 571 393 571 393 512 333.5 c 128,-1,19
 453 274 453 274 337 274 c 2,20,-1
 278 274 l 1,21,-1
 278 337 l 1,0,-1
EndSplineSet
PairPos2: "'kern' Horizontal Kerning in Latin lookup 0 per glyph data 1" AE dx=0 dy=0 dh=-95 dv=0 dx=0 dy=0 dh=0 dv=0
PairPos2: "'kern' Horizontal Kerning in Latin lookup 0 per glyph data 1" Aring dx=0 dy=0 dh=-65 dv=0 dx=0 dy=0 dh=0 dv=0
PairPos2: "'kern' Horizontal Kerning in Latin lookup 0 per glyph data 1" Adieresis dx=0 dy=0 dh=-65 dv=0 dx=0 dy=0 dh=0 dv=0
PairPos2: "'kern' Horizontal Kerning in Latin lookup 0 per glyph data 1" Atilde dx=0 dy=0 dh=-65 dv=0 dx=0 dy=0 dh=0 dv=0
PairPos2: "'kern' Horizontal Kerning in Latin lookup 0 per glyph data 1" Acircumflex dx=0 dy=0 dh=-65 dv=0 dx=0 dy=0 dh=0 dv=0
PairPos2: "'kern' Horizontal Kerning in Latin lookup 0 per glyph data 1" Aacute dx=0 dy=0 dh=-65 dv=0 dx=0 dy=0 dh=0 dv=0
PairPos2: "'kern' Horizontal Kerning in Latin lookup 0 per glyph data 1" Agrave dx=0 dy=0 dh=-65 dv=0 dx=0 dy=0 dh=0 dv=0
PairPos2: "'kern' Horizontal Kerning in Latin lookup 0 per glyph data 1" A dx=0 dy=0 dh=-65 dv=0 dx=0 dy=0 dh=0 dv=0
EndChar

StartChar: Q
Encoding: 81 81 52
Width: 710
GlyphClass: 2
Flags: W
LayerCount: 2
Fore
SplineSet
139.5 645.5 m 128,-1,1
 217 744 217 744 353.5 744 c 128,-1,2
 490 744 490 744 568 645.5 c 128,-1,3
 646 547 646 547 646 375 c 128,-1,4
 646 203 646 203 583.5 106.5 c 128,-1,5
 521 10 521 10 409 -9 c 1,6,-1
 502 -194 l 1,7,-1
 424 -194 l 1,8,-1
 335 -13 l 1,9,10
 207 -7 207 -7 134.5 91 c 128,-1,11
 62 189 62 189 62 368 c 128,-1,0
 62 547 62 547 139.5 645.5 c 128,-1,1
509.5 600.5 m 128,-1,13
 453 683 453 683 353.5 683 c 128,-1,14
 254 683 254 683 197.5 600.5 c 128,-1,15
 141 518 141 518 141 365 c 128,-1,16
 141 212 141 212 197.5 129.5 c 128,-1,17
 254 47 254 47 353.5 47 c 128,-1,18
 453 47 453 47 509.5 129.5 c 128,-1,19
 566 212 566 212 566 365 c 128,-1,12
 566 518 566 518 509.5 600.5 c 128,-1,13
EndSplineSet
EndChar

StartChar: R
Encoding: 82 82 53
Width: 667
GlyphClass: 2
Flags: W
LayerCount: 2
Fore
SplineSet
273 357 m 1,0,-1
 332 357 l 2,1,2
 410 357 410 357 449 397.5 c 128,-1,3
 488 438 488 438 488 514.5 c 128,-1,4
 488 591 488 591 449 633 c 128,-1,5
 410 675 410 675 332 675 c 2,6,-1
 215 675 l 1,7,-1
 215 59 l 1,8,-1
 302 52 l 1,9,-1
 302 0 l 1,10,-1
 73 0 l 1,11,-1
 73 52 l 1,12,-1
 135 59 l 1,13,-1
 135 670 l 1,14,-1
 73 678 l 1,15,-1
 73 730 l 1,16,-1
 332 730 l 2,17,18
 446 730 446 730 506 674 c 128,-1,19
 566 618 566 618 566 514 c 0,20,21
 566 355 566 355 429 314 c 1,22,23
 479 291 479 291 501 239 c 2,24,-1
 579 59 l 1,25,-1
 642 52 l 1,26,-1
 642 0 l 1,27,-1
 545 0 l 2,28,29
 519 0 519 0 509 23 c 2,30,-1
 422 228 l 2,31,32
 403 273 403 273 377.5 287.5 c 128,-1,33
 352 302 352 302 295 302 c 2,34,-1
 273 302 l 1,35,-1
 273 357 l 1,0,-1
EndSplineSet
EndChar

StartChar: S
Encoding: 83 83 54
Width: 545
GlyphClass: 2
Flags: W
LayerCount: 2
Fore
SplineSet
461 635 m 1,0,1
 365 683 365 683 291 683 c 128,-1,2
 217 683 217 683 178.5 650.5 c 128,-1,3
 140 618 140 618 140 562.5 c 128,-1,4
 140 507 140 507 178 471 c 128,-1,5
 216 435 216 435 270 412.5 c 128,-1,6
 324 390 324 390 377.5 365 c 128,-1,7
 431 340 431 340 469 293.5 c 128,-1,8
 507 247 507 247 507 180 c 0,9,10
 507 89 507 89 444 37.5 c 128,-1,11
 381 -14 381 -14 282 -14 c 128,-1,12
 183 -14 183 -14 121 39.5 c 128,-1,13
 59 93 59 93 38 189 c 1,14,-1
 108 206 l 1,15,16
 149 47 149 47 276 47 c 0,17,18
 348 47 348 47 387.5 82 c 128,-1,19
 427 117 427 117 427 180 c 0,20,21
 427 250 427 250 354 292 c 0,22,23
 322 310 322 310 283 326.5 c 128,-1,24
 244 343 244 343 204.5 362.5 c 128,-1,25
 165 382 165 382 132.5 406 c 128,-1,26
 100 430 100 430 80 469 c 128,-1,27
 60 508 60 508 60 559 c 0,28,29
 60 647 60 647 121.5 695.5 c 128,-1,30
 183 744 183 744 280.5 744 c 128,-1,31
 378 744 378 744 486 695 c 1,32,-1
 461 635 l 1,0,1
EndSplineSet
EndChar

StartChar: T
Encoding: 84 84 55
Width: 558
GlyphClass: 2
Flags: W
LayerCount: 2
Fore
SplineSet
50 730 m 2,0,-1
 508 730 l 2,1,2
 539 730 539 730 539 699 c 2,3,-1
 539 563 l 1,4,-1
 487 563 l 1,5,-1
 479 675 l 1,6,-1
 319 675 l 1,7,-1
 319 59 l 1,8,-1
 409 52 l 1,9,-1
 409 0 l 1,10,-1
 149 0 l 1,11,-1
 149 52 l 1,12,-1
 239 59 l 1,13,-1
 239 675 l 1,14,-1
 79 675 l 1,15,-1
 71 563 l 1,16,-1
 19 563 l 1,17,-1
 19 699 l 2,18,19
 19 730 19 730 50 730 c 2,0,-1
EndSplineSet
PairPos2: "'kern' Horizontal Kerning in Latin lookup 0 per glyph data 1" ellipsis dx=0 dy=0 dh=-80 dv=0 dx=0 dy=0 dh=0 dv=0
PairPos2: "'kern' Horizontal Kerning in Latin lookup 0 per glyph data 1" quotedblbase dx=0 dy=0 dh=-80 dv=0 dx=0 dy=0 dh=0 dv=0
PairPos2: "'kern' Horizontal Kerning in Latin lookup 0 per glyph data 1" quotesinglbase dx=0 dy=0 dh=-80 dv=0 dx=0 dy=0 dh=0 dv=0
PairPos2: "'kern' Horizontal Kerning in Latin lookup 0 per glyph data 1" oe dx=0 dy=0 dh=-60 dv=0 dx=0 dy=0 dh=0 dv=0
PairPos2: "'kern' Horizontal Kerning in Latin lookup 0 per glyph data 1" oslash dx=0 dy=0 dh=-60 dv=0 dx=0 dy=0 dh=0 dv=0
PairPos2: "'kern' Horizontal Kerning in Latin lookup 0 per glyph data 1" odieresis dx=0 dy=0 dh=-60 dv=0 dx=0 dy=0 dh=0 dv=0
PairPos2: "'kern' Horizontal Kerning in Latin lookup 0 per glyph data 1" otilde dx=0 dy=0 dh=-60 dv=0 dx=0 dy=0 dh=0 dv=0
PairPos2: "'kern' Horizontal Kerning in Latin lookup 0 per glyph data 1" ocircumflex dx=0 dy=0 dh=-60 dv=0 dx=0 dy=0 dh=0 dv=0
PairPos2: "'kern' Horizontal Kerning in Latin lookup 0 per glyph data 1" oacute dx=0 dy=0 dh=-60 dv=0 dx=0 dy=0 dh=0 dv=0
PairPos2: "'kern' Horizontal Kerning in Latin lookup 0 per glyph data 1" ograve dx=0 dy=0 dh=-60 dv=0 dx=0 dy=0 dh=0 dv=0
PairPos2: "'kern' Horizontal Kerning in Latin lookup 0 per glyph data 1" edieresis dx=0 dy=0 dh=-60 dv=0 dx=0 dy=0 dh=0 dv=0
PairPos2: "'kern' Horizontal Kerning in Latin lookup 0 per glyph data 1" ecircumflex dx=0 dy=0 dh=-60 dv=0 dx=0 dy=0 dh=0 dv=0
PairPos2: "'kern' Horizontal Kerning in Latin lookup 0 per glyph data 1" eacute dx=0 dy=0 dh=-60 dv=0 dx=0 dy=0 dh=0 dv=0
PairPos2: "'kern' Horizontal Kerning in Latin lookup 0 per glyph data 1" egrave dx=0 dy=0 dh=-60 dv=0 dx=0 dy=0 dh=0 dv=0
PairPos2: "'kern' Horizontal Kerning in Latin lookup 0 per glyph data 1" ccedilla dx=0 dy=0 dh=-60 dv=0 dx=0 dy=0 dh=0 dv=0
PairPos2: "'kern' Horizontal Kerning in Latin lookup 0 per glyph data 1" ae dx=0 dy=0 dh=-50 dv=0 dx=0 dy=0 dh=0 dv=0
PairPos2: "'kern' Horizontal Kerning in Latin lookup 0 per glyph data 1" aring dx=0 dy=0 dh=-50 dv=0 dx=0 dy=0 dh=0 dv=0
PairPos2: "'kern' Horizontal Kerning in Latin lookup 0 per glyph data 1" adieresis dx=0 dy=0 dh=-50 dv=0 dx=0 dy=0 dh=0 dv=0
PairPos2: "'kern' Horizontal Kerning in Latin lookup 0 per glyph data 1" atilde dx=0 dy=0 dh=-50 dv=0 dx=0 dy=0 dh=0 dv=0
PairPos2: "'kern' Horizontal Kerning in Latin lookup 0 per glyph data 1" acircumflex dx=0 dy=0 dh=-50 dv=0 dx=0 dy=0 dh=0 dv=0
PairPos2: "'kern' Horizontal Kerning in Latin lookup 0 per glyph data 1" aacute dx=0 dy=0 dh=-50 dv=0 dx=0 dy=0 dh=0 dv=0
PairPos2: "'kern' Horizontal Kerning in Latin lookup 0 per glyph data 1" agrave dx=0 dy=0 dh=-50 dv=0 dx=0 dy=0 dh=0 dv=0
PairPos2: "'kern' Horizontal Kerning in Latin lookup 0 per glyph data 1" AE dx=0 dy=0 dh=-65 dv=0 dx=0 dy=0 dh=0 dv=0
PairPos2: "'kern' Horizontal Kerning in Latin lookup 0 per glyph data 1" Aring dx=0 dy=0 dh=-35 dv=0 dx=0 dy=0 dh=0 dv=0
PairPos2: "'kern' Horizontal Kerning in Latin lookup 0 per glyph data 1" Adieresis dx=0 dy=0 dh=-35 dv=0 dx=0 dy=0 dh=0 dv=0
PairPos2: "'kern' Horizontal Kerning in Latin lookup 0 per glyph data 1" Atilde dx=0 dy=0 dh=-35 dv=0 dx=0 dy=0 dh=0 dv=0
PairPos2: "'kern' Horizontal Kerning in Latin lookup 0 per glyph data 1" Acircumflex dx=0 dy=0 dh=-35 dv=0 dx=0 dy=0 dh=0 dv=0
PairPos2: "'kern' Horizontal Kerning in Latin lookup 0 per glyph data 1" Aacute dx=0 dy=0 dh=-35 dv=0 dx=0 dy=0 dh=0 dv=0
PairPos2: "'kern' Horizontal Kerning in Latin lookup 0 per glyph data 1" Agrave dx=0 dy=0 dh=-35 dv=0 dx=0 dy=0 dh=0 dv=0
PairPos2: "'kern' Horizontal Kerning in Latin lookup 0 per glyph data 1" q dx=0 dy=0 dh=-60 dv=0 dx=0 dy=0 dh=0 dv=0
PairPos2: "'kern' Horizontal Kerning in Latin lookup 0 per glyph data 1" o dx=0 dy=0 dh=-60 dv=0 dx=0 dy=0 dh=0 dv=0
PairPos2: "'kern' Horizontal Kerning in Latin lookup 0 per glyph data 1" g dx=0 dy=0 dh=-60 dv=0 dx=0 dy=0 dh=0 dv=0
PairPos2: "'kern' Horizontal Kerning in Latin lookup 0 per glyph data 1" e dx=0 dy=0 dh=-60 dv=0 dx=0 dy=0 dh=0 dv=0
PairPos2: "'kern' Horizontal Kerning in Latin lookup 0 per glyph data 1" d dx=0 dy=0 dh=-60 dv=0 dx=0 dy=0 dh=0 dv=0
PairPos2: "'kern' Horizontal Kerning in Latin lookup 0 per glyph data 1" c dx=0 dy=0 dh=-60 dv=0 dx=0 dy=0 dh=0 dv=0
PairPos2: "'kern' Horizontal Kerning in Latin lookup 0 per glyph data 1" a dx=0 dy=0 dh=-50 dv=0 dx=0 dy=0 dh=0 dv=0
PairPos2: "'kern' Horizontal Kerning in Latin lookup 0 per glyph data 1" A dx=0 dy=0 dh=-35 dv=0 dx=0 dy=0 dh=0 dv=0
PairPos2: "'kern' Horizontal Kerning in Latin lookup 0 per glyph data 1" period dx=0 dy=0 dh=-80 dv=0 dx=0 dy=0 dh=0 dv=0
PairPos2: "'kern' Horizontal Kerning in Latin lookup 0 per glyph data 1" comma dx=0 dy=0 dh=-80 dv=0 dx=0 dy=0 dh=0 dv=0
EndChar

StartChar: U
Encoding: 85 85 56
Width: 750
GlyphClass: 2
Flags: W
LayerCount: 2
Fore
SplineSet
635 266 m 2,0,1
 635 101 635 101 554 40 c 1,2,3
 485 -14 485 -14 374 -14 c 0,4,5
 267 -14 267 -14 196 40 c 0,6,7
 115 101 115 101 115 266 c 2,8,-1
 115 670 l 1,9,-1
 53 678 l 1,10,-1
 53 730 l 1,11,-1
 162 730 l 2,12,13
 195 730 195 730 195 699 c 2,14,-1
 195 269 l 2,15,16
 195 49 195 49 374 49 c 0,17,18
 555 49 555 49 555 269 c 2,19,-1
 555 699 l 2,20,21
 555 730 555 730 588 730 c 2,22,-1
 697 730 l 1,23,-1
 697 678 l 1,24,-1
 635 670 l 1,25,-1
 635 266 l 2,0,1
EndSplineSet
EndChar

StartChar: V
Encoding: 86 86 57
Width: 617
GlyphClass: 2
Flags: W
LayerCount: 2
Fore
SplineSet
536 730 m 2,0,-1
 620 730 l 1,1,-1
 620 678 l 1,2,-1
 573 670 l 1,3,-1
 360 0 l 1,4,-1
 256 0 l 1,5,-1
 43 670 l 1,6,-1
 -3 678 l 1,7,-1
 -3 730 l 1,8,-1
 81 730 l 2,9,10
 107 730 107 730 115 704 c 2,11,-1
 306 81 l 1,12,-1
 310 81 l 1,13,-1
 502 704 l 2,14,15
 510 730 510 730 536 730 c 2,0,-1
EndSplineSet
PairPos2: "'kern' Horizontal Kerning in Latin lookup 0 per glyph data 1" ellipsis dx=0 dy=0 dh=-120 dv=0 dx=0 dy=0 dh=0 dv=0
PairPos2: "'kern' Horizontal Kerning in Latin lookup 0 per glyph data 1" quotedblbase dx=0 dy=0 dh=-120 dv=0 dx=0 dy=0 dh=0 dv=0
PairPos2: "'kern' Horizontal Kerning in Latin lookup 0 per glyph data 1" quotesinglbase dx=0 dy=0 dh=-120 dv=0 dx=0 dy=0 dh=0 dv=0
PairPos2: "'kern' Horizontal Kerning in Latin lookup 0 per glyph data 1" oe dx=0 dy=0 dh=-40 dv=0 dx=0 dy=0 dh=0 dv=0
PairPos2: "'kern' Horizontal Kerning in Latin lookup 0 per glyph data 1" oslash dx=0 dy=0 dh=-40 dv=0 dx=0 dy=0 dh=0 dv=0
PairPos2: "'kern' Horizontal Kerning in Latin lookup 0 per glyph data 1" odieresis dx=0 dy=0 dh=-40 dv=0 dx=0 dy=0 dh=0 dv=0
PairPos2: "'kern' Horizontal Kerning in Latin lookup 0 per glyph data 1" otilde dx=0 dy=0 dh=-40 dv=0 dx=0 dy=0 dh=0 dv=0
PairPos2: "'kern' Horizontal Kerning in Latin lookup 0 per glyph data 1" ocircumflex dx=0 dy=0 dh=-40 dv=0 dx=0 dy=0 dh=0 dv=0
PairPos2: "'kern' Horizontal Kerning in Latin lookup 0 per glyph data 1" oacute dx=0 dy=0 dh=-40 dv=0 dx=0 dy=0 dh=0 dv=0
PairPos2: "'kern' Horizontal Kerning in Latin lookup 0 per glyph data 1" ograve dx=0 dy=0 dh=-40 dv=0 dx=0 dy=0 dh=0 dv=0
PairPos2: "'kern' Horizontal Kerning in Latin lookup 0 per glyph data 1" edieresis dx=0 dy=0 dh=-40 dv=0 dx=0 dy=0 dh=0 dv=0
PairPos2: "'kern' Horizontal Kerning in Latin lookup 0 per glyph data 1" ecircumflex dx=0 dy=0 dh=-40 dv=0 dx=0 dy=0 dh=0 dv=0
PairPos2: "'kern' Horizontal Kerning in Latin lookup 0 per glyph data 1" eacute dx=0 dy=0 dh=-40 dv=0 dx=0 dy=0 dh=0 dv=0
PairPos2: "'kern' Horizontal Kerning in Latin lookup 0 per glyph data 1" egrave dx=0 dy=0 dh=-40 dv=0 dx=0 dy=0 dh=0 dv=0
PairPos2: "'kern' Horizontal Kerning in Latin lookup 0 per glyph data 1" ccedilla dx=0 dy=0 dh=-40 dv=0 dx=0 dy=0 dh=0 dv=0
PairPos2: "'kern' Horizontal Kerning in Latin lookup 0 per glyph data 1" AE dx=0 dy=0 dh=-80 dv=0 dx=0 dy=0 dh=0 dv=0
PairPos2: "'kern' Horizontal Kerning in Latin lookup 0 per glyph data 1" Aring dx=0 dy=0 dh=-50 dv=0 dx=0 dy=0 dh=0 dv=0
PairPos2: "'kern' Horizontal Kerning in Latin lookup 0 per glyph data 1" Adieresis dx=0 dy=0 dh=-50 dv=0 dx=0 dy=0 dh=0 dv=0
PairPos2: "'kern' Horizontal Kerning in Latin lookup 0 per glyph data 1" Atilde dx=0 dy=0 dh=-50 dv=0 dx=0 dy=0 dh=0 dv=0
PairPos2: "'kern' Horizontal Kerning in Latin lookup 0 per glyph data 1" Acircumflex dx=0 dy=0 dh=-50 dv=0 dx=0 dy=0 dh=0 dv=0
PairPos2: "'kern' Horizontal Kerning in Latin lookup 0 per glyph data 1" Aacute dx=0 dy=0 dh=-50 dv=0 dx=0 dy=0 dh=0 dv=0
PairPos2: "'kern' Horizontal Kerning in Latin lookup 0 per glyph data 1" Agrave dx=0 dy=0 dh=-50 dv=0 dx=0 dy=0 dh=0 dv=0
PairPos2: "'kern' Horizontal Kerning in Latin lookup 0 per glyph data 1" q dx=0 dy=0 dh=-40 dv=0 dx=0 dy=0 dh=0 dv=0
PairPos2: "'kern' Horizontal Kerning in Latin lookup 0 per glyph data 1" o dx=0 dy=0 dh=-40 dv=0 dx=0 dy=0 dh=0 dv=0
PairPos2: "'kern' Horizontal Kerning in Latin lookup 0 per glyph data 1" g dx=0 dy=0 dh=-40 dv=0 dx=0 dy=0 dh=0 dv=0
PairPos2: "'kern' Horizontal Kerning in Latin lookup 0 per glyph data 1" e dx=0 dy=0 dh=-40 dv=0 dx=0 dy=0 dh=0 dv=0
PairPos2: "'kern' Horizontal Kerning in Latin lookup 0 per glyph data 1" d dx=0 dy=0 dh=-40 dv=0 dx=0 dy=0 dh=0 dv=0
PairPos2: "'kern' Horizontal Kerning in Latin lookup 0 per glyph data 1" c dx=0 dy=0 dh=-40 dv=0 dx=0 dy=0 dh=0 dv=0
PairPos2: "'kern' Horizontal Kerning in Latin lookup 0 per glyph data 1" A dx=0 dy=0 dh=-50 dv=0 dx=0 dy=0 dh=0 dv=0
PairPos2: "'kern' Horizontal Kerning in Latin lookup 0 per glyph data 1" period dx=0 dy=0 dh=-120 dv=0 dx=0 dy=0 dh=0 dv=0
PairPos2: "'kern' Horizontal Kerning in Latin lookup 0 per glyph data 1" comma dx=0 dy=0 dh=-120 dv=0 dx=0 dy=0 dh=0 dv=0
EndChar

StartChar: W
Encoding: 87 87 58
Width: 894
GlyphClass: 2
Flags: W
LayerCount: 2
Fore
SplineSet
814 730 m 2,0,-1
 897 730 l 1,1,-1
 897 678 l 1,2,-1
 851 670 l 1,3,-1
 705 0 l 1,4,-1
 605 0 l 1,5,-1
 447 663 l 1,6,-1
 289 0 l 1,7,-1
 189 0 l 1,8,-1
 43 670 l 1,9,-1
 -3 678 l 1,10,-1
 -3 730 l 1,11,-1
 81 730 l 2,12,13
 109 730 109 730 115 704 c 2,14,-1
 238 87 l 1,15,-1
 243 87 l 1,16,-1
 393 704 l 2,17,18
 399 730 399 730 427 730 c 2,19,-1
 467 730 l 2,20,21
 495 730 495 730 501 704 c 2,22,-1
 652 87 l 1,23,-1
 656 87 l 1,24,-1
 779 704 l 2,25,26
 785 730 785 730 814 730 c 2,0,-1
EndSplineSet
PairPos2: "'kern' Horizontal Kerning in Latin lookup 0 per glyph data 1" ellipsis dx=0 dy=0 dh=-110 dv=0 dx=0 dy=0 dh=0 dv=0
PairPos2: "'kern' Horizontal Kerning in Latin lookup 0 per glyph data 1" quotedblbase dx=0 dy=0 dh=-110 dv=0 dx=0 dy=0 dh=0 dv=0
PairPos2: "'kern' Horizontal Kerning in Latin lookup 0 per glyph data 1" quotesinglbase dx=0 dy=0 dh=-110 dv=0 dx=0 dy=0 dh=0 dv=0
PairPos2: "'kern' Horizontal Kerning in Latin lookup 0 per glyph data 1" oe dx=0 dy=0 dh=-30 dv=0 dx=0 dy=0 dh=0 dv=0
PairPos2: "'kern' Horizontal Kerning in Latin lookup 0 per glyph data 1" oslash dx=0 dy=0 dh=-30 dv=0 dx=0 dy=0 dh=0 dv=0
PairPos2: "'kern' Horizontal Kerning in Latin lookup 0 per glyph data 1" odieresis dx=0 dy=0 dh=-30 dv=0 dx=0 dy=0 dh=0 dv=0
PairPos2: "'kern' Horizontal Kerning in Latin lookup 0 per glyph data 1" otilde dx=0 dy=0 dh=-30 dv=0 dx=0 dy=0 dh=0 dv=0
PairPos2: "'kern' Horizontal Kerning in Latin lookup 0 per glyph data 1" ocircumflex dx=0 dy=0 dh=-30 dv=0 dx=0 dy=0 dh=0 dv=0
PairPos2: "'kern' Horizontal Kerning in Latin lookup 0 per glyph data 1" oacute dx=0 dy=0 dh=-30 dv=0 dx=0 dy=0 dh=0 dv=0
PairPos2: "'kern' Horizontal Kerning in Latin lookup 0 per glyph data 1" ograve dx=0 dy=0 dh=-30 dv=0 dx=0 dy=0 dh=0 dv=0
PairPos2: "'kern' Horizontal Kerning in Latin lookup 0 per glyph data 1" edieresis dx=0 dy=0 dh=-30 dv=0 dx=0 dy=0 dh=0 dv=0
PairPos2: "'kern' Horizontal Kerning in Latin lookup 0 per glyph data 1" ecircumflex dx=0 dy=0 dh=-30 dv=0 dx=0 dy=0 dh=0 dv=0
PairPos2: "'kern' Horizontal Kerning in Latin lookup 0 per glyph data 1" eacute dx=0 dy=0 dh=-30 dv=0 dx=0 dy=0 dh=0 dv=0
PairPos2: "'kern' Horizontal Kerning in Latin lookup 0 per glyph data 1" egrave dx=0 dy=0 dh=-30 dv=0 dx=0 dy=0 dh=0 dv=0
PairPos2: "'kern' Horizontal Kerning in Latin lookup 0 per glyph data 1" ccedilla dx=0 dy=0 dh=-30 dv=0 dx=0 dy=0 dh=0 dv=0
PairPos2: "'kern' Horizontal Kerning in Latin lookup 0 per glyph data 1" AE dx=0 dy=0 dh=-75 dv=0 dx=0 dy=0 dh=0 dv=0
PairPos2: "'kern' Horizontal Kerning in Latin lookup 0 per glyph data 1" Aring dx=0 dy=0 dh=-40 dv=0 dx=0 dy=0 dh=0 dv=0
PairPos2: "'kern' Horizontal Kerning in Latin lookup 0 per glyph data 1" Adieresis dx=0 dy=0 dh=-40 dv=0 dx=0 dy=0 dh=0 dv=0
PairPos2: "'kern' Horizontal Kerning in Latin lookup 0 per glyph data 1" Atilde dx=0 dy=0 dh=-40 dv=0 dx=0 dy=0 dh=0 dv=0
PairPos2: "'kern' Horizontal Kerning in Latin lookup 0 per glyph data 1" Acircumflex dx=0 dy=0 dh=-40 dv=0 dx=0 dy=0 dh=0 dv=0
PairPos2: "'kern' Horizontal Kerning in Latin lookup 0 per glyph data 1" Aacute dx=0 dy=0 dh=-40 dv=0 dx=0 dy=0 dh=0 dv=0
PairPos2: "'kern' Horizontal Kerning in Latin lookup 0 per glyph data 1" Agrave dx=0 dy=0 dh=-40 dv=0 dx=0 dy=0 dh=0 dv=0
PairPos2: "'kern' Horizontal Kerning in Latin lookup 0 per glyph data 1" q dx=0 dy=0 dh=-30 dv=0 dx=0 dy=0 dh=0 dv=0
PairPos2: "'kern' Horizontal Kerning in Latin lookup 0 per glyph data 1" o dx=0 dy=0 dh=-30 dv=0 dx=0 dy=0 dh=0 dv=0
PairPos2: "'kern' Horizontal Kerning in Latin lookup 0 per glyph data 1" g dx=0 dy=0 dh=-30 dv=0 dx=0 dy=0 dh=0 dv=0
PairPos2: "'kern' Horizontal Kerning in Latin lookup 0 per glyph data 1" e dx=0 dy=0 dh=-30 dv=0 dx=0 dy=0 dh=0 dv=0
PairPos2: "'kern' Horizontal Kerning in Latin lookup 0 per glyph data 1" d dx=0 dy=0 dh=-30 dv=0 dx=0 dy=0 dh=0 dv=0
PairPos2: "'kern' Horizontal Kerning in Latin lookup 0 per glyph data 1" c dx=0 dy=0 dh=-30 dv=0 dx=0 dy=0 dh=0 dv=0
PairPos2: "'kern' Horizontal Kerning in Latin lookup 0 per glyph data 1" A dx=0 dy=0 dh=-40 dv=0 dx=0 dy=0 dh=0 dv=0
PairPos2: "'kern' Horizontal Kerning in Latin lookup 0 per glyph data 1" period dx=0 dy=0 dh=-110 dv=0 dx=0 dy=0 dh=0 dv=0
PairPos2: "'kern' Horizontal Kerning in Latin lookup 0 per glyph data 1" comma dx=0 dy=0 dh=-110 dv=0 dx=0 dy=0 dh=0 dv=0
EndChar

StartChar: X
Encoding: 88 88 59
Width: 673
GlyphClass: 2
Flags: W
LayerCount: 2
Fore
SplineSet
537 730 m 2,0,-1
 623 730 l 1,1,-1
 623 679 l 1,2,-1
 564 671 l 1,3,-1
 384 378 l 1,4,-1
 581 59 l 1,5,-1
 640 52 l 1,6,-1
 640 0 l 1,7,-1
 548 0 l 2,8,9
 524 0 524 0 511 20 c 2,10,-1
 332 309 l 1,11,-1
 157 21 l 2,12,13
 144 0 144 0 120 0 c 2,14,-1
 33 0 l 1,15,-1
 33 52 l 1,16,-1
 93 59 l 1,17,-1
 289 379 l 1,18,-1
 109 671 l 1,19,-1
 50 679 l 1,20,-1
 50 730 l 1,21,-1
 142 730 l 2,22,23
 166 730 166 730 179 709 c 2,24,-1
 341 447 l 1,25,-1
 501 709 l 2,26,27
 514 730 514 730 537 730 c 2,0,-1
EndSplineSet
EndChar

StartChar: Y
Encoding: 89 89 60
Width: 548
GlyphClass: 2
Flags: W
LayerCount: 2
Fore
SplineSet
405 0 m 1,0,-1
 145 0 l 1,1,-1
 145 52 l 1,2,-1
 235 59 l 1,3,-1
 235 259 l 1,4,-1
 52 670 l 1,5,-1
 -3 678 l 1,6,-1
 -3 730 l 1,7,-1
 89 730 l 2,8,9
 116 730 116 730 126 707 c 2,10,-1
 275 347 l 1,11,-1
 422 707 l 2,12,13
 432 730 432 730 459 730 c 2,14,-1
 550 730 l 1,15,-1
 550 678 l 1,16,-1
 495 670 l 1,17,-1
 315 262 l 1,18,-1
 315 59 l 1,19,-1
 405 52 l 1,20,-1
 405 0 l 1,0,-1
EndSplineSet
EndChar

StartChar: Z
Encoding: 90 90 61
Width: 601
GlyphClass: 2
Flags: W
LayerCount: 2
Fore
SplineSet
544 167 m 1,0,-1
 544 31 l 2,1,2
 544 0 544 0 513 0 c 2,3,-1
 57 0 l 1,4,-1
 57 48 l 1,5,-1
 455 675 l 1,6,-1
 137 675 l 1,7,-1
 129 563 l 1,8,-1
 77 563 l 1,9,-1
 77 699 l 2,10,11
 77 730 77 730 108 730 c 2,12,-1
 544 730 l 1,13,-1
 544 682 l 1,14,-1
 146 55 l 1,15,-1
 484 55 l 1,16,-1
 491 167 l 1,17,-1
 544 167 l 1,0,-1
EndSplineSet
EndChar

StartChar: bracketleft
Encoding: 91 91 62
Width: 348
GlyphClass: 2
Flags: W
LayerCount: 2
Fore
SplineSet
320 740 m 1,0,-1
 199 740 l 1,1,-1
 199 -11 l 1,2,-1
 320 -11 l 1,3,-1
 320 -66 l 1,4,-1
 119 -66 l 1,5,-1
 119 795 l 1,6,-1
 320 795 l 1,7,-1
 320 740 l 1,0,-1
EndSplineSet
EndChar

StartChar: backslash
Encoding: 92 92 63
Width: 302
GlyphClass: 2
Flags: W
LayerCount: 2
Fore
SplineSet
302 -106 m 1,0,-1
 240 -106 l 1,1,-1
 0 775 l 1,2,-1
 62 775 l 1,3,-1
 302 -106 l 1,0,-1
EndSplineSet
EndChar

StartChar: bracketright
Encoding: 93 93 64
Width: 348
GlyphClass: 2
Flags: W
LayerCount: 2
Fore
SplineSet
149 740 m 1,0,-1
 28 740 l 1,1,-1
 28 795 l 1,2,-1
 229 795 l 1,3,-1
 229 -66 l 1,4,-1
 28 -66 l 1,5,-1
 28 -11 l 1,6,-1
 149 -11 l 1,7,-1
 149 740 l 1,0,-1
EndSplineSet
EndChar

StartChar: asciicircum
Encoding: 94 94 65
Width: 584
GlyphClass: 2
Flags: W
LayerCount: 2
Fore
SplineSet
482 316 m 1,0,-1
 410 316 l 1,1,-1
 292 561 l 1,2,-1
 174 316 l 1,3,-1
 103 316 l 1,4,-1
 251 618 l 1,5,-1
 333 618 l 1,6,-1
 482 316 l 1,0,-1
EndSplineSet
EndChar

StartChar: underscore
Encoding: 95 95 66
Width: 573
GlyphClass: 2
Flags: W
LayerCount: 2
Fore
SplineSet
506 -62 m 1,0,-1
 66 -62 l 1,1,-1
 66 0 l 1,2,-1
 506 0 l 1,3,-1
 506 -62 l 1,0,-1
EndSplineSet
EndChar

StartChar: grave
Encoding: 96 96 67
Width: 314
GlyphClass: 2
Flags: W
LayerCount: 2
Fore
SplineSet
241 637 m 1,0,-1
 38 742 l 1,1,-1
 77 809 l 1,2,-1
 268 683 l 1,3,-1
 241 637 l 1,0,-1
EndSplineSet
EndChar

StartChar: a
Encoding: 97 97 68
Width: 612
GlyphClass: 2
Flags: W
LayerCount: 2
Fore
SplineSet
403 99 m 2,0,-1
 403 113 l 1,1,2
 338 -14 338 -14 199 -14 c 0,3,4
 132 -14 132 -14 92 27 c 128,-1,5
 52 68 52 68 52 139 c 0,6,7
 52 236 52 236 132 285 c 128,-1,8
 212 334 212 334 403 334 c 1,9,-1
 403 376 l 2,10,11
 403 462 403 462 372 494 c 128,-1,12
 341 526 341 526 271.5 526 c 128,-1,13
 202 526 202 526 116 478 c 1,14,-1
 90 538 l 1,15,16
 193 586 193 586 286 586 c 0,17,18
 431 586 431 586 467 484 c 0,19,20
 482 442 482 442 482 382 c 2,21,-1
 482 108 l 2,22,23
 482 53 482 53 524 53 c 0,24,25
 538 53 538 53 565 59 c 1,26,-1
 574 -1 l 1,27,28
 535 -14 535 -14 498 -14 c 0,29,30
 403 -14 403 -14 403 99 c 2,0,-1
403 283 m 1,31,32
 127 283 127 283 127 145 c 0,33,34
 127 99 127 99 152.5 73.5 c 128,-1,35
 178 48 178 48 224 48 c 0,36,37
 296 48 296 48 348 106 c 128,-1,38
 400 164 400 164 403 271 c 1,39,-1
 403 283 l 1,31,32
EndSplineSet
EndChar

StartChar: b
Encoding: 98 98 69
Width: 626
GlyphClass: 2
Flags: W
LayerCount: 2
Fore
SplineSet
169 739 m 2,0,-1
 169 494 l 1,1,2
 246 586 246 586 353 586 c 0,3,4
 409 586 409 586 452 559 c 128,-1,5
 495 532 495 532 518 488 c 0,6,7
 565 399 565 399 565 286 c 0,8,9
 565 180 565 180 510 89 c 0,10,11
 483 43 483 43 432 14.5 c 128,-1,12
 381 -14 381 -14 324.5 -14 c 128,-1,13
 268 -14 268 -14 229.5 -2 c 128,-1,14
 191 10 191 10 158 38 c 0,15,16
 90 95 90 95 90 235 c 2,17,-1
 90 710 l 1,18,-1
 28 718 l 1,19,-1
 28 770 l 1,20,-1
 139 770 l 2,21,22
 169 770 169 770 169 739 c 2,0,-1
169 237 m 2,23,24
 169 137 169 137 210 92 c 128,-1,25
 251 47 251 47 315 47 c 0,26,27
 398 47 398 47 442 111.5 c 128,-1,28
 486 176 486 176 486 286 c 0,29,30
 486 381 486 381 454 449 c 0,31,32
 418 526 418 526 328.5 526 c 128,-1,33
 239 526 239 526 169 434 c 1,34,-1
 169 237 l 2,23,24
EndSplineSet
EndChar

StartChar: c
Encoding: 99 99 70
Width: 541
GlyphClass: 2
Flags: W
LayerCount: 2
Fore
SplineSet
298 -14 m 0,0,1
 235 -14 235 -14 187.5 13 c 128,-1,2
 140 40 140 40 114 86 c 1,3,4
 62 174 62 174 62 290 c 0,5,6
 62 438 62 438 139 521 c 0,7,8
 166 550 166 550 210 568 c 128,-1,9
 254 586 254 586 310 586 c 0,10,11
 401 586 401 586 491 540 c 1,12,-1
 465 482 l 1,13,14
 389 525 389 525 310 525 c 0,15,16
 260 525 260 525 225 503.5 c 128,-1,17
 190 482 190 482 172.5 445.5 c 128,-1,18
 155 409 155 409 147.5 371 c 128,-1,19
 140 333 140 333 140 290 c 128,-1,20
 140 247 140 247 147 208 c 128,-1,21
 154 169 154 169 170 131 c 128,-1,22
 186 93 186 93 219 70 c 128,-1,23
 252 47 252 47 298 47 c 0,24,25
 400 47 400 47 439 151 c 1,26,-1
 503 130 l 1,27,28
 448 -14 448 -14 298 -14 c 0,0,1
EndSplineSet
EndChar

StartChar: d
Encoding: 100 100 71
Width: 665
GlyphClass: 2
Flags: W
LayerCount: 2
Fore
SplineSet
389 770 m 1,0,-1
 498 770 l 2,1,2
 530 770 530 770 528 739 c 1,3,-1
 528 108 l 2,4,5
 528 53 528 53 571 53 c 0,6,7
 589 53 589 53 613 59 c 1,8,-1
 622 -1 l 1,9,10
 583 -14 583 -14 545 -14 c 0,11,12
 459 -14 459 -14 450 76 c 1,13,14
 384 -14 384 -14 285 -14 c 0,15,16
 228 -14 228 -14 184.5 13 c 128,-1,17
 141 40 141 40 118 84 c 0,18,19
 71 173 71 173 71 286 c 0,20,21
 71 402 71 402 114 487 c 0,22,23
 138 533 138 533 185 559.5 c 128,-1,24
 232 586 232 586 304.5 586 c 128,-1,25
 377 586 377 586 449 549 c 1,26,-1
 449 710 l 1,27,-1
 389 718 l 1,28,-1
 389 770 l 1,0,-1
312 525 m 0,29,30
 150 525 150 525 150 286 c 0,31,32
 150 190 150 190 180 123 c 0,33,34
 196 87 196 87 227.5 66.5 c 128,-1,35
 259 46 259 46 302 46 c 0,36,37
 389 46 389 46 449 137 c 1,38,-1
 449 491 l 1,39,40
 387 525 387 525 312 525 c 0,29,30
EndSplineSet
EndChar

StartChar: e
Encoding: 101 101 72
Width: 591
GlyphClass: 2
Flags: W
LayerCount: 2
Fore
SplineSet
534 269 m 1,0,-1
 140 269 l 1,1,2
 140 158 140 158 196 96 c 0,3,4
 240 47 240 47 316.5 47 c 128,-1,5
 393 47 393 47 481 92 c 1,6,-1
 506 34 l 1,7,8
 405 -14 405 -14 326.5 -14 c 128,-1,9
 248 -14 248 -14 197.5 11.5 c 128,-1,10
 147 37 147 37 118 80 c 1,11,12
 62 167 62 167 62 277 c 0,13,14
 62 405 62 405 116 492 c 0,15,16
 144 536 144 536 192.5 561 c 128,-1,17
 241 586 241 586 306 586 c 0,18,19
 413 586 413 586 473.5 513 c 128,-1,20
 534 440 534 440 534 318 c 2,21,-1
 534 269 l 1,0,-1
415 470.5 m 128,-1,23
 375 525 375 525 300 525 c 128,-1,24
 225 525 225 525 187 468 c 128,-1,25
 149 411 149 411 142 325 c 1,26,-1
 455 325 l 1,27,22
 455 416 455 416 415 470.5 c 128,-1,23
EndSplineSet
EndChar

StartChar: f
Encoding: 102 102 73
Width: 358
GlyphClass: 2
Flags: W
LayerCount: 2
Fore
SplineSet
314 0 m 1,0,-1
 66 0 l 1,1,-1
 66 52 l 1,2,-1
 136 59 l 1,3,-1
 136 517 l 1,4,-1
 66 517 l 1,5,-1
 66 572 l 1,6,-1
 136 572 l 1,7,8
 141 676 141 676 187.5 730.5 c 128,-1,9
 234 785 234 785 332 785 c 0,10,11
 396 785 396 785 442 759 c 1,12,-1
 421 700 l 1,13,14
 385 724 385 724 330 724 c 0,15,16
 223 724 223 724 215 572 c 1,17,-1
 333 572 l 1,18,-1
 333 517 l 1,19,-1
 215 517 l 1,20,-1
 215 59 l 1,21,-1
 314 52 l 1,22,-1
 314 0 l 1,0,-1
EndSplineSet
PairPos2: "'kern' Horizontal Kerning in Latin lookup 0 per glyph data 1" braceright dx=0 dy=0 dh=100 dv=0 dx=0 dy=0 dh=0 dv=0
PairPos2: "'kern' Horizontal Kerning in Latin lookup 0 per glyph data 1" bracketright dx=0 dy=0 dh=100 dv=0 dx=0 dy=0 dh=0 dv=0
PairPos2: "'kern' Horizontal Kerning in Latin lookup 0 per glyph data 1" question dx=0 dy=0 dh=60 dv=0 dx=0 dy=0 dh=0 dv=0
PairPos2: "'kern' Horizontal Kerning in Latin lookup 0 per glyph data 1" parenright dx=0 dy=0 dh=100 dv=0 dx=0 dy=0 dh=0 dv=0
PairPos2: "'kern' Horizontal Kerning in Latin lookup 0 per glyph data 1" exclam dx=0 dy=0 dh=60 dv=0 dx=0 dy=0 dh=0 dv=0
EndChar

StartChar: g
Encoding: 103 103 74
Width: 577
GlyphClass: 2
Flags: W
LayerCount: 2
Fore
SplineSet
298 586 m 0,0,1
 342 586 342 586 381 572 c 1,2,-1
 539 572 l 1,3,-1
 539 517 l 1,4,-1
 461 517 l 1,5,6
 507 461 507 461 507 371 c 128,-1,7
 507 281 507 281 453.5 228.5 c 128,-1,8
 400 176 400 176 298 176 c 0,9,10
 239 176 239 176 193 199 c 1,11,-1
 140 145 l 2,12,13
 117 122 117 122 117 98 c 0,14,15
 117 65 117 65 159 65 c 2,16,-1
 377 65 l 2,17,18
 450 65 450 65 498 27.5 c 128,-1,19
 546 -10 546 -10 546 -75 c 0,20,21
 546 -154 546 -154 481.5 -197.5 c 128,-1,22
 417 -241 417 -241 299.5 -241 c 128,-1,23
 182 -241 182 -241 113.5 -205.5 c 128,-1,24
 45 -170 45 -170 45 -93 c 0,25,26
 45 -65 45 -65 59 -34 c 128,-1,27
 73 -3 73 -3 96 15 c 1,28,29
 45 34 45 34 45 83 c 128,-1,30
 45 132 45 132 99 185 c 2,31,-1
 147 231 l 1,32,33
 89 287 89 287 89 383.5 c 128,-1,34
 89 480 89 480 142.5 533 c 128,-1,35
 196 586 196 586 298 586 c 0,0,1
396.5 488.5 m 128,-1,37
 360 529 360 529 296.5 529 c 128,-1,38
 233 529 233 529 198 491 c 128,-1,39
 163 453 163 453 163 382.5 c 128,-1,40
 163 312 163 312 200.5 271 c 128,-1,41
 238 230 238 230 301 230 c 128,-1,42
 364 230 364 230 398.5 269 c 128,-1,43
 433 308 433 308 433 378 c 128,-1,36
 433 448 433 448 396.5 488.5 c 128,-1,37
372 5 m 2,44,-1
 155 5 l 1,45,46
 119 -38 119 -38 119 -85.5 c 128,-1,47
 119 -133 119 -133 168 -158.5 c 128,-1,48
 217 -184 217 -184 295 -184 c 0,49,50
 473 -184 473 -184 473 -74 c 0,51,52
 473 -35 473 -35 446 -15 c 128,-1,53
 419 5 419 5 372 5 c 2,44,-1
EndSplineSet
EndChar

StartChar: h
Encoding: 104 104 75
Width: 703
GlyphClass: 2
Flags: W
LayerCount: 2
Fore
SplineSet
491 99 m 2,0,-1
 491 407 l 2,1,2
 491 470 491 470 468.5 497.5 c 128,-1,3
 446 525 446 525 391 525 c 0,4,5
 296 525 296 525 206 451 c 1,6,-1
 206 59 l 1,7,-1
 275 52 l 1,8,-1
 275 0 l 1,9,-1
 57 0 l 1,10,-1
 57 52 l 1,11,-1
 127 59 l 1,12,-1
 127 710 l 1,13,-1
 57 718 l 1,14,-1
 57 770 l 1,15,-1
 163 770 l 2,16,17
 194 770 194 770 194 740 c 2,18,-1
 194 503 l 1,19,20
 297 586 297 586 406 586 c 0,21,22
 492 586 492 586 531 542 c 128,-1,23
 570 498 570 498 570 407 c 2,24,-1
 570 108 l 2,25,26
 570 53 570 53 613 53 c 0,27,28
 628 53 628 53 655 59 c 1,29,-1
 664 -1 l 1,30,31
 623 -14 623 -14 580 -14 c 0,32,33
 491 -14 491 -14 491 99 c 2,0,-1
EndSplineSet
EndChar

StartChar: i
Encoding: 105 105 76
Width: 337
GlyphClass: 2
Flags: W
LayerCount: 2
Fore
SplineSet
200 541 m 2,0,-1
 200 108 l 2,1,2
 200 53 200 53 244 53 c 0,3,4
 261 53 261 53 285 59 c 1,5,-1
 295 -1 l 1,6,7
 254 -14 254 -14 211 -14 c 0,8,9
 122 -14 122 -14 122 99 c 2,10,-1
 122 512 l 1,11,-1
 62 520 l 1,12,-1
 62 572 l 1,13,-1
 170 572 l 2,14,15
 200 572 200 572 200 541 c 2,0,-1
126.5 680 m 128,-1,17
 111 695 111 695 111 715.5 c 128,-1,18
 111 736 111 736 126.5 751.5 c 128,-1,19
 142 767 142 767 162.5 767 c 128,-1,20
 183 767 183 767 198 751.5 c 128,-1,21
 213 736 213 736 213 715.5 c 128,-1,22
 213 695 213 695 198 680 c 128,-1,23
 183 665 183 665 162.5 665 c 128,-1,16
 142 665 142 665 126.5 680 c 128,-1,17
EndSplineSet
EndChar

StartChar: j
Encoding: 106 106 77
Width: 305
GlyphClass: 2
Flags: W
LayerCount: 2
Fore
SplineSet
126.5 680 m 128,-1,1
 111 695 111 695 111 715.5 c 128,-1,2
 111 736 111 736 126.5 751.5 c 128,-1,3
 142 767 142 767 162.5 767 c 128,-1,4
 183 767 183 767 198 751.5 c 128,-1,5
 213 736 213 736 213 715.5 c 128,-1,6
 213 695 213 695 198 680 c 128,-1,7
 183 665 183 665 162.5 665 c 128,-1,0
 142 665 142 665 126.5 680 c 128,-1,1
200 541 m 2,8,-1
 200 -39 l 2,9,10
 200 -155 200 -155 157 -198 c 128,-1,11
 114 -241 114 -241 31 -241 c 0,12,13
 -26 -241 -26 -241 -75 -220 c 1,14,-1
 -56 -162 l 1,15,16
 -18 -180 -18 -180 26.5 -180 c 128,-1,17
 71 -180 71 -180 96.5 -150.5 c 128,-1,18
 122 -121 122 -121 122 -37 c 2,19,-1
 122 512 l 1,20,-1
 62 520 l 1,21,-1
 62 572 l 1,22,-1
 170 572 l 2,23,24
 200 572 200 572 200 541 c 2,8,-1
EndSplineSet
EndChar

StartChar: k
Encoding: 107 107 78
Width: 603
GlyphClass: 2
Flags: W
LayerCount: 2
Fore
SplineSet
491 75 m 2,0,1
 508 49 508 49 531.5 49 c 128,-1,2
 555 49 555 49 575 55 c 1,3,-1
 584 -1 l 1,4,5
 552 -14 552 -14 516 -14 c 0,6,7
 463 -14 463 -14 432 35 c 2,8,-1
 274 281 l 1,9,-1
 206 281 l 1,10,-1
 206 59 l 1,11,-1
 286 52 l 1,12,-1
 286 0 l 1,13,-1
 57 0 l 1,14,-1
 57 52 l 1,15,-1
 127 59 l 1,16,-1
 127 710 l 1,17,-1
 57 718 l 1,18,-1
 57 770 l 1,19,-1
 175 770 l 2,20,21
 206 770 206 770 206 739 c 2,22,-1
 206 335 l 1,23,-1
 285 335 l 1,24,-1
 436 552 l 2,25,26
 449 572 449 572 473 572 c 2,27,-1
 554 572 l 1,28,-1
 554 520 l 1,29,-1
 491 512 l 1,30,-1
 343 303 l 1,31,-1
 491 75 l 2,0,1
EndSplineSet
EndChar

StartChar: l
Encoding: 108 108 79
Width: 328
GlyphClass: 2
Flags: W
LayerCount: 2
Fore
SplineSet
191 739 m 2,0,-1
 191 108 l 2,1,2
 191 53 191 53 234 53 c 0,3,4
 249 53 249 53 276 59 c 1,5,-1
 285 -1 l 1,6,7
 246 -14 246 -14 208 -14 c 0,8,9
 112 -14 112 -14 112 99 c 2,10,-1
 112 710 l 1,11,-1
 52 718 l 1,12,-1
 52 770 l 1,13,-1
 161 770 l 2,14,15
 191 770 191 770 191 739 c 2,0,-1
EndSplineSet
EndChar

StartChar: m
Encoding: 109 109 80
Width: 1029
GlyphClass: 2
Flags: W
LayerCount: 2
Fore
SplineSet
481 29 m 2,0,-1
 481 407 l 2,1,2
 481 470 481 470 458.5 497.5 c 128,-1,3
 436 525 436 525 381 525 c 0,4,5
 297 525 297 525 215 451 c 1,6,-1
 215 59 l 1,7,-1
 285 52 l 1,8,-1
 285 0 l 1,9,-1
 66 0 l 1,10,-1
 66 52 l 1,11,-1
 136 59 l 1,12,-1
 136 512 l 1,13,-1
 66 520 l 1,14,-1
 66 572 l 1,15,-1
 172 572 l 2,16,17
 203 572 203 572 203 542 c 2,18,-1
 203 503 l 1,19,20
 298 586 298 586 402.5 586 c 128,-1,21
 507 586 507 586 542 509 c 1,22,23
 636 586 636 586 727.5 586 c 128,-1,24
 819 586 819 586 858 542 c 128,-1,25
 897 498 897 498 897 407 c 2,26,-1
 897 108 l 2,27,28
 897 53 897 53 940 53 c 0,29,30
 966 53 966 53 982 59 c 1,31,-1
 991 -1 l 1,32,33
 952 -14 952 -14 914 -14 c 0,34,35
 818 -14 818 -14 818 99 c 2,36,-1
 818 407 l 2,37,38
 818 470 818 470 795.5 497.5 c 128,-1,39
 773 525 773 525 718 525 c 0,40,41
 637 525 637 525 556 459 c 1,42,43
 560 427 560 427 560 407 c 2,44,-1
 560 59 l 1,45,-1
 629 52 l 1,46,-1
 629 0 l 1,47,-1
 512 0 l 2,48,49
 481 0 481 0 481 29 c 2,0,-1
EndSplineSet
EndChar

StartChar: n
Encoding: 110 110 81
Width: 713
GlyphClass: 2
Flags: W
LayerCount: 2
Fore
SplineSet
500 99 m 2,0,-1
 500 407 l 2,1,2
 500 470 500 470 477.5 497.5 c 128,-1,3
 455 525 455 525 400 525 c 0,4,5
 305 525 305 525 215 451 c 1,6,-1
 215 59 l 1,7,-1
 285 52 l 1,8,-1
 285 0 l 1,9,-1
 66 0 l 1,10,-1
 66 52 l 1,11,-1
 136 59 l 1,12,-1
 136 512 l 1,13,-1
 66 520 l 1,14,-1
 66 572 l 1,15,-1
 172 572 l 2,16,17
 203 572 203 572 203 542 c 2,18,-1
 203 503 l 1,19,20
 308 586 308 586 415 586 c 0,21,22
 501 586 501 586 540 542 c 128,-1,23
 579 498 579 498 579 407 c 2,24,-1
 579 108 l 2,25,26
 579 53 579 53 622 53 c 0,27,28
 640 53 640 53 664 59 c 1,29,-1
 673 -1 l 1,30,31
 634 -14 634 -14 596 -14 c 0,32,33
 500 -14 500 -14 500 99 c 2,0,-1
EndSplineSet
EndChar

StartChar: o
Encoding: 111 111 82
Width: 621
GlyphClass: 2
Flags: W
LayerCount: 2
Fore
SplineSet
125.5 509 m 128,-1,1
 189 586 189 586 305.5 586 c 128,-1,2
 422 586 422 586 491 503.5 c 128,-1,3
 560 421 560 421 560 280.5 c 128,-1,4
 560 140 560 140 496 63 c 128,-1,5
 432 -14 432 -14 315.5 -14 c 128,-1,6
 199 -14 199 -14 130.5 68.5 c 128,-1,7
 62 151 62 151 62 291.5 c 128,-1,0
 62 432 62 432 125.5 509 c 128,-1,1
434 459.5 m 128,-1,9
 387 525 387 525 307 525 c 128,-1,10
 227 525 227 525 183.5 464 c 128,-1,11
 140 403 140 403 140 291 c 128,-1,12
 140 179 140 179 187.5 113 c 128,-1,13
 235 47 235 47 314 47 c 128,-1,14
 393 47 393 47 437 108 c 128,-1,15
 481 169 481 169 481 281.5 c 128,-1,8
 481 394 481 394 434 459.5 c 128,-1,9
EndSplineSet
EndChar

StartChar: p
Encoding: 112 112 83
Width: 650
GlyphClass: 2
Flags: W
LayerCount: 2
Fore
SplineSet
339 47 m 0,0,1
 500 47 500 47 500 286 c 0,2,3
 500 382 500 382 470 449 c 0,4,5
 454 485 454 485 422.5 505.5 c 128,-1,6
 391 526 391 526 348 526 c 0,7,8
 270 526 270 526 201 434 c 1,9,-1
 201 81 l 1,10,11
 263 47 263 47 339 47 c 0,0,1
52 572 m 1,12,-1
 158 572 l 2,13,14
 189 572 189 572 189 542 c 2,15,-1
 189 479 l 1,16,17
 270 586 270 586 376 586 c 0,18,19
 429 586 429 586 470 559 c 128,-1,20
 511 532 511 532 534 488 c 0,21,22
 579 400 579 400 579 286 c 0,23,24
 579 170 579 170 536 85 c 0,25,26
 512 39 512 39 465 12.5 c 128,-1,27
 418 -14 418 -14 346.5 -14 c 128,-1,28
 275 -14 275 -14 201 22 c 1,29,-1
 201 -227 l 1,30,-1
 122 -233 l 1,31,-1
 122 512 l 1,32,-1
 52 520 l 1,33,-1
 52 572 l 1,12,-1
EndSplineSet
EndChar

StartChar: q
Encoding: 113 113 84
Width: 654
GlyphClass: 2
Flags: W
LayerCount: 2
Fore
SplineSet
269 -14 m 0,0,1
 214 -14 214 -14 172.5 13 c 128,-1,2
 131 40 131 40 108 84 c 0,3,4
 62 174 62 174 62 286 c 0,5,6
 62 391 62 391 115 482 c 0,7,8
 142 529 142 529 191.5 557.5 c 128,-1,9
 241 586 241 586 307 586 c 0,10,11
 432 586 432 586 481 475 c 1,12,-1
 481 542 l 2,13,14
 481 572 481 572 512 572 c 2,15,-1
 597 572 l 1,16,-1
 597 520 l 1,17,-1
 527 512 l 1,18,-1
 527 -233 l 1,19,-1
 448 -227 l 1,20,-1
 448 77 l 1,21,22
 374 -14 374 -14 269 -14 c 0,0,1
448 335 m 2,23,24
 448 436 448 436 408.5 480.5 c 128,-1,25
 369 525 369 525 306 525 c 0,26,27
 226 525 226 525 183 460.5 c 128,-1,28
 140 396 140 396 140 286 c 0,29,30
 140 192 140 192 172 123 c 0,31,32
 188 87 188 87 220 66.5 c 128,-1,33
 252 46 252 46 296 46 c 0,34,35
 380 46 380 46 448 137 c 1,36,-1
 448 335 l 2,23,24
EndSplineSet
EndChar

StartChar: r
Encoding: 114 114 85
Width: 418
GlyphClass: 2
Flags: W
LayerCount: 2
Fore
SplineSet
215 280 m 2,0,-1
 215 59 l 1,1,-1
 315 52 l 1,2,-1
 315 0 l 1,3,-1
 66 0 l 1,4,-1
 66 52 l 1,5,-1
 136 59 l 1,6,-1
 136 512 l 1,7,-1
 66 520 l 1,8,-1
 66 572 l 1,9,-1
 172 572 l 2,10,11
 203 572 203 572 203 541 c 2,12,-1
 203 417 l 1,13,14
 230 486 230 486 284.5 534.5 c 128,-1,15
 339 583 339 583 416 586 c 1,16,-1
 416 517 l 1,17,18
 332 514 332 514 273.5 449 c 128,-1,19
 215 384 215 384 215 280 c 2,0,-1
EndSplineSet
EndChar

StartChar: s
Encoding: 115 115 86
Width: 505
GlyphClass: 2
Flags: W
LayerCount: 2
Fore
SplineSet
417 488 m 1,0,1
 339 525 339 525 274 525 c 128,-1,2
 209 525 209 525 177.5 502 c 128,-1,3
 146 479 146 479 146 438.5 c 128,-1,4
 146 398 146 398 178 371.5 c 128,-1,5
 210 345 210 345 256 327 c 128,-1,6
 302 309 302 309 347.5 289 c 128,-1,7
 393 269 393 269 425 232 c 128,-1,8
 457 195 457 195 457 141 c 0,9,10
 457 68 457 68 403.5 27 c 128,-1,11
 350 -14 350 -14 262 -14 c 128,-1,12
 174 -14 174 -14 119.5 28.5 c 128,-1,13
 65 71 65 71 47 149 c 1,14,-1
 116 165 l 1,15,16
 151 45 151 45 256 45 c 0,17,18
 315 45 315 45 347 70 c 128,-1,19
 379 95 379 95 379 136.5 c 128,-1,20
 379 178 379 178 347 204 c 128,-1,21
 315 230 315 230 269 248 c 128,-1,22
 223 266 223 266 177 286 c 128,-1,23
 131 306 131 306 99 344 c 128,-1,24
 67 382 67 382 67 436 c 0,25,26
 67 507 67 507 121 546.5 c 128,-1,27
 175 586 175 586 262.5 586 c 128,-1,28
 350 586 350 586 442 546 c 1,29,-1
 417 488 l 1,0,1
EndSplineSet
EndChar

StartChar: t
Encoding: 116 116 87
Width: 353
GlyphClass: 2
Flags: W
LayerCount: 2
Fore
SplineSet
39 517 m 1,0,-1
 39 572 l 1,1,-1
 126 572 l 1,2,-1
 126 702 l 1,3,-1
 205 720 l 1,4,-1
 205 572 l 1,5,-1
 314 572 l 1,6,-1
 314 517 l 1,7,-1
 205 517 l 1,8,-1
 205 108 l 2,9,10
 205 54 205 54 249 54 c 0,11,12
 278 54 278 54 305 65 c 1,13,-1
 314 4 l 1,14,15
 267 -14 267 -14 219.5 -14 c 128,-1,16
 172 -14 172 -14 149 13.5 c 128,-1,17
 126 41 126 41 126 101 c 2,18,-1
 126 517 l 1,19,-1
 39 517 l 1,0,-1
EndSplineSet
EndChar

StartChar: u
Encoding: 117 117 88
Width: 701
GlyphClass: 2
Flags: W
LayerCount: 2
Fore
SplineSet
564 541 m 2,0,-1
 564 108 l 2,1,2
 564 53 564 53 608 53 c 0,3,4
 633 53 633 53 649 59 c 1,5,-1
 659 -1 l 1,6,7
 618 -14 618 -14 582 -14 c 0,8,9
 501 -14 501 -14 488 63 c 1,10,11
 384 -14 384 -14 289.5 -14 c 128,-1,12
 195 -14 195 -14 156 29.5 c 128,-1,13
 117 73 117 73 117 165 c 2,14,-1
 117 512 l 1,15,-1
 47 520 l 1,16,-1
 47 572 l 1,17,-1
 162 572 l 2,18,19
 196 572 196 572 196 541 c 2,20,-1
 196 165 l 2,21,22
 196 102 196 102 218.5 74 c 128,-1,23
 241 46 241 46 296 46 c 0,24,25
 391 46 391 46 486 124 c 1,26,-1
 486 512 l 1,27,-1
 426 520 l 1,28,-1
 426 572 l 1,29,-1
 534 572 l 2,30,31
 564 572 564 572 564 541 c 2,0,-1
EndSplineSet
EndChar

StartChar: v
Encoding: 118 118 89
Width: 567
GlyphClass: 2
Flags: W
LayerCount: 2
Fore
SplineSet
470 572 m 2,0,-1
 549 572 l 1,1,-1
 549 520 l 1,2,-1
 500 512 l 1,3,-1
 324 0 l 1,4,-1
 237 0 l 1,5,-1
 19 572 l 1,6,-1
 98 572 l 1,7,-1
 280 81 l 1,8,-1
 433 546 l 2,9,10
 442 572 442 572 470 572 c 2,0,-1
EndSplineSet
EndChar

StartChar: w
Encoding: 119 119 90
Width: 799
GlyphClass: 2
Flags: W
LayerCount: 2
Fore
SplineSet
701 572 m 2,0,-1
 780 572 l 1,1,-1
 780 520 l 1,2,-1
 731 512 l 1,3,-1
 586 0 l 1,4,-1
 498 0 l 1,5,-1
 383 475 l 1,6,-1
 270 0 l 1,7,-1
 181 0 l 1,8,-1
 19 572 l 1,9,-1
 96 572 l 1,10,-1
 229 81 l 1,11,-1
 347 572 l 1,12,-1
 420 572 l 1,13,-1
 538 81 l 1,14,-1
 664 546 l 2,15,16
 672 572 672 572 701 572 c 2,0,-1
EndSplineSet
EndChar

StartChar: x
Encoding: 120 120 91
Width: 545
GlyphClass: 2
Flags: W
LayerCount: 2
Fore
SplineSet
454 572 m 2,0,-1
 520 572 l 1,1,-1
 520 520 l 1,2,-1
 477 513 l 1,3,-1
 320 284 l 1,4,-1
 530 0 l 1,5,-1
 445 0 l 1,6,-1
 275 230 l 1,7,-1
 131 20 l 2,8,9
 117 0 117 0 93 0 c 2,10,-1
 17 0 l 1,11,-1
 17 52 l 1,12,-1
 69 59 l 1,13,-1
 229 293 l 1,14,-1
 24 572 l 1,15,-1
 109 572 l 1,16,-1
 276 345 l 1,17,-1
 415 551 l 2,18,19
 430 572 430 572 454 572 c 2,0,-1
EndSplineSet
EndChar

StartChar: y
Encoding: 121 121 92
Width: 569
GlyphClass: 2
Flags: W
LayerCount: 2
Fore
SplineSet
228.5 -212.5 m 128,-1,1
 195 -242 195 -242 138.5 -242 c 128,-1,2
 82 -242 82 -242 36 -215 c 1,3,-1
 58 -157 l 1,4,5
 95 -178 95 -178 132 -178 c 0,6,7
 191 -178 191 -178 214 -115 c 2,8,-1
 246 -24 l 1,9,-1
 19 572 l 1,10,-1
 99 572 l 1,11,-1
 281 82 l 1,12,-1
 433 546 l 2,13,14
 442 572 442 572 470 572 c 2,15,-1
 550 572 l 1,16,-1
 550 519 l 1,17,-1
 501 511 l 1,18,-1
 289 -106 l 2,19,0
 262 -183 262 -183 228.5 -212.5 c 128,-1,1
EndSplineSet
EndChar

StartChar: z
Encoding: 122 122 93
Width: 570
GlyphClass: 2
Flags: W
LayerCount: 2
Fore
SplineSet
508 168 m 1,0,-1
 508 31 l 2,1,2
 508 0 508 0 478 0 c 2,3,-1
 62 0 l 1,4,-1
 62 52 l 1,5,-1
 402 517 l 1,6,-1
 133 517 l 1,7,-1
 125 404 l 1,8,-1
 76 404 l 1,9,-1
 76 541 l 2,10,11
 76 572 76 572 107 572 c 2,12,-1
 494 572 l 1,13,-1
 494 520 l 1,14,-1
 154 55 l 1,15,-1
 451 55 l 1,16,-1
 459 168 l 1,17,-1
 508 168 l 1,0,-1
EndSplineSet
EndChar

StartChar: braceleft
Encoding: 123 123 94
Width: 349
GlyphClass: 2
Flags: W
LayerCount: 2
Fore
SplineSet
195 587 m 1,0,-1
 203 436 l 1,1,2
 203 406 203 406 188 388.5 c 128,-1,3
 173 371 173 371 149 369 c 1,4,-1
 149 361 l 1,5,6
 173 359 173 359 188 341.5 c 128,-1,7
 203 324 203 324 203 294 c 1,8,-1
 195 143 l 1,9,10
 195 -13 195 -13 320 -13 c 1,11,-1
 320 -68 l 1,12,13
 113 -68 113 -68 113 135 c 1,14,-1
 121 287 l 1,15,16
 121 314 121 314 98.5 326.5 c 128,-1,17
 76 339 76 339 47 339 c 1,18,-1
 47 391 l 1,19,20
 76 391 76 391 98.5 403.5 c 128,-1,21
 121 416 121 416 121 443 c 1,22,23
 121 443 121 443 113 595 c 1,24,25
 113 798 113 798 320 798 c 1,26,-1
 320 743 l 1,27,28
 195 743 195 743 195 587 c 1,0,-1
EndSplineSet
EndChar

StartChar: bar
Encoding: 124 124 95
Width: 321
GlyphClass: 2
Flags: W
LayerCount: 2
Fore
SplineSet
202 -106 m 1,0,-1
 119 -106 l 1,1,-1
 119 775 l 1,2,-1
 202 775 l 1,3,-1
 202 -106 l 1,0,-1
EndSplineSet
EndChar

StartChar: braceright
Encoding: 125 125 96
Width: 349
GlyphClass: 2
Flags: W
LayerCount: 2
Fore
SplineSet
154 143 m 1,0,-1
 146 294 l 1,1,2
 146 324 146 324 161 341.5 c 128,-1,3
 176 359 176 359 200 361 c 1,4,-1
 200 369 l 1,5,6
 176 371 176 371 161 388.5 c 128,-1,7
 146 406 146 406 146 436 c 1,8,-1
 154 587 l 1,9,10
 154 743 154 743 29 743 c 1,11,-1
 29 798 l 1,12,13
 236 798 236 798 236 595 c 1,14,-1
 228 443 l 1,15,16
 228 416 228 416 250.5 403.5 c 128,-1,17
 273 391 273 391 302 391 c 1,18,-1
 302 339 l 1,19,20
 273 339 273 339 250.5 326.5 c 128,-1,21
 228 314 228 314 228 287 c 1,22,23
 228 287 228 287 236 135 c 1,24,25
 236 -68 236 -68 29 -68 c 1,26,-1
 29 -13 l 1,27,28
 154 -13 154 -13 154 143 c 1,0,-1
EndSplineSet
EndChar

StartChar: asciitilde
Encoding: 126 126 97
Width: 584
GlyphClass: 2
Flags: W
LayerCount: 2
Fore
SplineSet
95 397 m 1,0,1
 129 373 129 373 172 373 c 128,-1,2
 215 373 215 373 291.5 394.5 c 128,-1,3
 368 416 368 416 410 416 c 128,-1,4
 452 416 452 416 489 397 c 1,5,-1
 489 333 l 1,6,7
 451 354 451 354 409.5 354 c 128,-1,8
 368 354 368 354 291.5 332.5 c 128,-1,9
 215 311 215 311 173.5 311 c 128,-1,10
 132 311 132 311 95 333 c 1,11,-1
 95 397 l 1,0,1
EndSplineSet
EndChar

StartChar: exclamdown
Encoding: 161 161 99
Width: 281
GlyphClass: 2
Flags: W
LayerCount: 2
Fore
SplineSet
119 402 m 1,0,-1
 162 402 l 1,1,-1
 186 -152 l 1,2,-1
 95 -152 l 1,3,-1
 119 402 l 1,0,-1
103 496 m 128,-1,5
 87 512 87 512 87 533.5 c 128,-1,6
 87 555 87 555 103 570.5 c 128,-1,7
 119 586 119 586 140.5 586 c 128,-1,8
 162 586 162 586 177.5 570.5 c 128,-1,9
 193 555 193 555 193 533.5 c 128,-1,10
 193 512 193 512 177.5 496 c 128,-1,11
 162 480 162 480 140.5 480 c 128,-1,4
 119 480 119 480 103 496 c 128,-1,5
EndSplineSet
EndChar

StartChar: cent
Encoding: 162 162 100
Width: 541
GlyphClass: 2
Flags: W
LayerCount: 2
Fore
SplineSet
72.5 271.5 m 128,-1,1
 62 319 62 319 62 365.5 c 128,-1,2
 62 412 62 412 69 451.5 c 128,-1,3
 76 491 76 491 93.5 530.5 c 128,-1,4
 111 570 111 570 137.5 599 c 128,-1,5
 164 628 164 628 207 646.5 c 128,-1,6
 250 665 250 665 305 666 c 1,7,-1
 320 836 l 1,8,-1
 366 836 l 1,9,-1
 351 664 l 1,10,11
 415 657 415 657 491 620 c 1,12,-1
 465 562 l 1,13,14
 404 596 404 596 346 603 c 1,15,-1
 305 127 l 1,16,17
 401 130 401 130 439 231 c 1,18,-1
 503 210 l 1,19,20
 448 66 448 66 299 66 c 1,21,-1
 285 -105 l 1,22,-1
 239 -105 l 1,23,-1
 254 69 l 1,24,25
 203 78 203 78 164.5 108 c 128,-1,26
 126 138 126 138 104.5 181 c 128,-1,0
 83 224 83 224 72.5 271.5 c 128,-1,1
147 449 m 128,-1,28
 140 412 140 412 140 372 c 128,-1,29
 140 332 140 332 145.5 297 c 128,-1,30
 151 262 151 262 163.5 227 c 128,-1,31
 176 192 176 192 200.5 166.5 c 128,-1,32
 225 141 225 141 259 132 c 1,33,-1
 300 605 l 1,34,35
 253 603 253 603 220 580.5 c 128,-1,36
 187 558 187 558 170.5 522 c 128,-1,27
 154 486 154 486 147 449 c 128,-1,28
EndSplineSet
EndChar

StartChar: sterling
Encoding: 163 163 101
Width: 613
GlyphClass: 2
Flags: W
LayerCount: 2
Fore
SplineSet
411 319 m 1,0,-1
 211 319 l 1,1,-1
 211 164 l 2,2,3
 211 123 211 123 201 100.5 c 128,-1,4
 191 78 191 78 168 55 c 1,5,-1
 565 55 l 1,6,-1
 565 0 l 1,7,-1
 80 0 l 1,8,-1
 80 46 l 1,9,10
 131 88 131 88 131 154 c 2,11,-1
 131 319 l 1,12,-1
 39 319 l 1,13,-1
 39 365 l 1,14,-1
 131 365 l 1,15,-1
 131 519 l 2,16,17
 131 629 131 629 180 686.5 c 128,-1,18
 229 744 229 744 342 744 c 0,19,20
 517 744 517 744 558 563 c 1,21,-1
 487 546 l 1,22,23
 453 683 453 683 341 683 c 0,24,25
 270 683 270 683 240.5 641.5 c 128,-1,26
 211 600 211 600 211 519 c 2,27,-1
 211 365 l 1,28,-1
 411 365 l 1,29,-1
 411 319 l 1,0,-1
EndSplineSet
EndChar

StartChar: currency
Encoding: 164 164 102
Width: 624
GlyphClass: 2
Flags: W
LayerCount: 2
Fore
SplineSet
482 488 m 1,0,1
 522 432 522 432 522 364 c 128,-1,2
 522 296 522 296 481 241 c 1,3,-1
 596 127 l 1,4,-1
 550 81 l 1,5,-1
 435 195 l 1,6,7
 381 155 381 155 312 155 c 128,-1,8
 243 155 243 155 189 195 c 1,9,-1
 74 81 l 1,10,-1
 28 127 l 1,11,-1
 142 241 l 1,12,13
 102 297 102 297 102 365.5 c 128,-1,14
 102 434 102 434 142 488 c 1,15,-1
 28 603 l 1,16,-1
 74 649 l 1,17,-1
 188 534 l 1,18,19
 243 575 243 575 312 575 c 128,-1,20
 381 575 381 575 436 534 c 1,21,-1
 550 649 l 1,22,-1
 596 603 l 1,23,-1
 482 488 l 1,0,1
211.5 465.5 m 128,-1,25
 170 424 170 424 170 364.5 c 128,-1,26
 170 305 170 305 211.5 263.5 c 128,-1,27
 253 222 253 222 312 222 c 128,-1,28
 371 222 371 222 412.5 263.5 c 128,-1,29
 454 305 454 305 454 364.5 c 128,-1,30
 454 424 454 424 412.5 465.5 c 128,-1,31
 371 507 371 507 312 507 c 128,-1,24
 253 507 253 507 211.5 465.5 c 128,-1,25
EndSplineSet
EndChar

StartChar: yen
Encoding: 165 165 103
Width: 548
GlyphClass: 2
Flags: W
LayerCount: 2
Fore
SplineSet
315 0 m 1,0,-1
 235 0 l 1,1,-1
 235 249 l 1,2,-1
 39 249 l 1,3,-1
 39 295 l 1,4,-1
 219 295 l 1,5,-1
 175 396 l 1,6,-1
 40 396 l 1,7,-1
 40 442 l 1,8,-1
 154 442 l 1,9,-1
 27 730 l 1,10,-1
 116 730 l 1,11,-1
 275 347 l 1,12,-1
 433 730 l 1,13,-1
 523 730 l 1,14,-1
 395 442 l 1,15,-1
 511 442 l 1,16,-1
 511 396 l 1,17,-1
 375 396 l 1,18,-1
 330 295 l 1,19,-1
 511 295 l 1,20,-1
 511 249 l 1,21,-1
 315 249 l 1,22,-1
 315 0 l 1,0,-1
EndSplineSet
EndChar

StartChar: brokenbar
Encoding: 166 166 104
Width: 321
GlyphClass: 2
Flags: W
LayerCount: 2
Fore
SplineSet
202 447 m 1,0,-1
 119 447 l 1,1,-1
 119 775 l 1,2,-1
 202 775 l 1,3,-1
 202 447 l 1,0,-1
202 -106 m 1,4,-1
 119 -106 l 1,5,-1
 119 221 l 1,6,-1
 202 221 l 1,7,-1
 202 -106 l 1,4,-1
EndSplineSet
EndChar

StartChar: section
Encoding: 167 167 105
Width: 527
GlyphClass: 2
Flags: W
LayerCount: 2
Fore
SplineSet
423 357 m 128,-1,1
 456 315 456 315 456 256 c 128,-1,2
 456 197 456 197 426 158 c 128,-1,3
 396 119 396 119 344 101 c 1,4,5
 403 72 403 72 436 33.5 c 128,-1,6
 469 -5 469 -5 469 -68 c 0,7,8
 469 -150 469 -150 411.5 -196.5 c 128,-1,9
 354 -243 354 -243 264 -243 c 128,-1,10
 174 -243 174 -243 119 -196 c 128,-1,11
 64 -149 64 -149 47 -62 c 1,12,-1
 116 -45 l 1,13,14
 150 -183 150 -183 260 -183 c 0,15,16
 322 -183 322 -183 356 -153 c 128,-1,17
 390 -123 390 -123 390 -74.5 c 128,-1,18
 390 -26 390 -26 357 3.5 c 128,-1,19
 324 33 324 33 277 52.5 c 128,-1,20
 230 72 230 72 183 94.5 c 128,-1,21
 136 117 136 117 103 158.5 c 128,-1,22
 70 200 70 200 70 259 c 128,-1,23
 70 318 70 318 100 357 c 128,-1,24
 130 396 130 396 183 414 c 1,25,26
 124 443 124 443 91 482 c 128,-1,27
 58 521 58 521 58 584 c 0,28,29
 58 667 58 667 115.5 713.5 c 128,-1,30
 173 760 173 760 262 760 c 128,-1,31
 351 760 351 760 406 712.5 c 128,-1,32
 461 665 461 665 480 579 c 1,33,-1
 410 562 l 1,34,35
 378 698 378 698 268 698 c 0,36,37
 205 698 205 698 171 668.5 c 128,-1,38
 137 639 137 639 137 591 c 128,-1,39
 137 543 137 543 170 513.5 c 128,-1,40
 203 484 203 484 249.5 464 c 128,-1,41
 296 444 296 444 343 421.5 c 128,-1,0
 390 399 390 399 423 357 c 128,-1,1
346 176 m 128,-1,43
 377 206 377 206 377 249.5 c 128,-1,44
 377 293 377 293 353 319.5 c 128,-1,45
 329 346 329 346 284 368 c 1,46,47
 277 370 277 370 260 370 c 0,48,49
 208 370 208 370 178.5 340 c 128,-1,50
 149 310 149 310 149 266.5 c 128,-1,51
 149 223 149 223 172.5 196.5 c 128,-1,52
 196 170 196 170 240 148 c 1,53,54
 248 146 248 146 266 146 c 0,55,42
 315 146 315 146 346 176 c 128,-1,43
EndSplineSet
EndChar

StartChar: dieresis
Encoding: 168 168 106
Width: 482
GlyphClass: 2
Flags: W
LayerCount: 2
Fore
SplineSet
88 716 m 128,-1,1
 88 736 88 736 103 751 c 128,-1,2
 118 766 118 766 138 766 c 128,-1,3
 158 766 158 766 173 751 c 128,-1,4
 188 736 188 736 188 716 c 128,-1,5
 188 696 188 696 173 681 c 128,-1,6
 158 666 158 666 138 666 c 128,-1,7
 118 666 118 666 103 681 c 128,-1,0
 88 696 88 696 88 716 c 128,-1,1
293 716 m 128,-1,9
 293 736 293 736 308 751 c 128,-1,10
 323 766 323 766 343 766 c 128,-1,11
 363 766 363 766 378 751 c 128,-1,12
 393 736 393 736 393 716 c 128,-1,13
 393 696 393 696 378 681 c 128,-1,14
 363 666 363 666 343 666 c 128,-1,15
 323 666 323 666 308 681 c 128,-1,8
 293 696 293 696 293 716 c 128,-1,9
EndSplineSet
EndChar

StartChar: copyright
Encoding: 169 169 107
Width: 720
GlyphClass: 2
Flags: W
LayerCount: 2
Fore
SplineSet
360 856 m 128,-1,1
 501 856 501 856 578 774.5 c 128,-1,2
 655 693 655 693 655 565.5 c 128,-1,3
 655 438 655 438 572.5 351.5 c 128,-1,4
 490 265 490 265 360 265 c 128,-1,5
 230 265 230 265 147.5 351.5 c 128,-1,6
 65 438 65 438 65 565.5 c 128,-1,7
 65 693 65 693 142 774.5 c 128,-1,0
 219 856 219 856 360 856 c 128,-1,1
360 298 m 128,-1,9
 473 298 473 298 545 374.5 c 128,-1,10
 617 451 617 451 617 564.5 c 128,-1,11
 617 678 617 678 549.5 750.5 c 128,-1,12
 482 823 482 823 360 823 c 128,-1,13
 238 823 238 823 170.5 750.5 c 128,-1,14
 103 678 103 678 103 564.5 c 128,-1,15
 103 451 103 451 175 374.5 c 128,-1,8
 247 298 247 298 360 298 c 128,-1,9
363 730 m 0,16,17
 306 730 306 730 282.5 682 c 128,-1,18
 259 634 259 634 259 569 c 0,19,20
 259 509 259 509 278 456 c 0,21,22
 288 428 288 428 309.5 411.5 c 128,-1,23
 331 395 331 395 361 395 c 0,24,25
 437 395 437 395 453 501 c 1,26,-1
 497 491 l 1,27,28
 468 358 468 358 361 358 c 0,29,30
 305 358 305 358 269 392 c 128,-1,31
 233 426 233 426 221 470 c 128,-1,32
 209 514 209 514 209 559 c 128,-1,33
 209 604 209 604 216.5 637 c 128,-1,34
 224 670 224 670 240.5 700.5 c 128,-1,35
 257 731 257 731 288.5 749 c 128,-1,36
 320 767 320 767 374 767 c 128,-1,37
 428 767 428 767 484 736 c 1,38,-1
 468 700 l 1,39,40
 406 730 406 730 363 730 c 0,16,17
EndSplineSet
EndChar

StartChar: ordfeminine
Encoding: 170 170 108
Width: 409
GlyphClass: 2
Flags: W
LayerCount: 2
Fore
SplineSet
39 452 m 0,0,1
 39 517 39 517 91.5 548.5 c 128,-1,2
 144 580 144 580 261 580 c 1,3,-1
 261 604 l 2,4,5
 261 653 261 653 243 672.5 c 128,-1,6
 225 692 225 692 181.5 692 c 128,-1,7
 138 692 138 692 84 660 c 1,8,-1
 63 708 l 1,9,10
 132 741 132 741 195 741 c 128,-1,11
 258 741 258 741 292 711 c 128,-1,12
 326 681 326 681 326 608 c 2,13,-1
 326 439 l 2,14,15
 326 407 326 407 352 407 c 0,16,17
 368 407 368 407 378 410 c 1,18,-1
 386 360 l 1,19,20
 355 351 355 351 325.5 351 c 128,-1,21
 296 351 296 351 280.5 369 c 128,-1,22
 265 387 265 387 262 427 c 1,23,24
 221 351 221 351 135 351 c 0,25,26
 92 351 92 351 65.5 377.5 c 128,-1,27
 39 404 39 404 39 452 c 0,0,1
261 539 m 1,28,29
 100 539 100 539 100 458 c 0,30,31
 100 401 100 401 156 401 c 0,32,33
 202 401 202 401 231.5 439 c 128,-1,34
 261 477 261 477 261 539 c 1,28,29
EndSplineSet
EndChar

StartChar: guillemotleft
Encoding: 171 171 109
Width: 446
GlyphClass: 2
Flags: W
LayerCount: 2
Fore
SplineSet
179 497 m 1,0,-1
 211 474 l 1,1,-1
 118 321 l 1,2,-1
 211 168 l 1,3,-1
 179 147 l 1,4,-1
 47 298 l 1,5,-1
 47 344 l 1,6,-1
 179 497 l 1,0,-1
357 497 m 1,7,-1
 389 474 l 1,8,-1
 295 321 l 1,9,-1
 389 168 l 1,10,-1
 357 147 l 1,11,-1
 225 298 l 1,12,-1
 225 344 l 1,13,-1
 357 497 l 1,7,-1
EndSplineSet
EndChar

StartChar: logicalnot
Encoding: 172 172 110
Width: 584
GlyphClass: 2
Flags: W
LayerCount: 2
Fore
SplineSet
489 195 m 1,0,-1
 429 195 l 1,1,-1
 429 333 l 1,2,-1
 95 333 l 1,3,-1
 95 397 l 1,4,-1
 489 397 l 1,5,-1
 489 195 l 1,0,-1
EndSplineSet
EndChar

StartChar: registered
Encoding: 174 174 111
Width: 720
GlyphClass: 2
Flags: W
LayerCount: 2
Fore
SplineSet
360 856 m 128,-1,1
 501 856 501 856 578 774.5 c 128,-1,2
 655 693 655 693 655 565.5 c 128,-1,3
 655 438 655 438 572.5 351.5 c 128,-1,4
 490 265 490 265 360 265 c 128,-1,5
 230 265 230 265 147.5 351.5 c 128,-1,6
 65 438 65 438 65 565.5 c 128,-1,7
 65 693 65 693 142 774.5 c 128,-1,0
 219 856 219 856 360 856 c 128,-1,1
360 298 m 128,-1,9
 473 298 473 298 545 374.5 c 128,-1,10
 617 451 617 451 617 564.5 c 128,-1,11
 617 678 617 678 549.5 750.5 c 128,-1,12
 482 823 482 823 360 823 c 128,-1,13
 238 823 238 823 170.5 750.5 c 128,-1,14
 103 678 103 678 103 564.5 c 128,-1,15
 103 451 103 451 175 374.5 c 128,-1,8
 247 298 247 298 360 298 c 128,-1,9
353 527 m 2,16,-1
 341 527 l 1,17,-1
 341 562 l 1,18,-1
 371 562 l 2,19,20
 451 562 451 562 451 643 c 0,21,22
 451 683 451 683 430.5 704.5 c 128,-1,23
 410 726 410 726 371 726 c 2,24,-1
 311 726 l 1,25,-1
 311 399 l 1,26,-1
 356 399 l 1,27,-1
 356 366 l 1,28,-1
 230 366 l 1,29,-1
 230 400 l 1,30,-1
 261 400 l 1,31,-1
 261 726 l 1,32,-1
 230 726 l 1,33,-1
 230 760 l 1,34,-1
 371 760 l 2,35,36
 433 760 433 760 466 730 c 128,-1,37
 499 700 499 700 499 643 c 0,38,39
 499 557 499 557 427 536 c 1,40,41
 454 522 454 522 465 495 c 2,42,-1
 517 366 l 1,43,-1
 463 366 l 1,44,-1
 415 491 l 2,45,46
 406 513 406 513 393.5 520 c 128,-1,47
 381 527 381 527 353 527 c 2,16,-1
EndSplineSet
EndChar

StartChar: macron
Encoding: 175 175 112
Width: 354
GlyphClass: 2
Flags: W
LayerCount: 2
Fore
SplineSet
304 693 m 1,0,-1
 50 693 l 1,1,-1
 50 760 l 1,2,-1
 304 760 l 1,3,-1
 304 693 l 1,0,-1
EndSplineSet
EndChar

StartChar: degree
Encoding: 176 176 113
Width: 437
GlyphClass: 2
Flags: W
LayerCount: 2
Fore
SplineSet
84 691 m 128,-1,1
 130 741 130 741 214.5 741 c 128,-1,2
 299 741 299 741 349 687.5 c 128,-1,3
 399 634 399 634 399 542.5 c 128,-1,4
 399 451 399 451 352.5 401 c 128,-1,5
 306 351 306 351 221.5 351 c 128,-1,6
 137 351 137 351 87.5 404.5 c 128,-1,7
 38 458 38 458 38 549.5 c 128,-1,0
 38 641 38 641 84 691 c 128,-1,1
301.5 651 m 128,-1,9
 270 691 270 691 216 691 c 128,-1,10
 162 691 162 691 132.5 653.5 c 128,-1,11
 103 616 103 616 103 548 c 128,-1,12
 103 480 103 480 135 440.5 c 128,-1,13
 167 401 167 401 218 401 c 0,14,15
 333 401 333 401 333 546 c 0,16,8
 333 611 333 611 301.5 651 c 128,-1,9
EndSplineSet
EndChar

StartChar: plusminus
Encoding: 177 177 114
Width: 584
GlyphClass: 2
Flags: W
LayerCount: 2
Fore
SplineSet
324 397 m 1,0,-1
 488 397 l 1,1,-1
 488 333 l 1,2,-1
 324 333 l 1,3,-1
 324 167 l 1,4,-1
 259 167 l 1,5,-1
 259 333 l 1,6,-1
 95 333 l 1,7,-1
 95 397 l 1,8,-1
 259 397 l 1,9,-1
 259 562 l 1,10,-1
 324 562 l 1,11,-1
 324 397 l 1,0,-1
489 0 m 1,12,-1
 95 0 l 1,13,-1
 95 64 l 1,14,-1
 489 64 l 1,15,-1
 489 0 l 1,12,-1
EndSplineSet
EndChar

StartChar: twosuperior
Encoding: 178 178 115
Width: 382
GlyphClass: 2
Flags: W
LayerCount: 2
Fore
SplineSet
121 629 m 1,0,-1
 60 629 l 1,1,2
 60 688 60 688 94.5 719.5 c 128,-1,3
 129 751 129 751 190.5 751 c 128,-1,4
 252 751 252 751 286.5 723 c 128,-1,5
 321 695 321 695 321 642 c 0,6,7
 321 607 321 607 299.5 575.5 c 128,-1,8
 278 544 278 544 238 505 c 2,9,-1
 139 405 l 1,10,-1
 327 405 l 1,11,-1
 327 357 l 1,12,-1
 55 357 l 1,13,-1
 55 402 l 1,14,-1
 194 541 l 2,15,16
 229 576 229 576 243 597 c 128,-1,17
 257 618 257 618 257 643.5 c 128,-1,18
 257 669 257 669 240 685.5 c 128,-1,19
 223 702 223 702 191 702 c 128,-1,20
 159 702 159 702 140 683 c 128,-1,21
 121 664 121 664 121 629 c 1,0,-1
EndSplineSet
EndChar

StartChar: threesuperior
Encoding: 179 179 116
Width: 396
GlyphClass: 2
Flags: W
LayerCount: 2
Fore
SplineSet
166 571 m 2,0,1
 260 571 260 571 260 641 c 0,2,3
 260 669 260 669 241.5 686 c 128,-1,4
 223 703 223 703 190.5 703 c 128,-1,5
 158 703 158 703 139.5 683 c 128,-1,6
 121 663 121 663 121 629 c 1,7,-1
 63 629 l 1,8,9
 63 684 63 684 97.5 718 c 128,-1,10
 132 752 132 752 193 752 c 128,-1,11
 254 752 254 752 289 723.5 c 128,-1,12
 324 695 324 695 324 642 c 0,13,14
 324 613 324 613 308 589.5 c 128,-1,15
 292 566 292 566 261 554 c 1,16,17
 296 544 296 544 314.5 519 c 128,-1,18
 333 494 333 494 333 464 c 0,19,20
 333 409 333 409 296 379.5 c 128,-1,21
 259 350 259 350 194 350 c 128,-1,22
 129 350 129 350 93.5 383.5 c 128,-1,23
 58 417 58 417 58 473 c 1,24,-1
 117 473 l 1,25,26
 117 439 117 439 136 418.5 c 128,-1,27
 155 398 155 398 191.5 398 c 128,-1,28
 228 398 228 398 248.5 415 c 128,-1,29
 269 432 269 432 269 463 c 0,30,31
 269 534 269 534 168 534 c 2,32,-1
 138 534 l 1,33,-1
 136 571 l 1,34,-1
 166 571 l 2,0,1
EndSplineSet
EndChar

StartChar: acute
Encoding: 180 180 117
Width: 314
GlyphClass: 2
Flags: W
LayerCount: 2
Fore
SplineSet
280 742 m 1,0,-1
 78 637 l 1,1,-1
 50 683 l 1,2,-1
 242 809 l 1,3,-1
 280 742 l 1,0,-1
EndSplineSet
EndChar

StartChar: mu
Encoding: 181 181 118
Width: 703
GlyphClass: 2
Flags: W
LayerCount: 2
Fore
SplineSet
566 541 m 2,0,-1
 566 108 l 2,1,2
 566 53 566 53 609 53 c 0,3,4
 624 53 624 53 651 59 c 1,5,-1
 660 -1 l 1,6,7
 619 -14 619 -14 583 -14 c 0,8,9
 502 -14 502 -14 489 63 c 1,10,11
 385 -14 385 -14 293 -14 c 0,12,13
 222 -14 222 -14 192 24 c 1,14,-1
 192 -227 l 1,15,-1
 119 -233 l 1,16,-1
 119 572 l 1,17,-1
 164 572 l 2,18,19
 197 572 197 572 197 541 c 2,20,-1
 197 165 l 2,21,22
 197 102 197 102 220 74 c 128,-1,23
 243 46 243 46 298 46 c 0,24,25
 392 46 392 46 487 123 c 1,26,-1
 487 572 l 1,27,-1
 536 572 l 2,28,29
 566 572 566 572 566 541 c 2,0,-1
EndSplineSet
EndChar

StartChar: paragraph
Encoding: 182 182 119
Width: 566
GlyphClass: 2
Flags: W
LayerCount: 2
Fore
SplineSet
350 274 m 1,0,-1
 299 274 l 2,1,2
 196 274 196 274 133.5 337.5 c 128,-1,3
 71 401 71 401 71 502 c 128,-1,4
 71 603 71 603 133.5 666.5 c 128,-1,5
 196 730 196 730 299 730 c 2,6,-1
 400 730 l 2,7,8
 431 730 431 730 431 699 c 2,9,-1
 431 59 l 1,10,-1
 493 52 l 1,11,-1
 493 0 l 1,12,-1
 244 0 l 1,13,-1
 244 51 l 1,14,-1
 350 59 l 1,15,-1
 350 274 l 1,0,-1
EndSplineSet
EndChar

StartChar: periodcentered
Encoding: 183 183 120
Width: 262
GlyphClass: 2
Flags: W
LayerCount: 2
Fore
SplineSet
76 308 m 128,-1,1
 76 330 76 330 92.5 346.5 c 128,-1,2
 109 363 109 363 131 363 c 128,-1,3
 153 363 153 363 169.5 346.5 c 128,-1,4
 186 330 186 330 186 308 c 128,-1,5
 186 286 186 286 169.5 269.5 c 128,-1,6
 153 253 153 253 130.5 253 c 128,-1,7
 108 253 108 253 92 269.5 c 128,-1,0
 76 286 76 286 76 308 c 128,-1,1
EndSplineSet
EndChar

StartChar: cedilla
Encoding: 184 184 121
Width: 301
GlyphClass: 2
Flags: W
LayerCount: 2
Fore
SplineSet
202 -85.5 m 128,-1,1
 231 -105 231 -105 231 -148 c 128,-1,2
 231 -191 231 -191 202.5 -216 c 128,-1,3
 174 -241 174 -241 129 -241 c 128,-1,4
 84 -241 84 -241 58.5 -215 c 128,-1,5
 33 -189 33 -189 33 -146 c 1,6,-1
 85 -146 l 1,7,8
 84 -166 84 -166 96 -180 c 128,-1,9
 108 -194 108 -194 130.5 -194 c 128,-1,10
 153 -194 153 -194 167 -180 c 128,-1,11
 181 -166 181 -166 181 -143 c 0,12,13
 181 -102 181 -102 128 -92 c 2,14,-1
 79 -82 l 1,15,-1
 98 0 l 1,16,-1
 129 0 l 1,17,-1
 117 -57 l 1,18,0
 173 -66 173 -66 202 -85.5 c 128,-1,1
EndSplineSet
EndChar

StartChar: onesuperior
Encoding: 185 185 122
Width: 322
GlyphClass: 2
Flags: W
LayerCount: 2
Fore
SplineSet
202 357 m 1,0,-1
 137 357 l 1,1,-1
 137 685 l 1,2,-1
 48 666 l 1,3,-1
 43 712 l 1,4,-1
 151 744 l 1,5,-1
 202 744 l 1,6,-1
 202 357 l 1,0,-1
EndSplineSet
EndChar

StartChar: ordmasculine
Encoding: 186 186 123
Width: 407
GlyphClass: 2
Flags: W
LayerCount: 2
Fore
SplineSet
80 691 m 128,-1,1
 122 741 122 741 199.5 741 c 128,-1,2
 277 741 277 741 323 687.5 c 128,-1,3
 369 634 369 634 369 542.5 c 128,-1,4
 369 451 369 451 326.5 401 c 128,-1,5
 284 351 284 351 206.5 351 c 128,-1,6
 129 351 129 351 83.5 404.5 c 128,-1,7
 38 458 38 458 38 549.5 c 128,-1,0
 38 641 38 641 80 691 c 128,-1,1
276 651 m 128,-1,9
 248 691 248 691 201 691 c 128,-1,10
 154 691 154 691 128 653.5 c 128,-1,11
 102 616 102 616 102 548 c 128,-1,12
 102 480 102 480 130 440.5 c 128,-1,13
 158 401 158 401 203 401 c 0,14,15
 304 401 304 401 304 546 c 0,16,8
 304 611 304 611 276 651 c 128,-1,9
EndSplineSet
EndChar

StartChar: guillemotright
Encoding: 187 187 124
Width: 446
GlyphClass: 2
Flags: W
LayerCount: 2
Fore
SplineSet
225 474 m 1,0,-1
 257 497 l 1,1,-1
 389 344 l 1,2,-1
 389 298 l 1,3,-1
 257 147 l 1,4,-1
 225 168 l 1,5,-1
 319 321 l 1,6,-1
 225 474 l 1,0,-1
47 474 m 1,7,-1
 80 497 l 1,8,-1
 211 344 l 1,9,-1
 211 298 l 1,10,-1
 80 147 l 1,11,-1
 47 168 l 1,12,-1
 141 321 l 1,13,-1
 47 474 l 1,7,-1
EndSplineSet
EndChar

StartChar: onequarter
Encoding: 188 188 125
Width: 825
GlyphClass: 2
Flags: W
LayerCount: 2
Fore
SplineSet
291 -66 m 1,0,-1
 229 -66 l 1,1,-1
 469 795 l 1,2,-1
 531 795 l 1,3,-1
 291 -66 l 1,0,-1
202 357 m 1,4,-1
 137 357 l 1,5,-1
 137 685 l 1,6,-1
 48 666 l 1,7,-1
 43 712 l 1,8,-1
 151 744 l 1,9,-1
 202 744 l 1,10,-1
 202 357 l 1,4,-1
727 126 m 1,11,-1
 772 126 l 1,12,-1
 772 84 l 1,13,-1
 727 84 l 1,14,-1
 727 0 l 1,15,-1
 662 0 l 1,16,-1
 662 84 l 1,17,-1
 466 84 l 1,18,-1
 466 122 l 1,19,-1
 630 387 l 1,20,-1
 727 387 l 1,21,-1
 727 126 l 1,11,-1
662 126 m 1,22,-1
 662 326 l 1,23,-1
 535 126 l 1,24,-1
 662 126 l 1,22,-1
EndSplineSet
EndChar

StartChar: onehalf
Encoding: 189 189 126
Width: 825
GlyphClass: 2
Flags: W
LayerCount: 2
Fore
SplineSet
281 -66 m 1,0,-1
 219 -66 l 1,1,-1
 459 795 l 1,2,-1
 521 795 l 1,3,-1
 281 -66 l 1,0,-1
202 357 m 1,4,-1
 137 357 l 1,5,-1
 137 685 l 1,6,-1
 48 666 l 1,7,-1
 43 712 l 1,8,-1
 151 744 l 1,9,-1
 202 744 l 1,10,-1
 202 357 l 1,4,-1
564 272 m 1,11,-1
 503 272 l 1,12,13
 503 331 503 331 537.5 362.5 c 128,-1,14
 572 394 572 394 633.5 394 c 128,-1,15
 695 394 695 394 729.5 366 c 128,-1,16
 764 338 764 338 764 285 c 0,17,18
 764 250 764 250 742.5 218.5 c 128,-1,19
 721 187 721 187 681 148 c 2,20,-1
 582 48 l 1,21,-1
 770 48 l 1,22,-1
 770 0 l 1,23,-1
 498 0 l 1,24,-1
 498 45 l 1,25,-1
 637 184 l 2,26,27
 672 219 672 219 686 240 c 128,-1,28
 700 261 700 261 700 286.5 c 128,-1,29
 700 312 700 312 683 328.5 c 128,-1,30
 666 345 666 345 634 345 c 128,-1,31
 602 345 602 345 583 326 c 128,-1,32
 564 307 564 307 564 272 c 1,11,-1
EndSplineSet
EndChar

StartChar: threequarters
Encoding: 190 190 127
Width: 825
GlyphClass: 2
Flags: W
LayerCount: 2
Fore
SplineSet
337 -66 m 1,0,-1
 275 -66 l 1,1,-1
 515 795 l 1,2,-1
 577 795 l 1,3,-1
 337 -66 l 1,0,-1
166 571 m 2,4,5
 260 571 260 571 260 641 c 0,6,7
 260 669 260 669 241.5 686 c 128,-1,8
 223 703 223 703 190.5 703 c 128,-1,9
 158 703 158 703 139.5 683 c 128,-1,10
 121 663 121 663 121 629 c 1,11,-1
 63 629 l 1,12,13
 63 684 63 684 97.5 718 c 128,-1,14
 132 752 132 752 193 752 c 128,-1,15
 254 752 254 752 289 723.5 c 128,-1,16
 324 695 324 695 324 642 c 0,17,18
 324 613 324 613 308 589.5 c 128,-1,19
 292 566 292 566 261 554 c 1,20,21
 296 544 296 544 314.5 519 c 128,-1,22
 333 494 333 494 333 464 c 0,23,24
 333 409 333 409 296 379.5 c 128,-1,25
 259 350 259 350 194 350 c 128,-1,26
 129 350 129 350 93.5 383.5 c 128,-1,27
 58 417 58 417 58 473 c 1,28,-1
 117 473 l 1,29,30
 117 439 117 439 136 418.5 c 128,-1,31
 155 398 155 398 191.5 398 c 128,-1,32
 228 398 228 398 248.5 415 c 128,-1,33
 269 432 269 432 269 463 c 0,34,35
 269 534 269 534 168 534 c 2,36,-1
 138 534 l 1,37,-1
 136 571 l 1,38,-1
 166 571 l 2,4,5
727 126 m 1,39,-1
 772 126 l 1,40,-1
 772 84 l 1,41,-1
 727 84 l 1,42,-1
 727 0 l 1,43,-1
 662 0 l 1,44,-1
 662 84 l 1,45,-1
 466 84 l 1,46,-1
 466 122 l 1,47,-1
 630 387 l 1,48,-1
 727 387 l 1,49,-1
 727 126 l 1,39,-1
662 126 m 1,50,-1
 662 326 l 1,51,-1
 535 126 l 1,52,-1
 662 126 l 1,50,-1
EndSplineSet
EndChar

StartChar: questiondown
Encoding: 191 191 128
Width: 457
GlyphClass: 2
Flags: W
LayerCount: 2
Fore
SplineSet
369 26 m 1,0,-1
 438 26 l 1,1,2
 438 -60 438 -60 385.5 -113 c 128,-1,3
 333 -166 333 -166 241.5 -166 c 128,-1,4
 150 -166 150 -166 98.5 -114 c 128,-1,5
 47 -62 47 -62 47 24 c 128,-1,6
 47 110 47 110 110 182 c 0,7,8
 137 212 137 212 164 242 c 0,9,10
 228 315 228 315 228 402 c 1,11,-1
 286 402 l 1,12,13
 286 298 286 298 228 224 c 0,14,15
 204 194 204 194 180 166 c 0,16,17
 121 99 121 99 121 24 c 0,18,19
 121 -30 121 -30 154 -68 c 128,-1,20
 187 -106 187 -106 244.5 -106 c 128,-1,21
 302 -106 302 -106 335.5 -68.5 c 128,-1,22
 369 -31 369 -31 369 26 c 1,0,-1
293 570.5 m 128,-1,24
 309 555 309 555 309 533.5 c 128,-1,25
 309 512 309 512 293 496 c 128,-1,26
 277 480 277 480 255.5 480 c 128,-1,27
 234 480 234 480 218.5 496 c 128,-1,28
 203 512 203 512 203 533.5 c 128,-1,29
 203 555 203 555 218.5 570.5 c 128,-1,30
 234 586 234 586 255.5 586 c 128,-1,23
 277 586 277 586 293 570.5 c 128,-1,24
EndSplineSet
EndChar

StartChar: Agrave
Encoding: 192 192 129
Width: 643
GlyphClass: 2
Flags: W
LayerCount: 2
Fore
SplineSet
77 0 m 2,0,-1
 -1 0 l 1,1,-1
 -1 52 l 1,2,-1
 47 59 l 1,3,-1
 268 730 l 1,4,-1
 374 730 l 1,5,-1
 596 59 l 1,6,-1
 644 52 l 1,7,-1
 644 0 l 1,8,-1
 566 0 l 2,9,10
 539 0 539 0 530 26 c 2,11,-1
 465 224 l 1,12,-1
 178 224 l 1,13,-1
 113 26 l 2,14,15
 104 0 104 0 77 0 c 2,0,-1
324 655 m 1,16,-1
 319 655 l 1,17,-1
 198 286 l 1,18,-1
 445 286 l 1,19,-1
 324 655 l 1,16,-1
409 795 m 1,20,-1
 206 900 l 1,21,-1
 245 967 l 1,22,-1
 436 841 l 1,23,-1
 409 795 l 1,20,-1
EndSplineSet
EndChar

StartChar: Aacute
Encoding: 193 193 130
Width: 643
GlyphClass: 2
Flags: W
LayerCount: 2
Fore
SplineSet
77 0 m 2,0,-1
 -1 0 l 1,1,-1
 -1 52 l 1,2,-1
 47 59 l 1,3,-1
 268 730 l 1,4,-1
 374 730 l 1,5,-1
 596 59 l 1,6,-1
 644 52 l 1,7,-1
 644 0 l 1,8,-1
 566 0 l 2,9,10
 539 0 539 0 530 26 c 2,11,-1
 465 224 l 1,12,-1
 178 224 l 1,13,-1
 113 26 l 2,14,15
 104 0 104 0 77 0 c 2,0,-1
324 655 m 1,16,-1
 319 655 l 1,17,-1
 198 286 l 1,18,-1
 445 286 l 1,19,-1
 324 655 l 1,16,-1
436 900 m 1,20,-1
 234 795 l 1,21,-1
 206 841 l 1,22,-1
 398 967 l 1,23,-1
 436 900 l 1,20,-1
EndSplineSet
EndChar

StartChar: Acircumflex
Encoding: 194 194 131
Width: 643
GlyphClass: 2
Flags: W
LayerCount: 2
Fore
SplineSet
77 0 m 2,0,-1
 -1 0 l 1,1,-1
 -1 52 l 1,2,-1
 47 59 l 1,3,-1
 268 730 l 1,4,-1
 374 730 l 1,5,-1
 596 59 l 1,6,-1
 644 52 l 1,7,-1
 644 0 l 1,8,-1
 566 0 l 2,9,10
 539 0 539 0 530 26 c 2,11,-1
 465 224 l 1,12,-1
 178 224 l 1,13,-1
 113 26 l 2,14,15
 104 0 104 0 77 0 c 2,0,-1
324 655 m 1,16,-1
 319 655 l 1,17,-1
 198 286 l 1,18,-1
 445 286 l 1,19,-1
 324 655 l 1,16,-1
465 825 m 1,20,-1
 433 792 l 1,21,-1
 321 890 l 1,22,-1
 210 792 l 1,23,-1
 178 825 l 1,24,-1
 300 968 l 1,25,-1
 342 968 l 1,26,-1
 465 825 l 1,20,-1
EndSplineSet
EndChar

StartChar: Atilde
Encoding: 195 195 132
Width: 643
GlyphClass: 2
Flags: W
LayerCount: 2
Fore
SplineSet
77 0 m 2,0,-1
 -1 0 l 1,1,-1
 -1 52 l 1,2,-1
 47 59 l 1,3,-1
 268 730 l 1,4,-1
 374 730 l 1,5,-1
 596 59 l 1,6,-1
 644 52 l 1,7,-1
 644 0 l 1,8,-1
 566 0 l 2,9,10
 539 0 539 0 530 26 c 2,11,-1
 465 224 l 1,12,-1
 178 224 l 1,13,-1
 113 26 l 2,14,15
 104 0 104 0 77 0 c 2,0,-1
324 655 m 1,16,-1
 319 655 l 1,17,-1
 198 286 l 1,18,-1
 445 286 l 1,19,-1
 324 655 l 1,16,-1
392 834 m 0,20,21
 367 834 367 834 319.5 852 c 128,-1,22
 272 870 272 870 258 870 c 0,23,24
 223 870 223 870 211 827 c 1,25,-1
 164 841 l 1,26,27
 190 936 190 936 250 936 c 0,28,29
 274 936 274 936 322.5 918 c 128,-1,30
 371 900 371 900 385 900 c 0,31,32
 418 900 418 900 431 944 c 1,33,-1
 478 929 l 1,34,35
 454 834 454 834 392 834 c 0,20,21
EndSplineSet
EndChar

StartChar: Adieresis
Encoding: 196 196 133
Width: 643
GlyphClass: 2
Flags: W
LayerCount: 2
Fore
SplineSet
77 0 m 2,0,-1
 -1 0 l 1,1,-1
 -1 52 l 1,2,-1
 47 59 l 1,3,-1
 268 730 l 1,4,-1
 374 730 l 1,5,-1
 596 59 l 1,6,-1
 644 52 l 1,7,-1
 644 0 l 1,8,-1
 566 0 l 2,9,10
 539 0 539 0 530 26 c 2,11,-1
 465 224 l 1,12,-1
 178 224 l 1,13,-1
 113 26 l 2,14,15
 104 0 104 0 77 0 c 2,0,-1
324 655 m 1,16,-1
 319 655 l 1,17,-1
 198 286 l 1,18,-1
 445 286 l 1,19,-1
 324 655 l 1,16,-1
168 874 m 128,-1,21
 168 894 168 894 183 909 c 128,-1,22
 198 924 198 924 218 924 c 128,-1,23
 238 924 238 924 253 909 c 128,-1,24
 268 894 268 894 268 874 c 128,-1,25
 268 854 268 854 253 839 c 128,-1,26
 238 824 238 824 218 824 c 128,-1,27
 198 824 198 824 183 839 c 128,-1,20
 168 854 168 854 168 874 c 128,-1,21
373 874 m 128,-1,29
 373 894 373 894 388 909 c 128,-1,30
 403 924 403 924 423 924 c 128,-1,31
 443 924 443 924 458 909 c 128,-1,32
 473 894 473 894 473 874 c 128,-1,33
 473 854 473 854 458 839 c 128,-1,34
 443 824 443 824 423 824 c 128,-1,35
 403 824 403 824 388 839 c 128,-1,28
 373 854 373 854 373 874 c 128,-1,29
EndSplineSet
EndChar

StartChar: Aring
Encoding: 197 197 134
Width: 643
GlyphClass: 2
Flags: W
LayerCount: 2
Fore
SplineSet
77 0 m 2,0,-1
 -1 0 l 1,1,-1
 -1 52 l 1,2,-1
 47 59 l 1,3,-1
 268 730 l 1,4,-1
 374 730 l 1,5,-1
 596 59 l 1,6,-1
 644 52 l 1,7,-1
 644 0 l 1,8,-1
 566 0 l 2,9,10
 539 0 539 0 530 26 c 2,11,-1
 465 224 l 1,12,-1
 178 224 l 1,13,-1
 113 26 l 2,14,15
 104 0 104 0 77 0 c 2,0,-1
324 655 m 1,16,-1
 319 655 l 1,17,-1
 198 286 l 1,18,-1
 445 286 l 1,19,-1
 324 655 l 1,16,-1
238.5 961.5 m 128,-1,21
 267 991 267 991 318.5 991 c 128,-1,22
 370 991 370 991 401.5 959.5 c 128,-1,23
 433 928 433 928 433 881 c 128,-1,24
 433 834 433 834 403.5 805 c 128,-1,25
 374 776 374 776 322.5 776 c 128,-1,26
 271 776 271 776 240.5 807 c 128,-1,27
 210 838 210 838 210 885 c 128,-1,20
 210 932 210 932 238.5 961.5 c 128,-1,21
358 927 m 128,-1,29
 343 945 343 945 319 945 c 128,-1,30
 295 945 295 945 281.5 928 c 128,-1,31
 268 911 268 911 268 884.5 c 128,-1,32
 268 858 268 858 282.5 839.5 c 128,-1,33
 297 821 297 821 321.5 821 c 128,-1,34
 346 821 346 821 359.5 838 c 128,-1,35
 373 855 373 855 373 882 c 128,-1,28
 373 909 373 909 358 927 c 128,-1,29
EndSplineSet
EndChar

StartChar: AE
Encoding: 198 198 135
Width: 932
GlyphClass: 2
Flags: W
LayerCount: 2
Fore
SplineSet
818 730 m 2,0,1
 849 730 849 730 849 699 c 2,2,-1
 849 566 l 1,3,-1
 797 566 l 1,4,-1
 789 675 l 1,5,-1
 519 675 l 1,6,-1
 519 366 l 1,7,-1
 803 366 l 1,8,-1
 803 311 l 1,9,-1
 519 311 l 1,10,-1
 519 54 l 1,11,-1
 799 54 l 1,12,-1
 807 160 l 1,13,-1
 859 160 l 1,14,-1
 859 31 l 2,15,16
 859 0 859 0 828 0 c 2,17,-1
 377 0 l 1,18,-1
 377 52 l 1,19,-1
 439 59 l 1,20,-1
 439 311 l 1,21,-1
 205 311 l 1,22,-1
 113 26 l 2,23,24
 104 0 104 0 77 0 c 2,25,-1
 -1 0 l 1,26,-1
 -1 52 l 1,27,-1
 47 59 l 1,28,-1
 268 730 l 1,29,-1
 818 730 l 2,0,1
439 675 m 1,30,-1
 324 675 l 1,31,-1
 223 366 l 1,32,-1
 439 366 l 1,33,-1
 439 675 l 1,30,-1
EndSplineSet
EndChar

StartChar: Ccedilla
Encoding: 199 199 136
Width: 621
GlyphClass: 2
Flags: W
LayerCount: 2
Fore
SplineSet
340 683 m 0,0,1
 280 683 280 683 238 653.5 c 128,-1,2
 196 624 196 624 176 574 c 0,3,4
 141 483 141 483 141 377 c 0,5,6
 141 266 141 266 176 166 c 1,7,8
 196 112 196 112 238 79 c 128,-1,9
 280 46 280 46 340 46 c 0,10,11
 483 46 483 46 519 245 c 1,12,-1
 588 229 l 1,13,14
 535 -15 535 -15 339 -15 c 2,15,-1
 334 -15 l 1,16,-1
 325 -57 l 1,17,18
 381 -66 381 -66 410 -85.5 c 128,-1,19
 439 -105 439 -105 439 -148 c 128,-1,20
 439 -191 439 -191 410.5 -216 c 128,-1,21
 382 -241 382 -241 337 -241 c 128,-1,22
 292 -241 292 -241 266.5 -215 c 128,-1,23
 241 -189 241 -189 241 -146 c 1,24,-1
 293 -146 l 1,25,26
 292 -166 292 -166 304 -180 c 128,-1,27
 316 -194 316 -194 338.5 -194 c 128,-1,28
 361 -194 361 -194 375 -180 c 128,-1,29
 389 -166 389 -166 389 -143 c 0,30,31
 389 -102 389 -102 336 -92 c 2,32,-1
 287 -82 l 1,33,-1
 303 -13 l 1,34,35
 233 -5 233 -5 183 34.5 c 128,-1,36
 133 74 133 74 108 133 c 0,37,38
 61 244 61 244 61 374 c 0,39,40
 61 480 61 480 94 569 c 0,41,42
 113 620 113 620 143 657.5 c 128,-1,43
 173 695 173 695 224 719.5 c 128,-1,44
 275 744 275 744 340 744 c 0,45,46
 449 744 449 744 563 687 c 1,47,-1
 537 627 l 1,48,49
 436 683 436 683 340 683 c 0,0,1
EndSplineSet
EndChar

StartChar: Egrave
Encoding: 200 200 137
Width: 627
GlyphClass: 2
Flags: W
LayerCount: 2
Fore
SplineSet
73 730 m 1,0,-1
 514 730 l 2,1,2
 544 730 544 730 544 699 c 2,3,-1
 544 566 l 1,4,-1
 492 566 l 1,5,-1
 485 675 l 1,6,-1
 215 675 l 1,7,-1
 215 398 l 1,8,-1
 499 398 l 1,9,-1
 499 343 l 1,10,-1
 215 343 l 1,11,-1
 215 54 l 1,12,-1
 494 54 l 1,13,-1
 502 160 l 1,14,-1
 554 160 l 1,15,-1
 554 31 l 2,16,17
 554 0 554 0 523 0 c 2,18,-1
 73 0 l 1,19,-1
 73 52 l 1,20,-1
 135 59 l 1,21,-1
 135 670 l 1,22,-1
 73 678 l 1,23,-1
 73 730 l 1,0,-1
395 795 m 1,24,-1
 192 900 l 1,25,-1
 231 967 l 1,26,-1
 422 841 l 1,27,-1
 395 795 l 1,24,-1
EndSplineSet
EndChar

StartChar: Eacute
Encoding: 201 201 138
Width: 627
GlyphClass: 2
Flags: W
LayerCount: 2
Fore
SplineSet
73 730 m 1,0,-1
 514 730 l 2,1,2
 544 730 544 730 544 699 c 2,3,-1
 544 566 l 1,4,-1
 492 566 l 1,5,-1
 485 675 l 1,6,-1
 215 675 l 1,7,-1
 215 398 l 1,8,-1
 499 398 l 1,9,-1
 499 343 l 1,10,-1
 215 343 l 1,11,-1
 215 54 l 1,12,-1
 494 54 l 1,13,-1
 502 160 l 1,14,-1
 554 160 l 1,15,-1
 554 31 l 2,16,17
 554 0 554 0 523 0 c 2,18,-1
 73 0 l 1,19,-1
 73 52 l 1,20,-1
 135 59 l 1,21,-1
 135 670 l 1,22,-1
 73 678 l 1,23,-1
 73 730 l 1,0,-1
459 900 m 1,24,-1
 257 795 l 1,25,-1
 229 841 l 1,26,-1
 421 967 l 1,27,-1
 459 900 l 1,24,-1
EndSplineSet
EndChar

StartChar: Ecircumflex
Encoding: 202 202 139
Width: 627
GlyphClass: 2
Flags: W
LayerCount: 2
Fore
SplineSet
73 730 m 1,0,-1
 514 730 l 2,1,2
 544 730 544 730 544 699 c 2,3,-1
 544 566 l 1,4,-1
 492 566 l 1,5,-1
 485 675 l 1,6,-1
 215 675 l 1,7,-1
 215 398 l 1,8,-1
 499 398 l 1,9,-1
 499 343 l 1,10,-1
 215 343 l 1,11,-1
 215 54 l 1,12,-1
 494 54 l 1,13,-1
 502 160 l 1,14,-1
 554 160 l 1,15,-1
 554 31 l 2,16,17
 554 0 554 0 523 0 c 2,18,-1
 73 0 l 1,19,-1
 73 52 l 1,20,-1
 135 59 l 1,21,-1
 135 670 l 1,22,-1
 73 678 l 1,23,-1
 73 730 l 1,0,-1
478 825 m 1,24,-1
 446 792 l 1,25,-1
 334 890 l 1,26,-1
 223 792 l 1,27,-1
 191 825 l 1,28,-1
 313 968 l 1,29,-1
 355 968 l 1,30,-1
 478 825 l 1,24,-1
EndSplineSet
EndChar

StartChar: Edieresis
Encoding: 203 203 140
Width: 627
GlyphClass: 2
Flags: W
LayerCount: 2
Fore
SplineSet
73 730 m 1,0,-1
 514 730 l 2,1,2
 544 730 544 730 544 699 c 2,3,-1
 544 566 l 1,4,-1
 492 566 l 1,5,-1
 485 675 l 1,6,-1
 215 675 l 1,7,-1
 215 398 l 1,8,-1
 499 398 l 1,9,-1
 499 343 l 1,10,-1
 215 343 l 1,11,-1
 215 54 l 1,12,-1
 494 54 l 1,13,-1
 502 160 l 1,14,-1
 554 160 l 1,15,-1
 554 31 l 2,16,17
 554 0 554 0 523 0 c 2,18,-1
 73 0 l 1,19,-1
 73 52 l 1,20,-1
 135 59 l 1,21,-1
 135 670 l 1,22,-1
 73 678 l 1,23,-1
 73 730 l 1,0,-1
172 874 m 128,-1,25
 172 894 172 894 187 909 c 128,-1,26
 202 924 202 924 222 924 c 128,-1,27
 242 924 242 924 257 909 c 128,-1,28
 272 894 272 894 272 874 c 128,-1,29
 272 854 272 854 257 839 c 128,-1,30
 242 824 242 824 222 824 c 128,-1,31
 202 824 202 824 187 839 c 128,-1,24
 172 854 172 854 172 874 c 128,-1,25
377 874 m 128,-1,33
 377 894 377 894 392 909 c 128,-1,34
 407 924 407 924 427 924 c 128,-1,35
 447 924 447 924 462 909 c 128,-1,36
 477 894 477 894 477 874 c 128,-1,37
 477 854 477 854 462 839 c 128,-1,38
 447 824 447 824 427 824 c 128,-1,39
 407 824 407 824 392 839 c 128,-1,32
 377 854 377 854 377 874 c 128,-1,33
EndSplineSet
EndChar

StartChar: Igrave
Encoding: 204 204 141
Width: 350
GlyphClass: 2
Flags: W
LayerCount: 2
Fore
SplineSet
277 0 m 1,0,-1
 73 0 l 1,1,-1
 73 52 l 1,2,-1
 135 59 l 1,3,-1
 135 670 l 1,4,-1
 73 678 l 1,5,-1
 73 730 l 1,6,-1
 277 730 l 1,7,-1
 277 678 l 1,8,-1
 215 670 l 1,9,-1
 215 59 l 1,10,-1
 277 52 l 1,11,-1
 277 0 l 1,0,-1
279 795 m 1,12,-1
 76 900 l 1,13,-1
 115 967 l 1,14,-1
 306 841 l 1,15,-1
 279 795 l 1,12,-1
EndSplineSet
EndChar

StartChar: Iacute
Encoding: 205 205 142
Width: 350
GlyphClass: 2
Flags: W
LayerCount: 2
Fore
SplineSet
277 0 m 1,0,-1
 73 0 l 1,1,-1
 73 52 l 1,2,-1
 135 59 l 1,3,-1
 135 670 l 1,4,-1
 73 678 l 1,5,-1
 73 730 l 1,6,-1
 277 730 l 1,7,-1
 277 678 l 1,8,-1
 215 670 l 1,9,-1
 215 59 l 1,10,-1
 277 52 l 1,11,-1
 277 0 l 1,0,-1
307 900 m 1,12,-1
 105 795 l 1,13,-1
 77 841 l 1,14,-1
 269 967 l 1,15,-1
 307 900 l 1,12,-1
EndSplineSet
EndChar

StartChar: Icircumflex
Encoding: 206 206 143
Width: 350
GlyphClass: 2
Flags: W
LayerCount: 2
Fore
SplineSet
277 0 m 1,0,-1
 73 0 l 1,1,-1
 73 52 l 1,2,-1
 135 59 l 1,3,-1
 135 670 l 1,4,-1
 73 678 l 1,5,-1
 73 730 l 1,6,-1
 277 730 l 1,7,-1
 277 678 l 1,8,-1
 215 670 l 1,9,-1
 215 59 l 1,10,-1
 277 52 l 1,11,-1
 277 0 l 1,0,-1
333 825 m 1,12,-1
 301 792 l 1,13,-1
 189 890 l 1,14,-1
 78 792 l 1,15,-1
 46 825 l 1,16,-1
 168 968 l 1,17,-1
 210 968 l 1,18,-1
 333 825 l 1,12,-1
EndSplineSet
EndChar

StartChar: Idieresis
Encoding: 207 207 144
Width: 350
GlyphClass: 2
Flags: W
LayerCount: 2
Fore
SplineSet
277 0 m 1,0,-1
 73 0 l 1,1,-1
 73 52 l 1,2,-1
 135 59 l 1,3,-1
 135 670 l 1,4,-1
 73 678 l 1,5,-1
 73 730 l 1,6,-1
 277 730 l 1,7,-1
 277 678 l 1,8,-1
 215 670 l 1,9,-1
 215 59 l 1,10,-1
 277 52 l 1,11,-1
 277 0 l 1,0,-1
22 874 m 128,-1,13
 22 894 22 894 37 909 c 128,-1,14
 52 924 52 924 72 924 c 128,-1,15
 92 924 92 924 107 909 c 128,-1,16
 122 894 122 894 122 874 c 128,-1,17
 122 854 122 854 107 839 c 128,-1,18
 92 824 92 824 72 824 c 128,-1,19
 52 824 52 824 37 839 c 128,-1,12
 22 854 22 854 22 874 c 128,-1,13
227 874 m 128,-1,21
 227 894 227 894 242 909 c 128,-1,22
 257 924 257 924 277 924 c 128,-1,23
 297 924 297 924 312 909 c 128,-1,24
 327 894 327 894 327 874 c 128,-1,25
 327 854 327 854 312 839 c 128,-1,26
 297 824 297 824 277 824 c 128,-1,27
 257 824 257 824 242 839 c 128,-1,20
 227 854 227 854 227 874 c 128,-1,21
EndSplineSet
EndChar

StartChar: Eth
Encoding: 208 208 145
Width: 718
GlyphClass: 2
Flags: W
LayerCount: 2
Fore
SplineSet
73 730 m 1,0,-1
 347 730 l 2,1,2
 496 730 496 730 575 636.5 c 128,-1,3
 654 543 654 543 654 365 c 128,-1,4
 654 187 654 187 575 93.5 c 128,-1,5
 496 0 496 0 347 0 c 2,6,-1
 73 0 l 1,7,-1
 73 52 l 1,8,-1
 135 59 l 1,9,-1
 135 337 l 1,10,-1
 40 337 l 1,11,-1
 40 392 l 1,12,-1
 135 392 l 1,13,-1
 135 670 l 1,14,-1
 73 678 l 1,15,-1
 73 730 l 1,0,-1
385 337 m 1,16,-1
 215 337 l 1,17,-1
 215 55 l 1,18,-1
 351 55 l 2,19,20
 460 55 460 55 517.5 135 c 128,-1,21
 575 215 575 215 575 365 c 128,-1,22
 575 515 575 515 517.5 595 c 128,-1,23
 460 675 460 675 351 675 c 2,24,-1
 215 675 l 1,25,-1
 215 392 l 1,26,-1
 385 392 l 1,27,-1
 385 337 l 1,16,-1
EndSplineSet
EndChar

StartChar: Ntilde
Encoding: 209 209 146
Width: 793
GlyphClass: 2
Flags: W
LayerCount: 2
Fore
SplineSet
668 0 m 1,0,-1
 602 0 l 2,1,2
 576 0 576 0 565 20 c 2,3,-1
 215 603 l 1,4,-1
 215 31 l 2,5,6
 215 0 215 0 184 0 c 2,7,-1
 73 0 l 1,8,-1
 73 52 l 1,9,-1
 135 59 l 1,10,-1
 135 670 l 1,11,-1
 73 678 l 1,12,-1
 73 730 l 1,13,-1
 201 730 l 2,14,15
 225 730 225 730 238 710 c 2,16,-1
 588 126 l 1,17,-1
 588 699 l 2,18,19
 588 730 588 730 618 730 c 2,20,-1
 730 730 l 1,21,-1
 730 678 l 1,22,-1
 668 670 l 1,23,-1
 668 0 l 1,0,-1
477 834 m 0,24,25
 452 834 452 834 404.5 852 c 128,-1,26
 357 870 357 870 343 870 c 0,27,28
 308 870 308 870 296 827 c 1,29,-1
 249 841 l 1,30,31
 275 936 275 936 335 936 c 0,32,33
 359 936 359 936 407.5 918 c 128,-1,34
 456 900 456 900 470 900 c 0,35,36
 503 900 503 900 516 944 c 1,37,-1
 563 929 l 1,38,39
 539 834 539 834 477 834 c 0,24,25
EndSplineSet
EndChar

StartChar: Ograve
Encoding: 210 210 147
Width: 710
GlyphClass: 2
Flags: W
LayerCount: 2
Fore
SplineSet
139.5 645.5 m 128,-1,1
 217 744 217 744 353.5 744 c 128,-1,2
 490 744 490 744 568 645.5 c 128,-1,3
 646 547 646 547 646 365 c 128,-1,4
 646 183 646 183 568 84.5 c 128,-1,5
 490 -14 490 -14 353.5 -14 c 128,-1,6
 217 -14 217 -14 139.5 84.5 c 128,-1,7
 62 183 62 183 62 365 c 128,-1,0
 62 547 62 547 139.5 645.5 c 128,-1,1
509.5 600.5 m 128,-1,9
 453 683 453 683 353.5 683 c 128,-1,10
 254 683 254 683 197.5 600.5 c 128,-1,11
 141 518 141 518 141 365 c 128,-1,12
 141 212 141 212 197.5 129.5 c 128,-1,13
 254 47 254 47 353.5 47 c 128,-1,14
 453 47 453 47 509.5 129.5 c 128,-1,15
 566 212 566 212 566 365 c 128,-1,8
 566 518 566 518 509.5 600.5 c 128,-1,9
451 795 m 1,16,-1
 248 900 l 1,17,-1
 287 967 l 1,18,-1
 478 841 l 1,19,-1
 451 795 l 1,16,-1
EndSplineSet
EndChar

StartChar: Oacute
Encoding: 211 211 148
Width: 710
GlyphClass: 2
Flags: W
LayerCount: 2
Fore
SplineSet
139.5 645.5 m 128,-1,1
 217 744 217 744 353.5 744 c 128,-1,2
 490 744 490 744 568 645.5 c 128,-1,3
 646 547 646 547 646 365 c 128,-1,4
 646 183 646 183 568 84.5 c 128,-1,5
 490 -14 490 -14 353.5 -14 c 128,-1,6
 217 -14 217 -14 139.5 84.5 c 128,-1,7
 62 183 62 183 62 365 c 128,-1,0
 62 547 62 547 139.5 645.5 c 128,-1,1
509.5 600.5 m 128,-1,9
 453 683 453 683 353.5 683 c 128,-1,10
 254 683 254 683 197.5 600.5 c 128,-1,11
 141 518 141 518 141 365 c 128,-1,12
 141 212 141 212 197.5 129.5 c 128,-1,13
 254 47 254 47 353.5 47 c 128,-1,14
 453 47 453 47 509.5 129.5 c 128,-1,15
 566 212 566 212 566 365 c 128,-1,8
 566 518 566 518 509.5 600.5 c 128,-1,9
479 900 m 1,16,-1
 277 795 l 1,17,-1
 249 841 l 1,18,-1
 441 967 l 1,19,-1
 479 900 l 1,16,-1
EndSplineSet
EndChar

StartChar: Ocircumflex
Encoding: 212 212 149
Width: 710
GlyphClass: 2
Flags: W
LayerCount: 2
Fore
SplineSet
139.5 645.5 m 128,-1,1
 217 744 217 744 353.5 744 c 128,-1,2
 490 744 490 744 568 645.5 c 128,-1,3
 646 547 646 547 646 365 c 128,-1,4
 646 183 646 183 568 84.5 c 128,-1,5
 490 -14 490 -14 353.5 -14 c 128,-1,6
 217 -14 217 -14 139.5 84.5 c 128,-1,7
 62 183 62 183 62 365 c 128,-1,0
 62 547 62 547 139.5 645.5 c 128,-1,1
509.5 600.5 m 128,-1,9
 453 683 453 683 353.5 683 c 128,-1,10
 254 683 254 683 197.5 600.5 c 128,-1,11
 141 518 141 518 141 365 c 128,-1,12
 141 212 141 212 197.5 129.5 c 128,-1,13
 254 47 254 47 353.5 47 c 128,-1,14
 453 47 453 47 509.5 129.5 c 128,-1,15
 566 212 566 212 566 365 c 128,-1,8
 566 518 566 518 509.5 600.5 c 128,-1,9
505 825 m 1,16,-1
 473 792 l 1,17,-1
 361 890 l 1,18,-1
 250 792 l 1,19,-1
 218 825 l 1,20,-1
 340 968 l 1,21,-1
 382 968 l 1,22,-1
 505 825 l 1,16,-1
EndSplineSet
EndChar

StartChar: Otilde
Encoding: 213 213 150
Width: 710
GlyphClass: 2
Flags: W
LayerCount: 2
Fore
SplineSet
139.5 645.5 m 128,-1,1
 217 744 217 744 353.5 744 c 128,-1,2
 490 744 490 744 568 645.5 c 128,-1,3
 646 547 646 547 646 365 c 128,-1,4
 646 183 646 183 568 84.5 c 128,-1,5
 490 -14 490 -14 353.5 -14 c 128,-1,6
 217 -14 217 -14 139.5 84.5 c 128,-1,7
 62 183 62 183 62 365 c 128,-1,0
 62 547 62 547 139.5 645.5 c 128,-1,1
509.5 600.5 m 128,-1,9
 453 683 453 683 353.5 683 c 128,-1,10
 254 683 254 683 197.5 600.5 c 128,-1,11
 141 518 141 518 141 365 c 128,-1,12
 141 212 141 212 197.5 129.5 c 128,-1,13
 254 47 254 47 353.5 47 c 128,-1,14
 453 47 453 47 509.5 129.5 c 128,-1,15
 566 212 566 212 566 365 c 128,-1,8
 566 518 566 518 509.5 600.5 c 128,-1,9
432 834 m 0,16,17
 407 834 407 834 359.5 852 c 128,-1,18
 312 870 312 870 298 870 c 0,19,20
 263 870 263 870 251 827 c 1,21,-1
 204 841 l 1,22,23
 230 936 230 936 290 936 c 0,24,25
 314 936 314 936 362.5 918 c 128,-1,26
 411 900 411 900 425 900 c 0,27,28
 458 900 458 900 471 944 c 1,29,-1
 518 929 l 1,30,31
 494 834 494 834 432 834 c 0,16,17
EndSplineSet
EndChar

StartChar: Odieresis
Encoding: 214 214 151
Width: 710
GlyphClass: 2
Flags: W
LayerCount: 2
Fore
SplineSet
139.5 645.5 m 128,-1,1
 217 744 217 744 353.5 744 c 128,-1,2
 490 744 490 744 568 645.5 c 128,-1,3
 646 547 646 547 646 365 c 128,-1,4
 646 183 646 183 568 84.5 c 128,-1,5
 490 -14 490 -14 353.5 -14 c 128,-1,6
 217 -14 217 -14 139.5 84.5 c 128,-1,7
 62 183 62 183 62 365 c 128,-1,0
 62 547 62 547 139.5 645.5 c 128,-1,1
509.5 600.5 m 128,-1,9
 453 683 453 683 353.5 683 c 128,-1,10
 254 683 254 683 197.5 600.5 c 128,-1,11
 141 518 141 518 141 365 c 128,-1,12
 141 212 141 212 197.5 129.5 c 128,-1,13
 254 47 254 47 353.5 47 c 128,-1,14
 453 47 453 47 509.5 129.5 c 128,-1,15
 566 212 566 212 566 365 c 128,-1,8
 566 518 566 518 509.5 600.5 c 128,-1,9
202 874 m 128,-1,17
 202 894 202 894 217 909 c 128,-1,18
 232 924 232 924 252 924 c 128,-1,19
 272 924 272 924 287 909 c 128,-1,20
 302 894 302 894 302 874 c 128,-1,21
 302 854 302 854 287 839 c 128,-1,22
 272 824 272 824 252 824 c 128,-1,23
 232 824 232 824 217 839 c 128,-1,16
 202 854 202 854 202 874 c 128,-1,17
407 874 m 128,-1,25
 407 894 407 894 422 909 c 128,-1,26
 437 924 437 924 457 924 c 128,-1,27
 477 924 477 924 492 909 c 128,-1,28
 507 894 507 894 507 874 c 128,-1,29
 507 854 507 854 492 839 c 128,-1,30
 477 824 477 824 457 824 c 128,-1,31
 437 824 437 824 422 839 c 128,-1,24
 407 854 407 854 407 874 c 128,-1,25
EndSplineSet
EndChar

StartChar: multiply
Encoding: 215 215 152
Width: 584
GlyphClass: 2
Flags: W
LayerCount: 2
Fore
SplineSet
472 499 m 1,0,-1
 338 365 l 1,1,-1
 472 230 l 1,2,-1
 426 185 l 1,3,-1
 292 320 l 1,4,-1
 158 185 l 1,5,-1
 113 230 l 1,6,-1
 246 365 l 1,7,-1
 113 499 l 1,8,-1
 158 544 l 1,9,-1
 292 410 l 1,10,-1
 426 544 l 1,11,-1
 472 499 l 1,0,-1
EndSplineSet
EndChar

StartChar: Oslash
Encoding: 216 216 153
Width: 710
GlyphClass: 2
Flags: W
LayerCount: 2
Fore
SplineSet
62 365 m 0,0,1
 62 547 62 547 139.5 645.5 c 128,-1,2
 217 744 217 744 353 744 c 0,3,4
 388 744 388 744 425 736 c 1,5,-1
 444 805 l 1,6,-1
 506 805 l 1,7,-1
 482 716 l 1,8,9
 560 677 560 677 603 587.5 c 128,-1,10
 646 498 646 498 646 365 c 0,11,12
 646 183 646 183 568 84.5 c 128,-1,13
 490 -14 490 -14 353 -14 c 0,14,15
 322 -14 322 -14 285 -7 c 1,16,-1
 266 -76 l 1,17,-1
 204 -76 l 1,18,-1
 228 12 l 1,19,20
 148 50 148 50 105 140 c 128,-1,21
 62 230 62 230 62 365 c 0,0,1
353 683 m 0,22,23
 254 683 254 683 197.5 600.5 c 128,-1,24
 141 518 141 518 141 365 c 0,25,26
 141 154 141 154 246 79 c 1,27,-1
 408 675 l 1,28,29
 381 683 381 683 353 683 c 0,22,23
566 365 m 0,30,31
 566 574 566 574 463 648 c 1,32,-1
 301 53 l 1,33,34
 325 47 325 47 353 47 c 0,35,36
 453 47 453 47 509.5 129.5 c 128,-1,37
 566 212 566 212 566 365 c 0,30,31
EndSplineSet
EndChar

StartChar: Ugrave
Encoding: 217 217 154
Width: 750
GlyphClass: 2
Flags: W
LayerCount: 2
Fore
SplineSet
635 266 m 2,0,1
 635 101 635 101 554 40 c 1,2,3
 485 -14 485 -14 374 -14 c 0,4,5
 267 -14 267 -14 196 40 c 0,6,7
 115 101 115 101 115 266 c 2,8,-1
 115 670 l 1,9,-1
 53 678 l 1,10,-1
 53 730 l 1,11,-1
 162 730 l 2,12,13
 195 730 195 730 195 699 c 2,14,-1
 195 269 l 2,15,16
 195 49 195 49 374 49 c 0,17,18
 555 49 555 49 555 269 c 2,19,-1
 555 699 l 2,20,21
 555 730 555 730 588 730 c 2,22,-1
 697 730 l 1,23,-1
 697 678 l 1,24,-1
 635 670 l 1,25,-1
 635 266 l 2,0,1
462 795 m 1,26,-1
 259 900 l 1,27,-1
 298 967 l 1,28,-1
 489 841 l 1,29,-1
 462 795 l 1,26,-1
EndSplineSet
EndChar

StartChar: Uacute
Encoding: 218 218 155
Width: 750
GlyphClass: 2
Flags: W
LayerCount: 2
Fore
SplineSet
635 266 m 2,0,1
 635 101 635 101 554 40 c 1,2,3
 485 -14 485 -14 374 -14 c 0,4,5
 267 -14 267 -14 196 40 c 0,6,7
 115 101 115 101 115 266 c 2,8,-1
 115 670 l 1,9,-1
 53 678 l 1,10,-1
 53 730 l 1,11,-1
 162 730 l 2,12,13
 195 730 195 730 195 699 c 2,14,-1
 195 269 l 2,15,16
 195 49 195 49 374 49 c 0,17,18
 555 49 555 49 555 269 c 2,19,-1
 555 699 l 2,20,21
 555 730 555 730 588 730 c 2,22,-1
 697 730 l 1,23,-1
 697 678 l 1,24,-1
 635 670 l 1,25,-1
 635 266 l 2,0,1
510 900 m 1,26,-1
 308 795 l 1,27,-1
 280 841 l 1,28,-1
 472 967 l 1,29,-1
 510 900 l 1,26,-1
EndSplineSet
EndChar

StartChar: Ucircumflex
Encoding: 219 219 156
Width: 750
GlyphClass: 2
Flags: W
LayerCount: 2
Fore
SplineSet
635 266 m 2,0,1
 635 101 635 101 554 40 c 1,2,3
 485 -14 485 -14 374 -14 c 0,4,5
 267 -14 267 -14 196 40 c 0,6,7
 115 101 115 101 115 266 c 2,8,-1
 115 670 l 1,9,-1
 53 678 l 1,10,-1
 53 730 l 1,11,-1
 162 730 l 2,12,13
 195 730 195 730 195 699 c 2,14,-1
 195 269 l 2,15,16
 195 49 195 49 374 49 c 0,17,18
 555 49 555 49 555 269 c 2,19,-1
 555 699 l 2,20,21
 555 730 555 730 588 730 c 2,22,-1
 697 730 l 1,23,-1
 697 678 l 1,24,-1
 635 670 l 1,25,-1
 635 266 l 2,0,1
516 825 m 1,26,-1
 484 792 l 1,27,-1
 372 890 l 1,28,-1
 261 792 l 1,29,-1
 229 825 l 1,30,-1
 351 968 l 1,31,-1
 393 968 l 1,32,-1
 516 825 l 1,26,-1
EndSplineSet
EndChar

StartChar: Udieresis
Encoding: 220 220 157
Width: 750
GlyphClass: 2
Flags: W
LayerCount: 2
Fore
SplineSet
635 266 m 2,0,1
 635 101 635 101 554 40 c 1,2,3
 485 -14 485 -14 374 -14 c 0,4,5
 267 -14 267 -14 196 40 c 0,6,7
 115 101 115 101 115 266 c 2,8,-1
 115 670 l 1,9,-1
 53 678 l 1,10,-1
 53 730 l 1,11,-1
 162 730 l 2,12,13
 195 730 195 730 195 699 c 2,14,-1
 195 269 l 2,15,16
 195 49 195 49 374 49 c 0,17,18
 555 49 555 49 555 269 c 2,19,-1
 555 699 l 2,20,21
 555 730 555 730 588 730 c 2,22,-1
 697 730 l 1,23,-1
 697 678 l 1,24,-1
 635 670 l 1,25,-1
 635 266 l 2,0,1
222 874 m 128,-1,27
 222 894 222 894 237 909 c 128,-1,28
 252 924 252 924 272 924 c 128,-1,29
 292 924 292 924 307 909 c 128,-1,30
 322 894 322 894 322 874 c 128,-1,31
 322 854 322 854 307 839 c 128,-1,32
 292 824 292 824 272 824 c 128,-1,33
 252 824 252 824 237 839 c 128,-1,26
 222 854 222 854 222 874 c 128,-1,27
427 874 m 128,-1,35
 427 894 427 894 442 909 c 128,-1,36
 457 924 457 924 477 924 c 128,-1,37
 497 924 497 924 512 909 c 128,-1,38
 527 894 527 894 527 874 c 128,-1,39
 527 854 527 854 512 839 c 128,-1,40
 497 824 497 824 477 824 c 128,-1,41
 457 824 457 824 442 839 c 128,-1,34
 427 854 427 854 427 874 c 128,-1,35
EndSplineSet
EndChar

StartChar: Yacute
Encoding: 221 221 158
Width: 548
GlyphClass: 2
Flags: W
LayerCount: 2
Fore
SplineSet
405 0 m 1,0,-1
 145 0 l 1,1,-1
 145 52 l 1,2,-1
 235 59 l 1,3,-1
 235 259 l 1,4,-1
 52 670 l 1,5,-1
 -3 678 l 1,6,-1
 -3 730 l 1,7,-1
 89 730 l 2,8,9
 116 730 116 730 126 707 c 2,10,-1
 275 347 l 1,11,-1
 422 707 l 2,12,13
 432 730 432 730 459 730 c 2,14,-1
 550 730 l 1,15,-1
 550 678 l 1,16,-1
 495 670 l 1,17,-1
 315 262 l 1,18,-1
 315 59 l 1,19,-1
 405 52 l 1,20,-1
 405 0 l 1,0,-1
409 900 m 1,21,-1
 207 795 l 1,22,-1
 179 841 l 1,23,-1
 371 967 l 1,24,-1
 409 900 l 1,21,-1
EndSplineSet
EndChar

StartChar: Thorn
Encoding: 222 222 159
Width: 627
GlyphClass: 2
Flags: W
LayerCount: 2
Fore
SplineSet
216 574 m 1,0,-1
 328 574 l 2,1,2
 442 574 442 574 502.5 520 c 128,-1,3
 563 466 563 466 563 366.5 c 128,-1,4
 563 267 563 267 503.5 214 c 128,-1,5
 444 161 444 161 328 161 c 2,6,-1
 279 161 l 1,7,-1
 279 215 l 1,8,-1
 328 215 l 2,9,10
 484 215 484 215 484 366 c 0,11,12
 484 520 484 520 328 520 c 2,13,-1
 216 520 l 1,14,-1
 216 59 l 1,15,-1
 279 51 l 1,16,-1
 279 0 l 1,17,-1
 73 0 l 1,18,-1
 73 52 l 1,19,-1
 136 59 l 1,20,-1
 136 670 l 1,21,-1
 74 678 l 1,22,-1
 74 730 l 1,23,-1
 278 730 l 1,24,-1
 278 678 l 1,25,-1
 216 670 l 1,26,-1
 216 574 l 1,0,-1
EndSplineSet
EndChar

StartChar: germandbls
Encoding: 223 223 160
Width: 668
GlyphClass: 2
Flags: W
LayerCount: 2
Fore
SplineSet
120 484 m 2,0,1
 120 614 120 614 180.5 679.5 c 128,-1,2
 241 745 241 745 346.5 745 c 128,-1,3
 452 745 452 745 511.5 692 c 128,-1,4
 571 639 571 639 571 548 c 0,5,6
 571 487 571 487 540.5 441.5 c 128,-1,7
 510 396 510 396 449 380 c 1,8,9
 532 369 532 369 581 321.5 c 128,-1,10
 630 274 630 274 630 182.5 c 128,-1,11
 630 91 630 91 579 38.5 c 128,-1,12
 528 -14 528 -14 430 -14 c 0,13,14
 351 -14 351 -14 302 39 c 128,-1,15
 253 92 253 92 253 179 c 1,16,-1
 318 179 l 1,17,18
 318 120 318 120 348.5 83.5 c 128,-1,19
 379 47 379 47 433.5 47 c 128,-1,20
 488 47 488 47 519.5 84 c 128,-1,21
 551 121 551 121 551 190.5 c 128,-1,22
 551 260 551 260 509 302 c 128,-1,23
 467 344 467 344 382 344 c 2,24,-1
 287 344 l 1,25,-1
 287 399 l 1,26,-1
 352 399 l 2,27,28
 419 399 419 399 456.5 436 c 128,-1,29
 494 473 494 473 494 542 c 128,-1,30
 494 611 494 611 455 647.5 c 128,-1,31
 416 684 416 684 348 684 c 0,32,33
 200 684 200 684 200 485 c 2,34,-1
 200 31 l 2,35,36
 200 0 200 0 166 0 c 2,37,-1
 57 0 l 1,38,-1
 57 52 l 1,39,-1
 120 59 l 1,40,-1
 120 484 l 2,0,1
EndSplineSet
EndChar

StartChar: agrave
Encoding: 224 224 161
Width: 612
GlyphClass: 2
Flags: W
LayerCount: 2
Fore
SplineSet
403 99 m 2,0,-1
 403 113 l 1,1,2
 338 -14 338 -14 199 -14 c 0,3,4
 132 -14 132 -14 92 27 c 128,-1,5
 52 68 52 68 52 139 c 0,6,7
 52 236 52 236 132 285 c 128,-1,8
 212 334 212 334 403 334 c 1,9,-1
 403 376 l 2,10,11
 403 462 403 462 372 494 c 128,-1,12
 341 526 341 526 271.5 526 c 128,-1,13
 202 526 202 526 116 478 c 1,14,-1
 90 538 l 1,15,16
 193 586 193 586 286 586 c 0,17,18
 431 586 431 586 467 484 c 0,19,20
 482 442 482 442 482 382 c 2,21,-1
 482 108 l 2,22,23
 482 53 482 53 524 53 c 0,24,25
 538 53 538 53 565 59 c 1,26,-1
 574 -1 l 1,27,28
 535 -14 535 -14 498 -14 c 0,29,30
 403 -14 403 -14 403 99 c 2,0,-1
403 283 m 1,31,32
 127 283 127 283 127 145 c 0,33,34
 127 99 127 99 152.5 73.5 c 128,-1,35
 178 48 178 48 224 48 c 0,36,37
 296 48 296 48 348 106 c 128,-1,38
 400 164 400 164 403 271 c 1,39,-1
 403 283 l 1,31,32
385 637 m 1,40,-1
 182 742 l 1,41,-1
 221 809 l 1,42,-1
 412 683 l 1,43,-1
 385 637 l 1,40,-1
EndSplineSet
EndChar

StartChar: aacute
Encoding: 225 225 162
Width: 612
GlyphClass: 2
Flags: W
LayerCount: 2
Fore
SplineSet
403 99 m 2,0,-1
 403 113 l 1,1,2
 338 -14 338 -14 199 -14 c 0,3,4
 132 -14 132 -14 92 27 c 128,-1,5
 52 68 52 68 52 139 c 0,6,7
 52 236 52 236 132 285 c 128,-1,8
 212 334 212 334 403 334 c 1,9,-1
 403 376 l 2,10,11
 403 462 403 462 372 494 c 128,-1,12
 341 526 341 526 271.5 526 c 128,-1,13
 202 526 202 526 116 478 c 1,14,-1
 90 538 l 1,15,16
 193 586 193 586 286 586 c 0,17,18
 431 586 431 586 467 484 c 0,19,20
 482 442 482 442 482 382 c 2,21,-1
 482 108 l 2,22,23
 482 53 482 53 524 53 c 0,24,25
 538 53 538 53 565 59 c 1,26,-1
 574 -1 l 1,27,28
 535 -14 535 -14 498 -14 c 0,29,30
 403 -14 403 -14 403 99 c 2,0,-1
403 283 m 1,31,32
 127 283 127 283 127 145 c 0,33,34
 127 99 127 99 152.5 73.5 c 128,-1,35
 178 48 178 48 224 48 c 0,36,37
 296 48 296 48 348 106 c 128,-1,38
 400 164 400 164 403 271 c 1,39,-1
 403 283 l 1,31,32
413 742 m 1,40,-1
 211 637 l 1,41,-1
 183 683 l 1,42,-1
 375 809 l 1,43,-1
 413 742 l 1,40,-1
EndSplineSet
EndChar

StartChar: acircumflex
Encoding: 226 226 163
Width: 612
GlyphClass: 2
Flags: W
LayerCount: 2
Fore
SplineSet
403 99 m 2,0,-1
 403 113 l 1,1,2
 338 -14 338 -14 199 -14 c 0,3,4
 132 -14 132 -14 92 27 c 128,-1,5
 52 68 52 68 52 139 c 0,6,7
 52 236 52 236 132 285 c 128,-1,8
 212 334 212 334 403 334 c 1,9,-1
 403 376 l 2,10,11
 403 462 403 462 372 494 c 128,-1,12
 341 526 341 526 271.5 526 c 128,-1,13
 202 526 202 526 116 478 c 1,14,-1
 90 538 l 1,15,16
 193 586 193 586 286 586 c 0,17,18
 431 586 431 586 467 484 c 0,19,20
 482 442 482 442 482 382 c 2,21,-1
 482 108 l 2,22,23
 482 53 482 53 524 53 c 0,24,25
 538 53 538 53 565 59 c 1,26,-1
 574 -1 l 1,27,28
 535 -14 535 -14 498 -14 c 0,29,30
 403 -14 403 -14 403 99 c 2,0,-1
403 283 m 1,31,32
 127 283 127 283 127 145 c 0,33,34
 127 99 127 99 152.5 73.5 c 128,-1,35
 178 48 178 48 224 48 c 0,36,37
 296 48 296 48 348 106 c 128,-1,38
 400 164 400 164 403 271 c 1,39,-1
 403 283 l 1,31,32
434 667 m 1,40,-1
 402 634 l 1,41,-1
 290 732 l 1,42,-1
 179 634 l 1,43,-1
 147 667 l 1,44,-1
 269 810 l 1,45,-1
 311 810 l 1,46,-1
 434 667 l 1,40,-1
EndSplineSet
EndChar

StartChar: atilde
Encoding: 227 227 164
Width: 612
GlyphClass: 2
Flags: W
LayerCount: 2
Fore
SplineSet
403 99 m 2,0,-1
 403 113 l 1,1,2
 338 -14 338 -14 199 -14 c 0,3,4
 132 -14 132 -14 92 27 c 128,-1,5
 52 68 52 68 52 139 c 0,6,7
 52 236 52 236 132 285 c 128,-1,8
 212 334 212 334 403 334 c 1,9,-1
 403 376 l 2,10,11
 403 462 403 462 372 494 c 128,-1,12
 341 526 341 526 271.5 526 c 128,-1,13
 202 526 202 526 116 478 c 1,14,-1
 90 538 l 1,15,16
 193 586 193 586 286 586 c 0,17,18
 431 586 431 586 467 484 c 0,19,20
 482 442 482 442 482 382 c 2,21,-1
 482 108 l 2,22,23
 482 53 482 53 524 53 c 0,24,25
 538 53 538 53 565 59 c 1,26,-1
 574 -1 l 1,27,28
 535 -14 535 -14 498 -14 c 0,29,30
 403 -14 403 -14 403 99 c 2,0,-1
403 283 m 1,31,32
 127 283 127 283 127 145 c 0,33,34
 127 99 127 99 152.5 73.5 c 128,-1,35
 178 48 178 48 224 48 c 0,36,37
 296 48 296 48 348 106 c 128,-1,38
 400 164 400 164 403 271 c 1,39,-1
 403 283 l 1,31,32
361 676 m 0,40,41
 336 676 336 676 288.5 694 c 128,-1,42
 241 712 241 712 227 712 c 0,43,44
 192 712 192 712 180 669 c 1,45,-1
 133 683 l 1,46,47
 159 778 159 778 219 778 c 0,48,49
 243 778 243 778 291.5 760 c 128,-1,50
 340 742 340 742 354 742 c 0,51,52
 387 742 387 742 400 786 c 1,53,-1
 447 771 l 1,54,55
 423 676 423 676 361 676 c 0,40,41
EndSplineSet
EndChar

StartChar: adieresis
Encoding: 228 228 165
Width: 612
GlyphClass: 2
Flags: W
LayerCount: 2
Fore
SplineSet
403 99 m 2,0,-1
 403 113 l 1,1,2
 338 -14 338 -14 199 -14 c 0,3,4
 132 -14 132 -14 92 27 c 128,-1,5
 52 68 52 68 52 139 c 0,6,7
 52 236 52 236 132 285 c 128,-1,8
 212 334 212 334 403 334 c 1,9,-1
 403 376 l 2,10,11
 403 462 403 462 372 494 c 128,-1,12
 341 526 341 526 271.5 526 c 128,-1,13
 202 526 202 526 116 478 c 1,14,-1
 90 538 l 1,15,16
 193 586 193 586 286 586 c 0,17,18
 431 586 431 586 467 484 c 0,19,20
 482 442 482 442 482 382 c 2,21,-1
 482 108 l 2,22,23
 482 53 482 53 524 53 c 0,24,25
 538 53 538 53 565 59 c 1,26,-1
 574 -1 l 1,27,28
 535 -14 535 -14 498 -14 c 0,29,30
 403 -14 403 -14 403 99 c 2,0,-1
403 283 m 1,31,32
 127 283 127 283 127 145 c 0,33,34
 127 99 127 99 152.5 73.5 c 128,-1,35
 178 48 178 48 224 48 c 0,36,37
 296 48 296 48 348 106 c 128,-1,38
 400 164 400 164 403 271 c 1,39,-1
 403 283 l 1,31,32
145 716 m 128,-1,41
 145 736 145 736 160 751 c 128,-1,42
 175 766 175 766 195 766 c 128,-1,43
 215 766 215 766 230 751 c 128,-1,44
 245 736 245 736 245 716 c 128,-1,45
 245 696 245 696 230 681 c 128,-1,46
 215 666 215 666 195 666 c 128,-1,47
 175 666 175 666 160 681 c 128,-1,40
 145 696 145 696 145 716 c 128,-1,41
350 716 m 128,-1,49
 350 736 350 736 365 751 c 128,-1,50
 380 766 380 766 400 766 c 128,-1,51
 420 766 420 766 435 751 c 128,-1,52
 450 736 450 736 450 716 c 128,-1,53
 450 696 450 696 435 681 c 128,-1,54
 420 666 420 666 400 666 c 128,-1,55
 380 666 380 666 365 681 c 128,-1,48
 350 696 350 696 350 716 c 128,-1,49
EndSplineSet
EndChar

StartChar: aring
Encoding: 229 229 166
Width: 612
GlyphClass: 2
Flags: W
LayerCount: 2
Fore
SplineSet
403 99 m 2,0,-1
 403 113 l 1,1,2
 338 -14 338 -14 199 -14 c 0,3,4
 132 -14 132 -14 92 27 c 128,-1,5
 52 68 52 68 52 139 c 0,6,7
 52 236 52 236 132 285 c 128,-1,8
 212 334 212 334 403 334 c 1,9,-1
 403 376 l 2,10,11
 403 462 403 462 372 494 c 128,-1,12
 341 526 341 526 271.5 526 c 128,-1,13
 202 526 202 526 116 478 c 1,14,-1
 90 538 l 1,15,16
 193 586 193 586 286 586 c 0,17,18
 431 586 431 586 467 484 c 0,19,20
 482 442 482 442 482 382 c 2,21,-1
 482 108 l 2,22,23
 482 53 482 53 524 53 c 0,24,25
 538 53 538 53 565 59 c 1,26,-1
 574 -1 l 1,27,28
 535 -14 535 -14 498 -14 c 0,29,30
 403 -14 403 -14 403 99 c 2,0,-1
403 283 m 1,31,32
 127 283 127 283 127 145 c 0,33,34
 127 99 127 99 152.5 73.5 c 128,-1,35
 178 48 178 48 224 48 c 0,36,37
 296 48 296 48 348 106 c 128,-1,38
 400 164 400 164 403 271 c 1,39,-1
 403 283 l 1,31,32
215.5 803.5 m 128,-1,41
 244 833 244 833 295.5 833 c 128,-1,42
 347 833 347 833 378.5 801.5 c 128,-1,43
 410 770 410 770 410 723 c 128,-1,44
 410 676 410 676 380.5 647 c 128,-1,45
 351 618 351 618 299.5 618 c 128,-1,46
 248 618 248 618 217.5 649 c 128,-1,47
 187 680 187 680 187 727 c 128,-1,40
 187 774 187 774 215.5 803.5 c 128,-1,41
335 769 m 128,-1,49
 320 787 320 787 296 787 c 128,-1,50
 272 787 272 787 258.5 770 c 128,-1,51
 245 753 245 753 245 726.5 c 128,-1,52
 245 700 245 700 259.5 681.5 c 128,-1,53
 274 663 274 663 298.5 663 c 128,-1,54
 323 663 323 663 336.5 680 c 128,-1,55
 350 697 350 697 350 724 c 128,-1,48
 350 751 350 751 335 769 c 128,-1,49
EndSplineSet
EndChar

StartChar: ae
Encoding: 230 230 167
Width: 933
GlyphClass: 2
Flags: W
LayerCount: 2
Fore
SplineSet
876 269 m 1,0,-1
 482 269 l 1,1,2
 482 158 482 158 538 96 c 0,3,4
 582 47 582 47 658.5 47 c 128,-1,5
 735 47 735 47 823 92 c 1,6,-1
 848 34 l 1,7,8
 747 -14 747 -14 657 -14 c 0,9,10
 490 -14 490 -14 429 138 c 1,11,12
 402 58 402 58 343 22 c 128,-1,13
 284 -14 284 -14 210.5 -14 c 128,-1,14
 137 -14 137 -14 94.5 25.5 c 128,-1,15
 52 65 52 65 52 136 c 0,16,17
 52 230 52 230 126.5 277.5 c 128,-1,18
 201 325 201 325 381 325 c 2,19,-1
 403 325 l 1,20,-1
 403 376 l 2,21,22
 403 462 403 462 372 494 c 128,-1,23
 341 526 341 526 271.5 526 c 128,-1,24
 202 526 202 526 116 478 c 1,25,-1
 90 538 l 1,26,27
 193 586 193 586 286 586 c 0,28,29
 420 586 420 586 461 496 c 1,30,31
 525 586 525 586 648 586 c 0,32,33
 755 586 755 586 815.5 513 c 128,-1,34
 876 440 876 440 876 318 c 2,35,-1
 876 269 l 1,0,-1
757 470.5 m 128,-1,37
 717 525 717 525 642 525 c 128,-1,38
 567 525 567 525 529 468 c 128,-1,39
 491 411 491 411 484 325 c 1,40,-1
 797 325 l 1,41,36
 797 416 797 416 757 470.5 c 128,-1,37
403 268 m 1,42,43
 263 268 263 268 195 240.5 c 128,-1,44
 127 213 127 213 127 141 c 0,45,46
 127 97 127 97 154 72.5 c 128,-1,47
 181 48 181 48 230 48 c 0,48,49
 304 48 304 48 353.5 102.5 c 128,-1,50
 403 157 403 157 403 268 c 1,42,43
EndSplineSet
EndChar

StartChar: ccedilla
Encoding: 231 231 168
Width: 541
GlyphClass: 2
Flags: W
LayerCount: 2
Fore
SplineSet
375 -85.5 m 128,-1,1
 404 -105 404 -105 404 -148 c 128,-1,2
 404 -191 404 -191 375.5 -216 c 128,-1,3
 347 -241 347 -241 302 -241 c 128,-1,4
 257 -241 257 -241 231.5 -215 c 128,-1,5
 206 -189 206 -189 206 -146 c 1,6,-1
 258 -146 l 1,7,8
 257 -166 257 -166 269 -180 c 128,-1,9
 281 -194 281 -194 303.5 -194 c 128,-1,10
 326 -194 326 -194 340 -180 c 128,-1,11
 354 -166 354 -166 354 -143 c 0,12,13
 354 -102 354 -102 301 -92 c 2,14,-1
 252 -82 l 1,15,-1
 268 -12 l 1,16,17
 196 -4 196 -4 147.5 44.5 c 128,-1,18
 99 93 99 93 80.5 155 c 128,-1,19
 62 217 62 217 62 275 c 128,-1,20
 62 333 62 333 69 372.5 c 128,-1,21
 76 412 76 412 94 452 c 128,-1,22
 112 492 112 492 139 521 c 128,-1,23
 166 550 166 550 210 568 c 128,-1,24
 254 586 254 586 310 586 c 0,25,26
 401 586 401 586 491 540 c 1,27,-1
 465 482 l 1,28,29
 389 525 389 525 310 525 c 0,30,31
 260 525 260 525 225 503.5 c 128,-1,32
 190 482 190 482 172.5 445.5 c 128,-1,33
 155 409 155 409 147.5 371 c 128,-1,34
 140 333 140 333 140 290 c 128,-1,35
 140 247 140 247 147 208 c 128,-1,36
 154 169 154 169 170 131 c 128,-1,37
 186 93 186 93 219 70 c 128,-1,38
 252 47 252 47 298 47 c 0,39,40
 400 47 400 47 439 151 c 1,41,-1
 503 130 l 1,42,43
 449 -13 449 -13 299 -14 c 1,44,-1
 290 -57 l 1,45,0
 346 -66 346 -66 375 -85.5 c 128,-1,1
EndSplineSet
EndChar

StartChar: egrave
Encoding: 232 232 169
Width: 591
GlyphClass: 2
Flags: W
LayerCount: 2
Fore
SplineSet
534 269 m 1,0,-1
 140 269 l 1,1,2
 140 158 140 158 196 96 c 0,3,4
 240 47 240 47 316.5 47 c 128,-1,5
 393 47 393 47 481 92 c 1,6,-1
 506 34 l 1,7,8
 405 -14 405 -14 326.5 -14 c 128,-1,9
 248 -14 248 -14 197.5 11.5 c 128,-1,10
 147 37 147 37 118 80 c 1,11,12
 62 167 62 167 62 277 c 0,13,14
 62 405 62 405 116 492 c 0,15,16
 144 536 144 536 192.5 561 c 128,-1,17
 241 586 241 586 306 586 c 0,18,19
 413 586 413 586 473.5 513 c 128,-1,20
 534 440 534 440 534 318 c 2,21,-1
 534 269 l 1,0,-1
415 470.5 m 128,-1,23
 375 525 375 525 300 525 c 128,-1,24
 225 525 225 525 187 468 c 128,-1,25
 149 411 149 411 142 325 c 1,26,-1
 455 325 l 1,27,22
 455 416 455 416 415 470.5 c 128,-1,23
384 637 m 1,28,-1
 181 742 l 1,29,-1
 220 809 l 1,30,-1
 411 683 l 1,31,-1
 384 637 l 1,28,-1
EndSplineSet
EndChar

StartChar: eacute
Encoding: 233 233 170
Width: 591
GlyphClass: 2
Flags: W
LayerCount: 2
Fore
SplineSet
534 269 m 1,0,-1
 140 269 l 1,1,2
 140 158 140 158 196 96 c 0,3,4
 240 47 240 47 316.5 47 c 128,-1,5
 393 47 393 47 481 92 c 1,6,-1
 506 34 l 1,7,8
 405 -14 405 -14 326.5 -14 c 128,-1,9
 248 -14 248 -14 197.5 11.5 c 128,-1,10
 147 37 147 37 118 80 c 1,11,12
 62 167 62 167 62 277 c 0,13,14
 62 405 62 405 116 492 c 0,15,16
 144 536 144 536 192.5 561 c 128,-1,17
 241 586 241 586 306 586 c 0,18,19
 413 586 413 586 473.5 513 c 128,-1,20
 534 440 534 440 534 318 c 2,21,-1
 534 269 l 1,0,-1
415 470.5 m 128,-1,23
 375 525 375 525 300 525 c 128,-1,24
 225 525 225 525 187 468 c 128,-1,25
 149 411 149 411 142 325 c 1,26,-1
 455 325 l 1,27,22
 455 416 455 416 415 470.5 c 128,-1,23
412 742 m 1,28,-1
 210 637 l 1,29,-1
 182 683 l 1,30,-1
 374 809 l 1,31,-1
 412 742 l 1,28,-1
EndSplineSet
EndChar

StartChar: ecircumflex
Encoding: 234 234 171
Width: 591
GlyphClass: 2
Flags: W
LayerCount: 2
Fore
SplineSet
534 269 m 1,0,-1
 140 269 l 1,1,2
 140 158 140 158 196 96 c 0,3,4
 240 47 240 47 316.5 47 c 128,-1,5
 393 47 393 47 481 92 c 1,6,-1
 506 34 l 1,7,8
 405 -14 405 -14 326.5 -14 c 128,-1,9
 248 -14 248 -14 197.5 11.5 c 128,-1,10
 147 37 147 37 118 80 c 1,11,12
 62 167 62 167 62 277 c 0,13,14
 62 405 62 405 116 492 c 0,15,16
 144 536 144 536 192.5 561 c 128,-1,17
 241 586 241 586 306 586 c 0,18,19
 413 586 413 586 473.5 513 c 128,-1,20
 534 440 534 440 534 318 c 2,21,-1
 534 269 l 1,0,-1
415 470.5 m 128,-1,23
 375 525 375 525 300 525 c 128,-1,24
 225 525 225 525 187 468 c 128,-1,25
 149 411 149 411 142 325 c 1,26,-1
 455 325 l 1,27,22
 455 416 455 416 415 470.5 c 128,-1,23
450 667 m 1,28,-1
 418 634 l 1,29,-1
 306 732 l 1,30,-1
 195 634 l 1,31,-1
 163 667 l 1,32,-1
 285 810 l 1,33,-1
 327 810 l 1,34,-1
 450 667 l 1,28,-1
EndSplineSet
EndChar

StartChar: edieresis
Encoding: 235 235 172
Width: 591
GlyphClass: 2
Flags: W
LayerCount: 2
Fore
SplineSet
534 269 m 1,0,-1
 140 269 l 1,1,2
 140 158 140 158 196 96 c 0,3,4
 240 47 240 47 316.5 47 c 128,-1,5
 393 47 393 47 481 92 c 1,6,-1
 506 34 l 1,7,8
 405 -14 405 -14 326.5 -14 c 128,-1,9
 248 -14 248 -14 197.5 11.5 c 128,-1,10
 147 37 147 37 118 80 c 1,11,12
 62 167 62 167 62 277 c 0,13,14
 62 405 62 405 116 492 c 0,15,16
 144 536 144 536 192.5 561 c 128,-1,17
 241 586 241 586 306 586 c 0,18,19
 413 586 413 586 473.5 513 c 128,-1,20
 534 440 534 440 534 318 c 2,21,-1
 534 269 l 1,0,-1
415 470.5 m 128,-1,23
 375 525 375 525 300 525 c 128,-1,24
 225 525 225 525 187 468 c 128,-1,25
 149 411 149 411 142 325 c 1,26,-1
 455 325 l 1,27,22
 455 416 455 416 415 470.5 c 128,-1,23
142 716 m 128,-1,29
 142 736 142 736 157 751 c 128,-1,30
 172 766 172 766 192 766 c 128,-1,31
 212 766 212 766 227 751 c 128,-1,32
 242 736 242 736 242 716 c 128,-1,33
 242 696 242 696 227 681 c 128,-1,34
 212 666 212 666 192 666 c 128,-1,35
 172 666 172 666 157 681 c 128,-1,28
 142 696 142 696 142 716 c 128,-1,29
347 716 m 128,-1,37
 347 736 347 736 362 751 c 128,-1,38
 377 766 377 766 397 766 c 128,-1,39
 417 766 417 766 432 751 c 128,-1,40
 447 736 447 736 447 716 c 128,-1,41
 447 696 447 696 432 681 c 128,-1,42
 417 666 417 666 397 666 c 128,-1,43
 377 666 377 666 362 681 c 128,-1,36
 347 696 347 696 347 716 c 128,-1,37
EndSplineSet
EndChar

StartChar: igrave
Encoding: 236 236 173
Width: 337
GlyphClass: 2
Flags: W
LayerCount: 2
Fore
SplineSet
200 541 m 2,0,-1
 200 108 l 2,1,2
 200 53 200 53 244 53 c 0,3,4
 269 53 269 53 285 59 c 1,5,-1
 295 -1 l 1,6,7
 254 -14 254 -14 211 -14 c 0,8,9
 122 -14 122 -14 122 99 c 2,10,-1
 122 512 l 1,11,-1
 62 520 l 1,12,-1
 62 572 l 1,13,-1
 170 572 l 2,14,15
 200 572 200 572 200 541 c 2,0,-1
256 637 m 1,16,-1
 53 742 l 1,17,-1
 92 809 l 1,18,-1
 283 683 l 1,19,-1
 256 637 l 1,16,-1
EndSplineSet
EndChar

StartChar: iacute
Encoding: 237 237 174
Width: 337
GlyphClass: 2
Flags: W
LayerCount: 2
Fore
SplineSet
200 541 m 2,0,-1
 200 108 l 2,1,2
 200 53 200 53 244 53 c 0,3,4
 269 53 269 53 285 59 c 1,5,-1
 295 -1 l 1,6,7
 254 -14 254 -14 211 -14 c 0,8,9
 122 -14 122 -14 122 99 c 2,10,-1
 122 512 l 1,11,-1
 62 520 l 1,12,-1
 62 572 l 1,13,-1
 170 572 l 2,14,15
 200 572 200 572 200 541 c 2,0,-1
284 742 m 1,16,-1
 82 637 l 1,17,-1
 54 683 l 1,18,-1
 246 809 l 1,19,-1
 284 742 l 1,16,-1
EndSplineSet
EndChar

StartChar: icircumflex
Encoding: 238 238 175
Width: 337
GlyphClass: 2
Flags: W
LayerCount: 2
Fore
SplineSet
200 541 m 2,0,-1
 200 108 l 2,1,2
 200 53 200 53 244 53 c 0,3,4
 269 53 269 53 285 59 c 1,5,-1
 295 -1 l 1,6,7
 254 -14 254 -14 211 -14 c 0,8,9
 122 -14 122 -14 122 99 c 2,10,-1
 122 512 l 1,11,-1
 62 520 l 1,12,-1
 62 572 l 1,13,-1
 170 572 l 2,14,15
 200 572 200 572 200 541 c 2,0,-1
290 667 m 1,16,-1
 258 634 l 1,17,-1
 146 732 l 1,18,-1
 35 634 l 1,19,-1
 3 667 l 1,20,-1
 125 810 l 1,21,-1
 167 810 l 1,22,-1
 290 667 l 1,16,-1
EndSplineSet
EndChar

StartChar: idieresis
Encoding: 239 239 176
Width: 337
GlyphClass: 2
Flags: W
LayerCount: 2
Fore
SplineSet
200 541 m 2,0,-1
 200 108 l 2,1,2
 200 53 200 53 244 53 c 0,3,4
 269 53 269 53 285 59 c 1,5,-1
 295 -1 l 1,6,7
 254 -14 254 -14 211 -14 c 0,8,9
 122 -14 122 -14 122 99 c 2,10,-1
 122 512 l 1,11,-1
 62 520 l 1,12,-1
 62 572 l 1,13,-1
 170 572 l 2,14,15
 200 572 200 572 200 541 c 2,0,-1
-4 716 m 128,-1,17
 -4 736 -4 736 11 751 c 128,-1,18
 26 766 26 766 46 766 c 128,-1,19
 66 766 66 766 81 751 c 128,-1,20
 96 736 96 736 96 716 c 128,-1,21
 96 696 96 696 81 681 c 128,-1,22
 66 666 66 666 46 666 c 128,-1,23
 26 666 26 666 11 681 c 128,-1,16
 -4 696 -4 696 -4 716 c 128,-1,17
201 716 m 128,-1,25
 201 736 201 736 216 751 c 128,-1,26
 231 766 231 766 251 766 c 128,-1,27
 271 766 271 766 286 751 c 128,-1,28
 301 736 301 736 301 716 c 128,-1,29
 301 696 301 696 286 681 c 128,-1,30
 271 666 271 666 251 666 c 128,-1,31
 231 666 231 666 216 681 c 128,-1,24
 201 696 201 696 201 716 c 128,-1,25
EndSplineSet
EndChar

StartChar: eth
Encoding: 240 240 177
Width: 631
GlyphClass: 2
Flags: W
LayerCount: 2
Fore
SplineSet
560 286 m 0,0,1
 560 140 560 140 496 63 c 128,-1,2
 432 -14 432 -14 315.5 -14 c 128,-1,3
 199 -14 199 -14 130.5 68.5 c 128,-1,4
 62 151 62 151 62 288 c 128,-1,5
 62 425 62 425 125.5 498 c 128,-1,6
 189 571 189 571 310 571 c 0,7,8
 391 571 391 571 449 513 c 1,9,10
 419 608 419 608 365 687 c 1,11,-1
 258 644 l 1,12,-1
 258 700 l 1,13,-1
 333 730 l 1,14,15
 309 760 309 760 280 789 c 1,16,-1
 323 834 l 1,17,18
 361 796 361 796 394 754 c 1,19,-1
 510 801 l 1,20,-1
 510 745 l 1,21,-1
 425 711 l 1,22,23
 560 514 560 514 560 286 c 0,0,1
433.5 449.5 m 128,-1,25
 386 510 386 510 306.5 510 c 128,-1,26
 227 510 227 510 183.5 452.5 c 128,-1,27
 140 395 140 395 140 287 c 128,-1,28
 140 179 140 179 187.5 113 c 128,-1,29
 235 47 235 47 314 47 c 128,-1,30
 393 47 393 47 437 108 c 128,-1,31
 481 169 481 169 481 279 c 128,-1,24
 481 389 481 389 433.5 449.5 c 128,-1,25
EndSplineSet
EndChar

StartChar: ntilde
Encoding: 241 241 178
Width: 713
GlyphClass: 2
Flags: W
LayerCount: 2
Fore
SplineSet
500 99 m 2,0,-1
 500 407 l 2,1,2
 500 470 500 470 477.5 497.5 c 128,-1,3
 455 525 455 525 400 525 c 0,4,5
 305 525 305 525 215 451 c 1,6,-1
 215 59 l 1,7,-1
 285 52 l 1,8,-1
 285 0 l 1,9,-1
 66 0 l 1,10,-1
 66 52 l 1,11,-1
 136 59 l 1,12,-1
 136 512 l 1,13,-1
 66 520 l 1,14,-1
 66 572 l 1,15,-1
 172 572 l 2,16,17
 203 572 203 572 203 542 c 2,18,-1
 203 503 l 1,19,20
 308 586 308 586 415 586 c 0,21,22
 501 586 501 586 540 542 c 128,-1,23
 579 498 579 498 579 407 c 2,24,-1
 579 108 l 2,25,26
 579 53 579 53 622 53 c 0,27,28
 640 53 640 53 664 59 c 1,29,-1
 673 -1 l 1,30,31
 634 -14 634 -14 596 -14 c 0,32,33
 500 -14 500 -14 500 99 c 2,0,-1
426 676 m 0,34,35
 401 676 401 676 353.5 694 c 128,-1,36
 306 712 306 712 292 712 c 0,37,38
 257 712 257 712 245 669 c 1,39,-1
 198 683 l 1,40,41
 224 778 224 778 284 778 c 0,42,43
 308 778 308 778 356.5 760 c 128,-1,44
 405 742 405 742 419 742 c 0,45,46
 452 742 452 742 465 786 c 1,47,-1
 512 771 l 1,48,49
 488 676 488 676 426 676 c 0,34,35
EndSplineSet
EndChar

StartChar: ograve
Encoding: 242 242 179
Width: 621
GlyphClass: 2
Flags: W
LayerCount: 2
Fore
SplineSet
125.5 509 m 128,-1,1
 189 586 189 586 305.5 586 c 128,-1,2
 422 586 422 586 491 503.5 c 128,-1,3
 560 421 560 421 560 280.5 c 128,-1,4
 560 140 560 140 496 63 c 128,-1,5
 432 -14 432 -14 315.5 -14 c 128,-1,6
 199 -14 199 -14 130.5 68.5 c 128,-1,7
 62 151 62 151 62 291.5 c 128,-1,0
 62 432 62 432 125.5 509 c 128,-1,1
434 459.5 m 128,-1,9
 387 525 387 525 307 525 c 128,-1,10
 227 525 227 525 183.5 464 c 128,-1,11
 140 403 140 403 140 291 c 128,-1,12
 140 179 140 179 187.5 113 c 128,-1,13
 235 47 235 47 314 47 c 128,-1,14
 393 47 393 47 437 108 c 128,-1,15
 481 169 481 169 481 281.5 c 128,-1,8
 481 394 481 394 434 459.5 c 128,-1,9
396 637 m 1,16,-1
 193 742 l 1,17,-1
 232 809 l 1,18,-1
 423 683 l 1,19,-1
 396 637 l 1,16,-1
EndSplineSet
EndChar

StartChar: oacute
Encoding: 243 243 180
Width: 621
GlyphClass: 2
Flags: W
LayerCount: 2
Fore
SplineSet
125.5 509 m 128,-1,1
 189 586 189 586 305.5 586 c 128,-1,2
 422 586 422 586 491 503.5 c 128,-1,3
 560 421 560 421 560 280.5 c 128,-1,4
 560 140 560 140 496 63 c 128,-1,5
 432 -14 432 -14 315.5 -14 c 128,-1,6
 199 -14 199 -14 130.5 68.5 c 128,-1,7
 62 151 62 151 62 291.5 c 128,-1,0
 62 432 62 432 125.5 509 c 128,-1,1
434 459.5 m 128,-1,9
 387 525 387 525 307 525 c 128,-1,10
 227 525 227 525 183.5 464 c 128,-1,11
 140 403 140 403 140 291 c 128,-1,12
 140 179 140 179 187.5 113 c 128,-1,13
 235 47 235 47 314 47 c 128,-1,14
 393 47 393 47 437 108 c 128,-1,15
 481 169 481 169 481 281.5 c 128,-1,8
 481 394 481 394 434 459.5 c 128,-1,9
424 742 m 1,16,-1
 222 637 l 1,17,-1
 194 683 l 1,18,-1
 386 809 l 1,19,-1
 424 742 l 1,16,-1
EndSplineSet
EndChar

StartChar: ocircumflex
Encoding: 244 244 181
Width: 621
GlyphClass: 2
Flags: W
LayerCount: 2
Fore
SplineSet
125.5 509 m 128,-1,1
 189 586 189 586 305.5 586 c 128,-1,2
 422 586 422 586 491 503.5 c 128,-1,3
 560 421 560 421 560 280.5 c 128,-1,4
 560 140 560 140 496 63 c 128,-1,5
 432 -14 432 -14 315.5 -14 c 128,-1,6
 199 -14 199 -14 130.5 68.5 c 128,-1,7
 62 151 62 151 62 291.5 c 128,-1,0
 62 432 62 432 125.5 509 c 128,-1,1
434 459.5 m 128,-1,9
 387 525 387 525 307 525 c 128,-1,10
 227 525 227 525 183.5 464 c 128,-1,11
 140 403 140 403 140 291 c 128,-1,12
 140 179 140 179 187.5 113 c 128,-1,13
 235 47 235 47 314 47 c 128,-1,14
 393 47 393 47 437 108 c 128,-1,15
 481 169 481 169 481 281.5 c 128,-1,8
 481 394 481 394 434 459.5 c 128,-1,9
450 667 m 1,16,-1
 418 634 l 1,17,-1
 306 732 l 1,18,-1
 195 634 l 1,19,-1
 163 667 l 1,20,-1
 285 810 l 1,21,-1
 327 810 l 1,22,-1
 450 667 l 1,16,-1
EndSplineSet
EndChar

StartChar: otilde
Encoding: 245 245 182
Width: 621
GlyphClass: 2
Flags: W
LayerCount: 2
Fore
SplineSet
125.5 509 m 128,-1,1
 189 586 189 586 305.5 586 c 128,-1,2
 422 586 422 586 491 503.5 c 128,-1,3
 560 421 560 421 560 280.5 c 128,-1,4
 560 140 560 140 496 63 c 128,-1,5
 432 -14 432 -14 315.5 -14 c 128,-1,6
 199 -14 199 -14 130.5 68.5 c 128,-1,7
 62 151 62 151 62 291.5 c 128,-1,0
 62 432 62 432 125.5 509 c 128,-1,1
434 459.5 m 128,-1,9
 387 525 387 525 307 525 c 128,-1,10
 227 525 227 525 183.5 464 c 128,-1,11
 140 403 140 403 140 291 c 128,-1,12
 140 179 140 179 187.5 113 c 128,-1,13
 235 47 235 47 314 47 c 128,-1,14
 393 47 393 47 437 108 c 128,-1,15
 481 169 481 169 481 281.5 c 128,-1,8
 481 394 481 394 434 459.5 c 128,-1,9
377 676 m 0,16,17
 352 676 352 676 304.5 694 c 128,-1,18
 257 712 257 712 243 712 c 0,19,20
 208 712 208 712 196 669 c 1,21,-1
 149 683 l 1,22,23
 175 778 175 778 235 778 c 0,24,25
 259 778 259 778 307.5 760 c 128,-1,26
 356 742 356 742 370 742 c 0,27,28
 403 742 403 742 416 786 c 1,29,-1
 463 771 l 1,30,31
 439 676 439 676 377 676 c 0,16,17
EndSplineSet
EndChar

StartChar: odieresis
Encoding: 246 246 183
Width: 621
GlyphClass: 2
Flags: W
LayerCount: 2
Fore
SplineSet
125.5 509 m 128,-1,1
 189 586 189 586 305.5 586 c 128,-1,2
 422 586 422 586 491 503.5 c 128,-1,3
 560 421 560 421 560 280.5 c 128,-1,4
 560 140 560 140 496 63 c 128,-1,5
 432 -14 432 -14 315.5 -14 c 128,-1,6
 199 -14 199 -14 130.5 68.5 c 128,-1,7
 62 151 62 151 62 291.5 c 128,-1,0
 62 432 62 432 125.5 509 c 128,-1,1
434 459.5 m 128,-1,9
 387 525 387 525 307 525 c 128,-1,10
 227 525 227 525 183.5 464 c 128,-1,11
 140 403 140 403 140 291 c 128,-1,12
 140 179 140 179 187.5 113 c 128,-1,13
 235 47 235 47 314 47 c 128,-1,14
 393 47 393 47 437 108 c 128,-1,15
 481 169 481 169 481 281.5 c 128,-1,8
 481 394 481 394 434 459.5 c 128,-1,9
157 716 m 128,-1,17
 157 736 157 736 172 751 c 128,-1,18
 187 766 187 766 207 766 c 128,-1,19
 227 766 227 766 242 751 c 128,-1,20
 257 736 257 736 257 716 c 128,-1,21
 257 696 257 696 242 681 c 128,-1,22
 227 666 227 666 207 666 c 128,-1,23
 187 666 187 666 172 681 c 128,-1,16
 157 696 157 696 157 716 c 128,-1,17
362 716 m 128,-1,25
 362 736 362 736 377 751 c 128,-1,26
 392 766 392 766 412 766 c 128,-1,27
 432 766 432 766 447 751 c 128,-1,28
 462 736 462 736 462 716 c 128,-1,29
 462 696 462 696 447 681 c 128,-1,30
 432 666 432 666 412 666 c 128,-1,31
 392 666 392 666 377 681 c 128,-1,24
 362 696 362 696 362 716 c 128,-1,25
EndSplineSet
EndChar

StartChar: divide
Encoding: 247 247 184
Width: 584
GlyphClass: 2
Flags: W
LayerCount: 2
Fore
SplineSet
489 333 m 1,0,-1
 95 333 l 1,1,-1
 95 397 l 1,2,-1
 489 397 l 1,3,-1
 489 333 l 1,0,-1
253.5 146 m 128,-1,5
 237 162 237 162 237 184.5 c 128,-1,6
 237 207 237 207 253.5 223.5 c 128,-1,7
 270 240 270 240 292 240 c 128,-1,8
 314 240 314 240 330.5 223.5 c 128,-1,9
 347 207 347 207 347 185 c 128,-1,10
 347 163 347 163 330.5 146.5 c 128,-1,11
 314 130 314 130 292 130 c 128,-1,4
 270 130 270 130 253.5 146 c 128,-1,5
253.5 506 m 128,-1,13
 237 522 237 522 237 544.5 c 128,-1,14
 237 567 237 567 253.5 583.5 c 128,-1,15
 270 600 270 600 292 600 c 128,-1,16
 314 600 314 600 330.5 583.5 c 128,-1,17
 347 567 347 567 347 545 c 128,-1,18
 347 523 347 523 330.5 506.5 c 128,-1,19
 314 490 314 490 292 490 c 128,-1,12
 270 490 270 490 253.5 506 c 128,-1,13
EndSplineSet
EndChar

StartChar: oslash
Encoding: 248 248 185
Width: 621
GlyphClass: 2
Flags: W
LayerCount: 2
Fore
SplineSet
62 286 m 0,0,1
 62 432 62 432 125.5 509 c 128,-1,2
 189 586 189 586 310 586 c 0,3,4
 333 586 333 586 360 581 c 1,5,-1
 399 725 l 1,6,-1
 461 725 l 1,7,-1
 416 562 l 1,8,9
 483 529 483 529 521.5 457 c 128,-1,10
 560 385 560 385 560 286 c 0,11,12
 560 140 560 140 496 63 c 128,-1,13
 432 -14 432 -14 310 -14 c 0,14,15
 286 -14 286 -14 261 -9 c 1,16,-1
 221 -156 l 1,17,-1
 159 -156 l 1,18,-1
 204 10 l 1,19,20
 137 43 137 43 99.5 115 c 128,-1,21
 62 187 62 187 62 286 c 0,0,1
481 286 m 0,22,23
 481 434 481 434 398 496 c 1,24,-1
 277 51 l 1,25,26
 292 47 292 47 310 47 c 0,27,28
 393 47 393 47 437 108 c 128,-1,29
 481 169 481 169 481 286 c 0,22,23
310 525 m 0,30,31
 227 525 227 525 183.5 464 c 128,-1,32
 140 403 140 403 140 286 c 0,33,34
 140 139 140 139 222 76 c 1,35,-1
 343 521 l 1,36,37
 321 525 321 525 310 525 c 0,30,31
EndSplineSet
EndChar

StartChar: ugrave
Encoding: 249 249 186
Width: 701
GlyphClass: 2
Flags: W
LayerCount: 2
Fore
SplineSet
564 541 m 2,0,-1
 564 108 l 2,1,2
 564 53 564 53 608 53 c 0,3,4
 633 53 633 53 649 59 c 1,5,-1
 659 -1 l 1,6,7
 618 -14 618 -14 582 -14 c 0,8,9
 501 -14 501 -14 488 63 c 1,10,11
 384 -14 384 -14 289.5 -14 c 128,-1,12
 195 -14 195 -14 156 29.5 c 128,-1,13
 117 73 117 73 117 165 c 2,14,-1
 117 512 l 1,15,-1
 47 520 l 1,16,-1
 47 572 l 1,17,-1
 162 572 l 2,18,19
 196 572 196 572 196 541 c 2,20,-1
 196 165 l 2,21,22
 196 102 196 102 218.5 74 c 128,-1,23
 241 46 241 46 296 46 c 0,24,25
 391 46 391 46 486 124 c 1,26,-1
 486 512 l 1,27,-1
 426 520 l 1,28,-1
 426 572 l 1,29,-1
 534 572 l 2,30,31
 564 572 564 572 564 541 c 2,0,-1
426 637 m 1,32,-1
 223 742 l 1,33,-1
 262 809 l 1,34,-1
 453 683 l 1,35,-1
 426 637 l 1,32,-1
EndSplineSet
EndChar

StartChar: uacute
Encoding: 250 250 187
Width: 701
GlyphClass: 2
Flags: W
LayerCount: 2
Fore
SplineSet
564 541 m 2,0,-1
 564 108 l 2,1,2
 564 53 564 53 608 53 c 0,3,4
 633 53 633 53 649 59 c 1,5,-1
 659 -1 l 1,6,7
 618 -14 618 -14 582 -14 c 0,8,9
 501 -14 501 -14 488 63 c 1,10,11
 384 -14 384 -14 289.5 -14 c 128,-1,12
 195 -14 195 -14 156 29.5 c 128,-1,13
 117 73 117 73 117 165 c 2,14,-1
 117 512 l 1,15,-1
 47 520 l 1,16,-1
 47 572 l 1,17,-1
 162 572 l 2,18,19
 196 572 196 572 196 541 c 2,20,-1
 196 165 l 2,21,22
 196 102 196 102 218.5 74 c 128,-1,23
 241 46 241 46 296 46 c 0,24,25
 391 46 391 46 486 124 c 1,26,-1
 486 512 l 1,27,-1
 426 520 l 1,28,-1
 426 572 l 1,29,-1
 534 572 l 2,30,31
 564 572 564 572 564 541 c 2,0,-1
454 742 m 1,32,-1
 252 637 l 1,33,-1
 224 683 l 1,34,-1
 416 809 l 1,35,-1
 454 742 l 1,32,-1
EndSplineSet
EndChar

StartChar: ucircumflex
Encoding: 251 251 188
Width: 701
GlyphClass: 2
Flags: W
LayerCount: 2
Fore
SplineSet
564 541 m 2,0,-1
 564 108 l 2,1,2
 564 53 564 53 608 53 c 0,3,4
 633 53 633 53 649 59 c 1,5,-1
 659 -1 l 1,6,7
 618 -14 618 -14 582 -14 c 0,8,9
 501 -14 501 -14 488 63 c 1,10,11
 384 -14 384 -14 289.5 -14 c 128,-1,12
 195 -14 195 -14 156 29.5 c 128,-1,13
 117 73 117 73 117 165 c 2,14,-1
 117 512 l 1,15,-1
 47 520 l 1,16,-1
 47 572 l 1,17,-1
 162 572 l 2,18,19
 196 572 196 572 196 541 c 2,20,-1
 196 165 l 2,21,22
 196 102 196 102 218.5 74 c 128,-1,23
 241 46 241 46 296 46 c 0,24,25
 391 46 391 46 486 124 c 1,26,-1
 486 512 l 1,27,-1
 426 520 l 1,28,-1
 426 572 l 1,29,-1
 534 572 l 2,30,31
 564 572 564 572 564 541 c 2,0,-1
480 667 m 1,32,-1
 448 634 l 1,33,-1
 336 732 l 1,34,-1
 225 634 l 1,35,-1
 193 667 l 1,36,-1
 315 810 l 1,37,-1
 357 810 l 1,38,-1
 480 667 l 1,32,-1
EndSplineSet
EndChar

StartChar: udieresis
Encoding: 252 252 189
Width: 701
GlyphClass: 2
Flags: W
LayerCount: 2
Fore
SplineSet
564 541 m 2,0,-1
 564 108 l 2,1,2
 564 53 564 53 608 53 c 0,3,4
 633 53 633 53 649 59 c 1,5,-1
 659 -1 l 1,6,7
 618 -14 618 -14 582 -14 c 0,8,9
 501 -14 501 -14 488 63 c 1,10,11
 384 -14 384 -14 289.5 -14 c 128,-1,12
 195 -14 195 -14 156 29.5 c 128,-1,13
 117 73 117 73 117 165 c 2,14,-1
 117 512 l 1,15,-1
 47 520 l 1,16,-1
 47 572 l 1,17,-1
 162 572 l 2,18,19
 196 572 196 572 196 541 c 2,20,-1
 196 165 l 2,21,22
 196 102 196 102 218.5 74 c 128,-1,23
 241 46 241 46 296 46 c 0,24,25
 391 46 391 46 486 124 c 1,26,-1
 486 512 l 1,27,-1
 426 520 l 1,28,-1
 426 572 l 1,29,-1
 534 572 l 2,30,31
 564 572 564 572 564 541 c 2,0,-1
171 716 m 128,-1,33
 171 736 171 736 186 751 c 128,-1,34
 201 766 201 766 221 766 c 128,-1,35
 241 766 241 766 256 751 c 128,-1,36
 271 736 271 736 271 716 c 128,-1,37
 271 696 271 696 256 681 c 128,-1,38
 241 666 241 666 221 666 c 128,-1,39
 201 666 201 666 186 681 c 128,-1,32
 171 696 171 696 171 716 c 128,-1,33
376 716 m 128,-1,41
 376 736 376 736 391 751 c 128,-1,42
 406 766 406 766 426 766 c 128,-1,43
 446 766 446 766 461 751 c 128,-1,44
 476 736 476 736 476 716 c 128,-1,45
 476 696 476 696 461 681 c 128,-1,46
 446 666 446 666 426 666 c 128,-1,47
 406 666 406 666 391 681 c 128,-1,40
 376 696 376 696 376 716 c 128,-1,41
EndSplineSet
EndChar

StartChar: yacute
Encoding: 253 253 190
Width: 569
GlyphClass: 2
Flags: W
LayerCount: 2
Fore
SplineSet
228.5 -212.5 m 128,-1,1
 195 -242 195 -242 138.5 -242 c 128,-1,2
 82 -242 82 -242 36 -215 c 1,3,-1
 58 -157 l 1,4,5
 95 -178 95 -178 132 -178 c 0,6,7
 191 -178 191 -178 214 -115 c 2,8,-1
 246 -24 l 1,9,-1
 19 572 l 1,10,-1
 99 572 l 1,11,-1
 281 82 l 1,12,-1
 433 546 l 2,13,14
 442 572 442 572 470 572 c 2,15,-1
 550 572 l 1,16,-1
 550 519 l 1,17,-1
 501 511 l 1,18,-1
 289 -106 l 2,19,0
 262 -183 262 -183 228.5 -212.5 c 128,-1,1
431 742 m 1,20,-1
 229 637 l 1,21,-1
 201 683 l 1,22,-1
 393 809 l 1,23,-1
 431 742 l 1,20,-1
EndSplineSet
EndChar

StartChar: thorn
Encoding: 254 254 191
Width: 650
GlyphClass: 2
Flags: W
LayerCount: 2
Fore
SplineSet
339 47 m 0,0,1
 500 47 500 47 500 286 c 0,2,3
 500 382 500 382 470 449 c 0,4,5
 454 485 454 485 422.5 505.5 c 128,-1,6
 391 526 391 526 348 526 c 0,7,8
 270 526 270 526 201 434 c 1,9,-1
 201 81 l 1,10,11
 263 47 263 47 339 47 c 0,0,1
52 770 m 1,12,-1
 158 770 l 2,13,14
 189 770 189 770 189 740 c 2,15,-1
 189 479 l 1,16,17
 270 586 270 586 376 586 c 0,18,19
 429 586 429 586 470 559 c 128,-1,20
 511 532 511 532 534 488 c 0,21,22
 579 400 579 400 579 286 c 0,23,24
 579 170 579 170 536 85 c 0,25,26
 512 39 512 39 465 12.5 c 128,-1,27
 418 -14 418 -14 346.5 -14 c 128,-1,28
 275 -14 275 -14 201 22 c 1,29,-1
 201 -227 l 1,30,-1
 122 -233 l 1,31,-1
 122 710 l 1,32,-1
 52 718 l 1,33,-1
 52 770 l 1,12,-1
EndSplineSet
EndChar

StartChar: ydieresis
Encoding: 255 255 192
Width: 569
GlyphClass: 2
Flags: W
LayerCount: 2
Fore
SplineSet
228.5 -212.5 m 128,-1,1
 195 -242 195 -242 138.5 -242 c 128,-1,2
 82 -242 82 -242 36 -215 c 1,3,-1
 58 -157 l 1,4,5
 95 -178 95 -178 132 -178 c 0,6,7
 191 -178 191 -178 214 -115 c 2,8,-1
 246 -24 l 1,9,-1
 19 572 l 1,10,-1
 99 572 l 1,11,-1
 281 82 l 1,12,-1
 433 546 l 2,13,14
 442 572 442 572 470 572 c 2,15,-1
 550 572 l 1,16,-1
 550 519 l 1,17,-1
 501 511 l 1,18,-1
 289 -106 l 2,19,0
 262 -183 262 -183 228.5 -212.5 c 128,-1,1
137 716 m 128,-1,21
 137 736 137 736 152 751 c 128,-1,22
 167 766 167 766 187 766 c 128,-1,23
 207 766 207 766 222 751 c 128,-1,24
 237 736 237 736 237 716 c 128,-1,25
 237 696 237 696 222 681 c 128,-1,26
 207 666 207 666 187 666 c 128,-1,27
 167 666 167 666 152 681 c 128,-1,20
 137 696 137 696 137 716 c 128,-1,21
342 716 m 128,-1,29
 342 736 342 736 357 751 c 128,-1,30
 372 766 372 766 392 766 c 128,-1,31
 412 766 412 766 427 751 c 128,-1,32
 442 736 442 736 442 716 c 128,-1,33
 442 696 442 696 427 681 c 128,-1,34
 412 666 412 666 392 666 c 128,-1,35
 372 666 372 666 357 681 c 128,-1,28
 342 696 342 696 342 716 c 128,-1,29
EndSplineSet
EndChar

StartChar: dotlessi
Encoding: 305 305 193
Width: 337
GlyphClass: 2
Flags: W
LayerCount: 2
Fore
SplineSet
200 541 m 2,0,-1
 200 108 l 2,1,2
 200 53 200 53 244 53 c 0,3,4
 269 53 269 53 285 59 c 1,5,-1
 295 -1 l 1,6,7
 254 -14 254 -14 211 -14 c 0,8,9
 122 -14 122 -14 122 99 c 2,10,-1
 122 512 l 1,11,-1
 62 520 l 1,12,-1
 62 572 l 1,13,-1
 170 572 l 2,14,15
 200 572 200 572 200 541 c 2,0,-1
EndSplineSet
EndChar

StartChar: Lslash
Encoding: 321 321 194
Width: 514
GlyphClass: 2
Flags: W
LayerCount: 2
Fore
SplineSet
215 54 m 1,0,-1
 444 54 l 1,1,-1
 452 170 l 1,2,-1
 504 170 l 1,3,-1
 504 31 l 2,4,5
 504 0 504 0 473 0 c 2,6,-1
 73 0 l 1,7,-1
 73 52 l 1,8,-1
 135 59 l 1,9,-1
 135 335 l 1,10,-1
 50 301 l 1,11,-1
 50 357 l 1,12,-1
 135 391 l 1,13,-1
 135 670 l 1,14,-1
 73 678 l 1,15,-1
 73 730 l 1,16,-1
 297 730 l 1,17,-1
 297 678 l 1,18,-1
 215 670 l 1,19,-1
 215 423 l 1,20,-1
 302 458 l 1,21,-1
 302 402 l 1,22,-1
 215 367 l 1,23,-1
 215 54 l 1,0,-1
EndSplineSet
EndChar

StartChar: lslash
Encoding: 322 322 195
Width: 328
GlyphClass: 2
Flags: W
LayerCount: 2
Fore
SplineSet
191 108 m 2,0,1
 191 53 191 53 234 53 c 0,2,3
 249 53 249 53 276 59 c 1,4,-1
 285 -1 l 1,5,6
 246 -14 246 -14 208 -14 c 0,7,8
 112 -14 112 -14 112 99 c 2,9,-1
 112 335 l 1,10,-1
 27 301 l 1,11,-1
 27 357 l 1,12,-1
 112 391 l 1,13,-1
 112 710 l 1,14,-1
 52 718 l 1,15,-1
 52 770 l 1,16,-1
 161 770 l 2,17,18
 191 770 191 770 191 739 c 2,19,-1
 191 422 l 1,20,-1
 279 458 l 1,21,-1
 279 402 l 1,22,-1
 191 366 l 1,23,-1
 191 108 l 2,0,1
EndSplineSet
EndChar

StartChar: OE
Encoding: 338 338 196
Width: 964
GlyphClass: 2
Flags: W
LayerCount: 2
Fore
SplineSet
835 343 m 1,0,-1
 646 343 l 1,1,2
 640 148 640 148 541 54 c 1,3,-1
 831 54 l 1,4,-1
 839 160 l 1,5,-1
 891 160 l 1,6,-1
 891 31 l 2,7,8
 891 0 891 0 860 0 c 2,9,-1
 447 0 l 1,10,11
 402 -14 402 -14 353 -14 c 0,12,13
 217 -14 217 -14 139.5 84.5 c 128,-1,14
 62 183 62 183 62 365 c 128,-1,15
 62 547 62 547 139.5 645.5 c 128,-1,16
 217 744 217 744 353 744 c 0,17,18
 402 744 402 744 447 730 c 1,19,-1
 850 730 l 2,20,21
 881 730 881 730 881 699 c 2,22,-1
 881 566 l 1,23,-1
 829 566 l 1,24,-1
 821 675 l 1,25,-1
 541 675 l 1,26,27
 636 586 636 586 645 398 c 1,28,-1
 835 398 l 1,29,-1
 835 343 l 1,0,-1
509.5 600.5 m 128,-1,31
 453 683 453 683 353.5 683 c 128,-1,32
 254 683 254 683 197.5 600.5 c 128,-1,33
 141 518 141 518 141 365 c 128,-1,34
 141 212 141 212 197.5 129.5 c 128,-1,35
 254 47 254 47 353 47 c 0,36,37
 411 47 411 47 454 75.5 c 128,-1,38
 497 104 497 104 520 152 c 1,39,40
 566 243 566 243 566 365 c 0,41,30
 566 518 566 518 509.5 600.5 c 128,-1,31
EndSplineSet
EndChar

StartChar: oe
Encoding: 339 339 197
Width: 1010
GlyphClass: 2
Flags: W
LayerCount: 2
Fore
SplineSet
560 269 m 1,0,-1
 559 255 l 1,1,2
 569 101 569 101 669 60 c 0,3,4
 699 47 699 47 737 47 c 0,5,6
 812 47 812 47 900 92 c 1,7,-1
 925 34 l 1,8,9
 824 -14 824 -14 734 -14 c 0,10,11
 588 -14 588 -14 523 103 c 1,12,13
 462 -14 462 -14 310 -14 c 0,14,15
 199 -14 199 -14 130.5 68.5 c 128,-1,16
 62 151 62 151 62 291.5 c 128,-1,17
 62 432 62 432 125.5 509 c 128,-1,18
 189 586 189 586 310 586 c 0,19,20
 378 586 378 586 432 553.5 c 128,-1,21
 486 521 486 521 519 463 c 1,22,23
 580 586 580 586 725 586 c 0,24,25
 832 586 832 586 892.5 513 c 128,-1,26
 953 440 953 440 953 318 c 2,27,-1
 953 269 l 1,28,-1
 560 269 l 1,0,-1
433.5 460 m 128,-1,30
 386 525 386 525 306.5 525 c 128,-1,31
 227 525 227 525 183.5 464 c 128,-1,32
 140 403 140 403 140 291 c 128,-1,33
 140 179 140 179 187.5 113 c 128,-1,34
 235 47 235 47 314.5 47 c 128,-1,35
 394 47 394 47 437.5 108.5 c 128,-1,36
 481 170 481 170 481 282.5 c 128,-1,29
 481 395 481 395 433.5 460 c 128,-1,30
834 470.5 m 128,-1,38
 794 525 794 525 719 525 c 128,-1,39
 644 525 644 525 606 468 c 128,-1,40
 568 411 568 411 561 325 c 1,41,-1
 874 325 l 1,42,37
 874 416 874 416 834 470.5 c 128,-1,38
EndSplineSet
EndChar

StartChar: Scaron
Encoding: 352 352 198
Width: 581
GlyphClass: 2
Flags: W
LayerCount: 2
Fore
SplineSet
478 635 m 1,0,1
 382 683 382 683 308 683 c 128,-1,2
 234 683 234 683 195.5 650.5 c 128,-1,3
 157 618 157 618 157 562.5 c 128,-1,4
 157 507 157 507 195 471 c 128,-1,5
 233 435 233 435 287 412.5 c 128,-1,6
 341 390 341 390 394.5 365 c 128,-1,7
 448 340 448 340 486 293.5 c 128,-1,8
 524 247 524 247 524 180 c 0,9,10
 524 89 524 89 461 37.5 c 128,-1,11
 398 -14 398 -14 299 -14 c 128,-1,12
 200 -14 200 -14 138 39.5 c 128,-1,13
 76 93 76 93 55 189 c 1,14,-1
 125 206 l 1,15,16
 166 47 166 47 293 47 c 0,17,18
 365 47 365 47 404.5 82 c 128,-1,19
 444 117 444 117 444 180 c 0,20,21
 444 250 444 250 372 292 c 1,22,23
 339 310 339 310 300 326.5 c 128,-1,24
 261 343 261 343 221.5 362.5 c 128,-1,25
 182 382 182 382 149.5 406 c 128,-1,26
 117 430 117 430 97 469 c 128,-1,27
 77 508 77 508 77 559 c 0,28,29
 77 647 77 647 138.5 695.5 c 128,-1,30
 200 744 200 744 297.5 744 c 128,-1,31
 395 744 395 744 503 695 c 1,32,-1
 478 635 l 1,0,1
410 978 m 1,33,-1
 442 945 l 1,34,-1
 319 802 l 1,35,-1
 277 802 l 1,36,-1
 155 945 l 1,37,-1
 187 978 l 1,38,-1
 298 880 l 1,39,-1
 410 978 l 1,33,-1
EndSplineSet
EndChar

StartChar: scaron
Encoding: 353 353 199
Width: 500
GlyphClass: 2
Flags: W
LayerCount: 2
Fore
SplineSet
417 488 m 1,0,1
 339 525 339 525 274 525 c 128,-1,2
 209 525 209 525 177.5 502 c 128,-1,3
 146 479 146 479 146 438.5 c 128,-1,4
 146 398 146 398 178 371.5 c 128,-1,5
 210 345 210 345 256 327 c 128,-1,6
 302 309 302 309 347.5 289 c 128,-1,7
 393 269 393 269 425 232 c 128,-1,8
 457 195 457 195 457 141 c 0,9,10
 457 68 457 68 403.5 27 c 128,-1,11
 350 -14 350 -14 262 -14 c 128,-1,12
 174 -14 174 -14 119.5 28.5 c 128,-1,13
 65 71 65 71 47 149 c 1,14,-1
 116 165 l 1,15,16
 151 45 151 45 256 45 c 0,17,18
 315 45 315 45 347 70 c 128,-1,19
 379 95 379 95 379 136.5 c 128,-1,20
 379 178 379 178 347 204 c 128,-1,21
 315 230 315 230 269 248 c 128,-1,22
 223 266 223 266 177 286 c 128,-1,23
 131 306 131 306 99 344 c 128,-1,24
 67 382 67 382 67 436 c 0,25,26
 67 507 67 507 121 546.5 c 128,-1,27
 175 586 175 586 262.5 586 c 128,-1,28
 350 586 350 586 442 546 c 1,29,-1
 417 488 l 1,0,1
372 820 m 1,30,-1
 404 787 l 1,31,-1
 281 644 l 1,32,-1
 239 644 l 1,33,-1
 117 787 l 1,34,-1
 149 820 l 1,35,-1
 260 722 l 1,36,-1
 372 820 l 1,30,-1
EndSplineSet
EndChar

StartChar: Ydieresis
Encoding: 376 376 200
Width: 548
GlyphClass: 2
Flags: W
LayerCount: 2
Fore
SplineSet
405 0 m 1,0,-1
 145 0 l 1,1,-1
 145 52 l 1,2,-1
 235 59 l 1,3,-1
 235 259 l 1,4,-1
 52 670 l 1,5,-1
 -3 678 l 1,6,-1
 -3 730 l 1,7,-1
 89 730 l 2,8,9
 116 730 116 730 126 707 c 2,10,-1
 275 347 l 1,11,-1
 422 707 l 2,12,13
 432 730 432 730 459 730 c 2,14,-1
 550 730 l 1,15,-1
 550 678 l 1,16,-1
 495 670 l 1,17,-1
 315 262 l 1,18,-1
 315 59 l 1,19,-1
 405 52 l 1,20,-1
 405 0 l 1,0,-1
122 874 m 128,-1,22
 122 894 122 894 137 909 c 128,-1,23
 152 924 152 924 172 924 c 128,-1,24
 192 924 192 924 207 909 c 128,-1,25
 222 894 222 894 222 874 c 128,-1,26
 222 854 222 854 207 839 c 128,-1,27
 192 824 192 824 172 824 c 128,-1,28
 152 824 152 824 137 839 c 128,-1,21
 122 854 122 854 122 874 c 128,-1,22
327 874 m 128,-1,30
 327 894 327 894 342 909 c 128,-1,31
 357 924 357 924 377 924 c 128,-1,32
 397 924 397 924 412 909 c 128,-1,33
 427 894 427 894 427 874 c 128,-1,34
 427 854 427 854 412 839 c 128,-1,35
 397 824 397 824 377 824 c 128,-1,36
 357 824 357 824 342 839 c 128,-1,29
 327 854 327 854 327 874 c 128,-1,30
EndSplineSet
EndChar

StartChar: Zcaron
Encoding: 381 381 201
Width: 601
GlyphClass: 2
Flags: W
LayerCount: 2
Fore
SplineSet
544 167 m 1,0,-1
 544 31 l 2,1,2
 544 0 544 0 513 0 c 2,3,-1
 57 0 l 1,4,-1
 57 48 l 1,5,-1
 455 675 l 1,6,-1
 137 675 l 1,7,-1
 129 563 l 1,8,-1
 77 563 l 1,9,-1
 77 699 l 2,10,11
 77 730 77 730 108 730 c 2,12,-1
 544 730 l 1,13,-1
 544 682 l 1,14,-1
 146 55 l 1,15,-1
 484 55 l 1,16,-1
 491 167 l 1,17,-1
 544 167 l 1,0,-1
432 978 m 1,18,-1
 464 945 l 1,19,-1
 341 802 l 1,20,-1
 299 802 l 1,21,-1
 177 945 l 1,22,-1
 209 978 l 1,23,-1
 320 880 l 1,24,-1
 432 978 l 1,18,-1
EndSplineSet
EndChar

StartChar: zcaron
Encoding: 382 382 202
Width: 570
GlyphClass: 2
Flags: W
LayerCount: 2
Fore
SplineSet
508 168 m 1,0,-1
 508 31 l 2,1,2
 508 0 508 0 478 0 c 2,3,-1
 62 0 l 1,4,-1
 62 52 l 1,5,-1
 402 517 l 1,6,-1
 133 517 l 1,7,-1
 125 404 l 1,8,-1
 76 404 l 1,9,-1
 76 541 l 2,10,11
 76 572 76 572 107 572 c 2,12,-1
 494 572 l 1,13,-1
 494 520 l 1,14,-1
 154 55 l 1,15,-1
 451 55 l 1,16,-1
 459 168 l 1,17,-1
 508 168 l 1,0,-1
411 820 m 1,18,-1
 443 787 l 1,19,-1
 320 644 l 1,20,-1
 278 644 l 1,21,-1
 156 787 l 1,22,-1
 188 820 l 1,23,-1
 299 722 l 1,24,-1
 411 820 l 1,18,-1
EndSplineSet
EndChar

StartChar: florin
Encoding: 402 402 203
Width: 478
GlyphClass: 2
Flags: W
LayerCount: 2
Fore
SplineSet
409 319 m 1,0,-1
 230 319 l 1,1,-1
 230 -227 l 1,2,-1
 150 -233 l 1,3,-1
 150 319 l 1,4,-1
 38 319 l 1,5,-1
 38 365 l 1,6,-1
 150 365 l 1,7,-1
 150 504 l 2,8,9
 150 622 150 622 197.5 683 c 128,-1,10
 245 744 245 744 353 744 c 0,11,12
 421 744 421 744 468 718 c 1,13,-1
 447 659 l 1,14,15
 409 683 409 683 357 683 c 0,16,17
 288 683 288 683 259 637.5 c 128,-1,18
 230 592 230 592 230 504 c 2,19,-1
 230 365 l 1,20,-1
 409 365 l 1,21,-1
 409 319 l 1,0,-1
EndSplineSet
EndChar

StartChar: circumflex
Encoding: 710 710 204
Width: 401
GlyphClass: 2
Flags: W
LayerCount: 2
Fore
SplineSet
344 667 m 1,0,-1
 312 634 l 1,1,-1
 200 732 l 1,2,-1
 89 634 l 1,3,-1
 57 667 l 1,4,-1
 179 810 l 1,5,-1
 221 810 l 1,6,-1
 344 667 l 1,0,-1
EndSplineSet
EndChar

StartChar: caron
Encoding: 711 711 205
Width: 371
GlyphClass: 2
Flags: W
LayerCount: 2
Fore
SplineSet
312 820 m 1,0,-1
 344 787 l 1,1,-1
 221 644 l 1,2,-1
 179 644 l 1,3,-1
 57 787 l 1,4,-1
 89 820 l 1,5,-1
 200 722 l 1,6,-1
 312 820 l 1,0,-1
EndSplineSet
EndChar

StartChar: breve
Encoding: 728 728 206
Width: 425
GlyphClass: 2
Flags: W
LayerCount: 2
Fore
SplineSet
282 780 m 1,0,-1
 339 780 l 1,1,2
 339 713 339 713 306.5 678 c 128,-1,3
 274 643 274 643 214.5 643 c 128,-1,4
 155 643 155 643 120.5 680.5 c 128,-1,5
 86 718 86 718 86 780 c 1,6,-1
 142 780 l 1,7,8
 142 747 142 747 161.5 726.5 c 128,-1,9
 181 706 181 706 212 706 c 0,10,11
 282 706 282 706 282 780 c 1,0,-1
EndSplineSet
EndChar

StartChar: dotaccent
Encoding: 729 729 207
Width: 292
GlyphClass: 2
Flags: W
LayerCount: 2
Fore
SplineSet
110 680 m 128,-1,1
 95 695 95 695 95 715.5 c 128,-1,2
 95 736 95 736 110 751.5 c 128,-1,3
 125 767 125 767 145.5 767 c 128,-1,4
 166 767 166 767 181.5 751.5 c 128,-1,5
 197 736 197 736 197 715.5 c 128,-1,6
 197 695 197 695 181.5 680 c 128,-1,7
 166 665 166 665 145.5 665 c 128,-1,0
 125 665 125 665 110 680 c 128,-1,1
EndSplineSet
EndChar

StartChar: ring
Encoding: 730 730 208
Width: 382
GlyphClass: 2
Flags: W
LayerCount: 2
Fore
SplineSet
108.5 803.5 m 128,-1,1
 137 833 137 833 188.5 833 c 128,-1,2
 240 833 240 833 271.5 801.5 c 128,-1,3
 303 770 303 770 303 723 c 128,-1,4
 303 676 303 676 273.5 647 c 128,-1,5
 244 618 244 618 192.5 618 c 128,-1,6
 141 618 141 618 110.5 649 c 128,-1,7
 80 680 80 680 80 727 c 128,-1,0
 80 774 80 774 108.5 803.5 c 128,-1,1
228 769 m 128,-1,9
 213 787 213 787 189 787 c 128,-1,10
 165 787 165 787 151.5 770 c 128,-1,11
 138 753 138 753 138 726.5 c 128,-1,12
 138 700 138 700 152.5 681.5 c 128,-1,13
 167 663 167 663 191.5 663 c 128,-1,14
 216 663 216 663 229.5 680 c 128,-1,15
 243 697 243 697 243 724 c 128,-1,8
 243 751 243 751 228 769 c 128,-1,9
EndSplineSet
EndChar

StartChar: ogonek
Encoding: 731 731 209
Width: 332
GlyphClass: 2
Flags: W
LayerCount: 2
Fore
SplineSet
98 -109 m 0,0,1
 98 -133 98 -133 113 -147 c 128,-1,2
 128 -161 128 -161 155 -161 c 0,3,4
 206 -161 206 -161 241 -98 c 1,5,-1
 279 -122 l 1,6,7
 259 -162 259 -162 224.5 -188.5 c 128,-1,8
 190 -215 190 -215 144.5 -215 c 128,-1,9
 99 -215 99 -215 72.5 -190 c 128,-1,10
 46 -165 46 -165 46 -122.5 c 128,-1,11
 46 -80 46 -80 69.5 -51.5 c 128,-1,12
 93 -23 93 -23 143 8 c 2,13,-1
 228 60 l 1,14,-1
 246 30 l 1,15,-1
 154 -27 l 2,16,17
 98 -62 98 -62 98 -109 c 0,0,1
EndSplineSet
EndChar

StartChar: tilde
Encoding: 732 732 210
Width: 418
GlyphClass: 2
Flags: W
LayerCount: 2
Fore
SplineSet
280 676 m 0,0,1
 255 676 255 676 207.5 694 c 128,-1,2
 160 712 160 712 146 712 c 0,3,4
 111 712 111 712 99 669 c 1,5,-1
 52 683 l 1,6,7
 78 778 78 778 138 778 c 0,8,9
 162 778 162 778 210.5 760 c 128,-1,10
 259 742 259 742 273 742 c 0,11,12
 306 742 306 742 319 786 c 1,13,-1
 366 771 l 1,14,15
 342 676 342 676 280 676 c 0,0,1
EndSplineSet
EndChar

StartChar: hungarumlaut
Encoding: 733 733 211
Width: 491
GlyphClass: 2
Flags: W
LayerCount: 2
Fore
SplineSet
208 783 m 1,0,-1
 54 615 l 1,1,-1
 11 648 l 1,2,-1
 148 832 l 1,3,-1
 208 783 l 1,0,-1
393 783 m 1,4,-1
 239 615 l 1,5,-1
 196 648 l 1,6,-1
 333 832 l 1,7,-1
 393 783 l 1,4,-1
EndSplineSet
EndChar

StartChar: pi
Encoding: 960 960 212
Width: 615
GlyphClass: 2
Flags: W
LayerCount: 2
Fore
SplineSet
503 0 m 1,0,-1
 423 0 l 1,1,-1
 423 517 l 1,2,-1
 191 517 l 1,3,-1
 191 0 l 1,4,-1
 112 0 l 1,5,-1
 112 512 l 1,6,-1
 52 520 l 1,7,-1
 52 572 l 1,8,-1
 563 572 l 1,9,-1
 563 520 l 1,10,-1
 503 512 l 1,11,-1
 503 0 l 1,0,-1
EndSplineSet
EndChar

StartChar: endash
Encoding: 8211 8211 213
Width: 573
GlyphClass: 2
Flags: W
LayerCount: 2
Fore
SplineSet
506 290 m 1,0,-1
 66 290 l 1,1,-1
 66 345 l 1,2,-1
 506 345 l 1,3,-1
 506 290 l 1,0,-1
EndSplineSet
EndChar

StartChar: emdash
Encoding: 8212 8212 214
Width: 906
GlyphClass: 2
Flags: W
LayerCount: 2
Fore
SplineSet
839 290 m 1,0,-1
 66 290 l 1,1,-1
 66 345 l 1,2,-1
 839 345 l 1,3,-1
 839 290 l 1,0,-1
EndSplineSet
EndChar

StartChar: quoteleft
Encoding: 8216 8216 215
Width: 233
GlyphClass: 2
Flags: W
LayerCount: 2
Fore
SplineSet
47 582 m 0,0,1
 47 640 47 640 82 689 c 128,-1,2
 117 738 117 738 162 771 c 1,3,-1
 186 743 l 1,4,5
 138 698 138 698 138 653 c 0,6,7
 138 640 138 640 144 619 c 128,-1,8
 150 598 150 598 150 580.5 c 128,-1,9
 150 563 150 563 136 547.5 c 128,-1,10
 122 532 122 532 98 532 c 128,-1,11
 74 532 74 532 60.5 546.5 c 128,-1,12
 47 561 47 561 47 582 c 0,0,1
EndSplineSet
EndChar

StartChar: quoteright
Encoding: 8217 8217 216
Width: 233
GlyphClass: 2
Flags: W
LayerCount: 2
Fore
SplineSet
186 717 m 0,0,1
 186 613 186 613 71 527 c 1,2,-1
 47 556 l 1,3,4
 95 601 95 601 95 645 c 0,5,6
 95 658 95 658 89 679.5 c 128,-1,7
 83 701 83 701 83 718.5 c 128,-1,8
 83 736 83 736 97 751 c 128,-1,9
 111 766 111 766 135 766 c 128,-1,10
 159 766 159 766 172.5 752 c 128,-1,11
 186 738 186 738 186 717 c 0,0,1
EndSplineSet
EndChar

StartChar: quotesinglbase
Encoding: 8218 8218 217
Width: 262
GlyphClass: 2
Flags: W
LayerCount: 2
Fore
SplineSet
155 97 m 1,0,1
 182 80 182 80 182 50 c 2,2,-1
 182 43 l 1,3,4
 181 5 181 5 162 -34 c 1,5,-1
 154 -49 l 1,6,7
 139 -74 139 -74 113 -102 c 1,8,-1
 106 -110 l 1,9,-1
 95 -120 l 1,10,-1
 74 -137 l 1,11,-1
 49 -109 l 1,12,-1
 61 -97 l 1,13,14
 81 -70 81 -70 87 -55 c 128,-1,15
 93 -40 93 -40 93 -22 c 1,16,-1
 92 -8 l 1,17,18
 88 0 88 0 88 8 c 1,19,20
 86 14 86 14 86 15 c 2,21,-1
 83 25 l 1,22,23
 80 31 80 31 79.5 36 c 128,-1,24
 79 41 79 41 79 54 c 128,-1,25
 79 67 79 67 93 88 c 1,26,-1
 103 95 l 1,27,-1
 112 99 l 1,28,-1
 114 100 l 1,29,30
 117 100 117 100 119 101 c 2,31,-1
 131 102 l 1,32,-1
 136 102 l 2,33,34
 141 102 141 102 147 99.5 c 128,-1,35
 153 97 153 97 155 97 c 1,0,1
EndSplineSet
EndChar

StartChar: quotedblleft
Encoding: 8220 8220 218
Width: 396
GlyphClass: 2
Flags: W
LayerCount: 2
Fore
SplineSet
47 582 m 0,0,1
 47 640 47 640 82 689 c 128,-1,2
 117 738 117 738 162 771 c 1,3,-1
 186 743 l 1,4,5
 138 698 138 698 138 653 c 0,6,7
 138 640 138 640 144 619 c 128,-1,8
 150 598 150 598 150 580.5 c 128,-1,9
 150 563 150 563 136 547.5 c 128,-1,10
 122 532 122 532 98 532 c 128,-1,11
 74 532 74 532 60.5 546.5 c 128,-1,12
 47 561 47 561 47 582 c 0,0,1
210 582 m 0,13,14
 210 640 210 640 245 689 c 128,-1,15
 280 738 280 738 325 771 c 1,16,-1
 348 743 l 1,17,18
 301 699 301 699 301 653 c 0,19,20
 301 640 301 640 307 619 c 128,-1,21
 313 598 313 598 313 580.5 c 128,-1,22
 313 563 313 563 299 547.5 c 128,-1,23
 285 532 285 532 260.5 532 c 128,-1,24
 236 532 236 532 223 546.5 c 128,-1,25
 210 561 210 561 210 582 c 0,13,14
EndSplineSet
EndChar

StartChar: quotedblright
Encoding: 8221 8221 219
Width: 396
GlyphClass: 2
Flags: W
LayerCount: 2
Fore
SplineSet
348 717 m 0,0,1
 348 613 348 613 233 527 c 1,2,-1
 210 556 l 1,3,4
 257 600 257 600 257 645 c 0,5,6
 257 658 257 658 251 679.5 c 128,-1,7
 245 701 245 701 245 718.5 c 128,-1,8
 245 736 245 736 259 751 c 128,-1,9
 273 766 273 766 297.5 766 c 128,-1,10
 322 766 322 766 335 752 c 128,-1,11
 348 738 348 738 348 717 c 0,0,1
186 717 m 0,12,13
 186 613 186 613 71 527 c 1,14,-1
 47 556 l 1,15,16
 95 601 95 601 95 645 c 0,17,18
 95 658 95 658 89 679.5 c 128,-1,19
 83 701 83 701 83 718.5 c 128,-1,20
 83 736 83 736 97 751 c 128,-1,21
 111 766 111 766 135 766 c 128,-1,22
 159 766 159 766 172.5 752 c 128,-1,23
 186 738 186 738 186 717 c 0,12,13
EndSplineSet
EndChar

StartChar: quotedblbase
Encoding: 8222 8222 220
Width: 425
GlyphClass: 2
Flags: W
LayerCount: 2
Fore
SplineSet
158 95 m 0,0,1
 177 84 177 84 182 54 c 1,2,-1
 182 43 l 1,3,-1
 181 30 l 1,4,5
 179 22 179 22 176 6 c 128,-1,6
 173 -10 173 -10 159 -39 c 2,7,-1
 154 -49 l 2,8,9
 149 -57 149 -57 146.5 -60 c 128,-1,10
 144 -63 144 -63 137.5 -73.5 c 128,-1,11
 131 -84 131 -84 110.5 -104.5 c 128,-1,12
 90 -125 90 -125 74 -137 c 1,13,-1
 49 -109 l 1,14,-1
 61 -97 l 1,15,16
 81 -70 81 -70 87 -55 c 128,-1,17
 93 -40 93 -40 93 -22 c 2,18,-1
 93 -15 l 1,19,-1
 88 8 l 1,20,21
 80 29 80 29 79.5 35 c 128,-1,22
 79 41 79 41 79 50 c 0,23,24
 79 80 79 80 103 95 c 0,25,26
 104 95 104 95 111 98.5 c 128,-1,27
 118 102 118 102 128 102 c 0,28,29
 142 102 142 102 149.5 98.5 c 128,-1,30
 157 95 157 95 158 95 c 0,0,1
338 79 m 1,31,32
 338 77 338 77 341.5 71 c 128,-1,33
 345 65 345 65 345 50 c 2,34,-1
 344 30 l 1,35,36
 338 -8 338 -8 320 -44 c 1,37,-1
 308 -64 l 1,38,-1
 301 -73 l 1,39,40
 294 -84 294 -84 284 -94 c 2,41,-1
 258 -120 l 1,42,-1
 237 -137 l 1,43,-1
 212 -109 l 1,44,45
 214 -106 214 -106 220 -101 c 0,46,47
 245 -78 245 -78 255 -42 c 0,48,49
 255 -41 255 -41 256 -37 c 1,50,-1
 256 -32 l 1,51,52
 257 -28 257 -28 257 -22 c 2,53,-1
 256 -8 l 1,54,55
 252 0 252 0 252 8 c 1,56,57
 250 14 250 14 247 21 c 128,-1,58
 244 28 244 28 243.5 33.5 c 128,-1,59
 243 39 243 39 243 44 c 2,60,-1
 243 50 l 2,61,62
 243 67 243 67 253 83 c 1,63,-1
 262 92 l 2,64,65
 272 101 272 101 279.5 101.5 c 128,-1,66
 287 102 287 102 294 102 c 2,67,-1
 299 102 l 1,68,69
 311 100 311 100 312 99.5 c 128,-1,70
 313 99 313 99 319.5 96 c 128,-1,71
 326 93 326 93 331 88 c 2,72,-1
 338 79 l 1,31,32
EndSplineSet
EndChar

StartChar: dagger
Encoding: 8224 8224 221
Width: 442
GlyphClass: 2
Flags: W
LayerCount: 2
Fore
SplineSet
19 572 m 1,0,-1
 183 572 l 1,1,-1
 183 730 l 1,2,-1
 259 730 l 1,3,-1
 259 572 l 1,4,-1
 423 557 l 1,5,-1
 423 505 l 1,6,-1
 259 505 l 1,7,-1
 259 0 l 1,8,-1
 183 0 l 1,9,-1
 183 505 l 1,10,-1
 19 520 l 1,11,-1
 19 572 l 1,0,-1
EndSplineSet
EndChar

StartChar: daggerdbl
Encoding: 8225 8225 222
Width: 442
GlyphClass: 2
Flags: W
LayerCount: 2
Fore
SplineSet
259 505 m 1,0,-1
 259 225 l 1,1,-1
 423 210 l 1,2,-1
 423 158 l 1,3,-1
 259 158 l 1,4,-1
 259 0 l 1,5,-1
 183 0 l 1,6,-1
 183 158 l 1,7,-1
 19 173 l 1,8,-1
 19 225 l 1,9,-1
 183 225 l 1,10,-1
 183 505 l 1,11,-1
 19 520 l 1,12,-1
 19 572 l 1,13,-1
 183 572 l 1,14,-1
 183 730 l 1,15,-1
 259 730 l 1,16,-1
 259 572 l 1,17,-1
 423 557 l 1,18,-1
 423 505 l 1,19,-1
 259 505 l 1,0,-1
EndSplineSet
EndChar

StartChar: bullet
Encoding: 8226 8226 223
Width: 257
GlyphClass: 2
Flags: W
LayerCount: 2
Fore
SplineSet
71.5 275.5 m 128,-1,1
 47 300 47 300 47 332.5 c 128,-1,2
 47 365 47 365 71.5 389 c 128,-1,3
 96 413 96 413 128.5 413 c 128,-1,4
 161 413 161 413 185 389 c 128,-1,5
 209 365 209 365 209 332.5 c 128,-1,6
 209 300 209 300 185 275.5 c 128,-1,7
 161 251 161 251 128.5 251 c 128,-1,0
 96 251 96 251 71.5 275.5 c 128,-1,1
EndSplineSet
EndChar

StartChar: ellipsis
Encoding: 8230 8230 224
Width: 786
GlyphClass: 2
Flags: W
LayerCount: 2
Fore
SplineSet
92 8 m 128,-1,1
 76 24 76 24 76 46.5 c 128,-1,2
 76 69 76 69 92.5 85.5 c 128,-1,3
 109 102 109 102 131 102 c 128,-1,4
 153 102 153 102 169.5 85.5 c 128,-1,5
 186 69 186 69 186 47 c 128,-1,6
 186 25 186 25 169.5 8.5 c 128,-1,7
 153 -8 153 -8 130.5 -8 c 128,-1,0
 108 -8 108 -8 92 8 c 128,-1,1
354 8 m 128,-1,9
 338 24 338 24 338 46.5 c 128,-1,10
 338 69 338 69 354.5 85.5 c 128,-1,11
 371 102 371 102 393 102 c 128,-1,12
 415 102 415 102 431.5 85.5 c 128,-1,13
 448 69 448 69 448 47 c 128,-1,14
 448 25 448 25 431.5 8.5 c 128,-1,15
 415 -8 415 -8 392.5 -8 c 128,-1,8
 370 -8 370 -8 354 8 c 128,-1,9
616 8 m 128,-1,17
 600 24 600 24 600 46.5 c 128,-1,18
 600 69 600 69 616.5 85.5 c 128,-1,19
 633 102 633 102 655 102 c 128,-1,20
 677 102 677 102 693.5 85.5 c 128,-1,21
 710 69 710 69 710 47 c 128,-1,22
 710 25 710 25 693.5 8.5 c 128,-1,23
 677 -8 677 -8 654.5 -8 c 128,-1,16
 632 -8 632 -8 616 8 c 128,-1,17
EndSplineSet
EndChar

StartChar: perthousand
Encoding: 8240 8240 225
Width: 1183
GlyphClass: 2
Flags: W
LayerCount: 2
Fore
SplineSet
323 -66 m 1,0,-1
 261 -66 l 1,1,-1
 501 795 l 1,2,-1
 563 795 l 1,3,-1
 323 -66 l 1,0,-1
98.5 699.5 m 128,-1,5
 137 751 137 751 206.5 751 c 128,-1,6
 276 751 276 751 317 696 c 128,-1,7
 358 641 358 641 358 546.5 c 128,-1,8
 358 452 358 452 320 400.5 c 128,-1,9
 282 349 282 349 212 349 c 128,-1,10
 142 349 142 349 101 404.5 c 128,-1,11
 60 460 60 460 60 554 c 128,-1,4
 60 648 60 648 98.5 699.5 c 128,-1,5
270 660 m 128,-1,13
 247 702 247 702 207.5 702 c 128,-1,14
 168 702 168 702 146 663 c 128,-1,15
 124 624 124 624 124 553 c 128,-1,16
 124 482 124 482 147.5 440 c 128,-1,17
 171 398 171 398 209 398 c 0,18,19
 293 398 293 398 293 550 c 0,20,12
 293 618 293 618 270 660 c 128,-1,13
504.5 342.5 m 128,-1,22
 543 394 543 394 612.5 394 c 128,-1,23
 682 394 682 394 723 339 c 128,-1,24
 764 284 764 284 764 189.5 c 128,-1,25
 764 95 764 95 726 43.5 c 128,-1,26
 688 -8 688 -8 618 -8 c 128,-1,27
 548 -8 548 -8 507 47.5 c 128,-1,28
 466 103 466 103 466 197 c 128,-1,21
 466 291 466 291 504.5 342.5 c 128,-1,22
676 303 m 128,-1,30
 653 345 653 345 613.5 345 c 128,-1,31
 574 345 574 345 552 306 c 128,-1,32
 530 267 530 267 530 196 c 128,-1,33
 530 125 530 125 553.5 83 c 128,-1,34
 577 41 577 41 615 41 c 0,35,36
 699 41 699 41 699 193 c 0,37,29
 699 261 699 261 676 303 c 128,-1,30
863.5 342.5 m 128,-1,39
 902 394 902 394 971.5 394 c 128,-1,40
 1041 394 1041 394 1082 339 c 128,-1,41
 1123 284 1123 284 1123 189.5 c 128,-1,42
 1123 95 1123 95 1085 43.5 c 128,-1,43
 1047 -8 1047 -8 977 -8 c 128,-1,44
 907 -8 907 -8 866 47.5 c 128,-1,45
 825 103 825 103 825 197 c 128,-1,38
 825 291 825 291 863.5 342.5 c 128,-1,39
1035 303 m 128,-1,47
 1012 345 1012 345 972.5 345 c 128,-1,48
 933 345 933 345 911 306 c 128,-1,49
 889 267 889 267 889 196 c 128,-1,50
 889 125 889 125 912.5 83 c 128,-1,51
 936 41 936 41 974 41 c 0,52,53
 1058 41 1058 41 1058 193 c 0,54,46
 1058 261 1058 261 1035 303 c 128,-1,47
EndSplineSet
EndChar

StartChar: guilsinglleft
Encoding: 8249 8249 226
Width: 268
GlyphClass: 2
Flags: W
LayerCount: 2
Fore
SplineSet
179 497 m 1,0,-1
 211 474 l 1,1,-1
 118 321 l 1,2,-1
 211 168 l 1,3,-1
 179 147 l 1,4,-1
 47 298 l 1,5,-1
 47 344 l 1,6,-1
 179 497 l 1,0,-1
EndSplineSet
EndChar

StartChar: guilsinglright
Encoding: 8250 8250 227
Width: 268
GlyphClass: 2
Flags: W
LayerCount: 2
Fore
SplineSet
47 474 m 1,0,-1
 80 497 l 1,1,-1
 211 344 l 1,2,-1
 211 298 l 1,3,-1
 80 147 l 1,4,-1
 47 168 l 1,5,-1
 141 321 l 1,6,-1
 47 474 l 1,0,-1
EndSplineSet
EndChar

StartChar: fraction
Encoding: 8260 8260 228
Width: 302
GlyphClass: 2
Flags: W
LayerCount: 2
Fore
SplineSet
62 -66 m 1,0,-1
 0 -66 l 1,1,-1
 240 795 l 1,2,-1
 302 795 l 1,3,-1
 62 -66 l 1,0,-1
EndSplineSet
EndChar

StartChar: zeroinferior
Encoding: 8320 8320 229
Width: 418
GlyphClass: 2
Flags: W
LayerCount: 2
Fore
SplineSet
98.5 342.5 m 128,-1,1
 137 394 137 394 206.5 394 c 128,-1,2
 276 394 276 394 317 339 c 128,-1,3
 358 284 358 284 358 189.5 c 128,-1,4
 358 95 358 95 320 43.5 c 128,-1,5
 282 -8 282 -8 212 -8 c 128,-1,6
 142 -8 142 -8 101 47.5 c 128,-1,7
 60 103 60 103 60 197 c 128,-1,0
 60 291 60 291 98.5 342.5 c 128,-1,1
270 303 m 128,-1,9
 247 345 247 345 207.5 345 c 128,-1,10
 168 345 168 345 146 306 c 128,-1,11
 124 267 124 267 124 196 c 128,-1,12
 124 125 124 125 147.5 83 c 128,-1,13
 171 41 171 41 209 41 c 0,14,15
 293 41 293 41 293 193 c 0,16,8
 293 261 293 261 270 303 c 128,-1,9
EndSplineSet
EndChar

StartChar: oneinferior
Encoding: 8321 8321 230
Width: 322
GlyphClass: 2
Flags: W
LayerCount: 2
Fore
SplineSet
202 0 m 1,0,-1
 137 0 l 1,1,-1
 137 328 l 1,2,-1
 48 309 l 1,3,-1
 43 355 l 1,4,-1
 151 387 l 1,5,-1
 202 387 l 1,6,-1
 202 0 l 1,0,-1
EndSplineSet
EndChar

StartChar: twoinferior
Encoding: 8322 8322 231
Width: 382
GlyphClass: 2
Flags: W
LayerCount: 2
Fore
SplineSet
121 272 m 1,0,-1
 60 272 l 1,1,2
 60 331 60 331 94.5 362.5 c 128,-1,3
 129 394 129 394 190.5 394 c 128,-1,4
 252 394 252 394 286.5 366 c 128,-1,5
 321 338 321 338 321 285 c 0,6,7
 321 250 321 250 299.5 218.5 c 128,-1,8
 278 187 278 187 238 148 c 2,9,-1
 139 48 l 1,10,-1
 327 48 l 1,11,-1
 327 0 l 1,12,-1
 55 0 l 1,13,-1
 55 45 l 1,14,-1
 194 184 l 2,15,16
 229 219 229 219 243 240 c 128,-1,17
 257 261 257 261 257 286.5 c 128,-1,18
 257 312 257 312 240 328.5 c 128,-1,19
 223 345 223 345 191 345 c 128,-1,20
 159 345 159 345 140 326 c 128,-1,21
 121 307 121 307 121 272 c 1,0,-1
EndSplineSet
EndChar

StartChar: threeinferior
Encoding: 8323 8323 232
Width: 396
GlyphClass: 2
Flags: W
LayerCount: 2
Fore
SplineSet
166 214 m 2,0,1
 260 214 260 214 260 284 c 0,2,3
 260 312 260 312 241.5 329 c 128,-1,4
 223 346 223 346 190.5 346 c 128,-1,5
 158 346 158 346 139.5 326 c 128,-1,6
 121 306 121 306 121 272 c 1,7,-1
 63 272 l 1,8,9
 63 327 63 327 97.5 361 c 128,-1,10
 132 395 132 395 193 395 c 128,-1,11
 254 395 254 395 289 366.5 c 128,-1,12
 324 338 324 338 324 285 c 0,13,14
 324 256 324 256 308 232.5 c 128,-1,15
 292 209 292 209 261 197 c 1,16,17
 296 187 296 187 314.5 162 c 128,-1,18
 333 137 333 137 333 107 c 0,19,20
 333 52 333 52 296 22.5 c 128,-1,21
 259 -7 259 -7 194 -7 c 128,-1,22
 129 -7 129 -7 93.5 26.5 c 128,-1,23
 58 60 58 60 58 116 c 1,24,-1
 117 116 l 1,25,26
 117 82 117 82 136 61.5 c 128,-1,27
 155 41 155 41 191.5 41 c 128,-1,28
 228 41 228 41 248.5 58 c 128,-1,29
 269 75 269 75 269 106 c 0,30,31
 269 177 269 177 168 177 c 2,32,-1
 138 177 l 1,33,-1
 136 214 l 1,34,-1
 166 214 l 2,0,1
EndSplineSet
EndChar

StartChar: fourinferior
Encoding: 8324 8324 233
Width: 393
GlyphClass: 2
Flags: W
LayerCount: 2
Fore
SplineSet
295 126 m 1,0,-1
 340 126 l 1,1,-1
 340 84 l 1,2,-1
 295 84 l 1,3,-1
 295 0 l 1,4,-1
 230 0 l 1,5,-1
 230 84 l 1,6,-1
 34 84 l 1,7,-1
 34 122 l 1,8,-1
 198 387 l 1,9,-1
 295 387 l 1,10,-1
 295 126 l 1,0,-1
230 126 m 1,11,-1
 230 326 l 1,12,-1
 103 126 l 1,13,-1
 230 126 l 1,11,-1
EndSplineSet
EndChar

StartChar: fiveinferior
Encoding: 8325 8325 234
Width: 389
GlyphClass: 2
Flags: W
LayerCount: 2
Fore
SplineSet
197 235 m 0,0,1
 263 235 263 235 299.5 201 c 128,-1,2
 336 167 336 167 336 111.5 c 128,-1,3
 336 56 336 56 299 24 c 128,-1,4
 262 -8 262 -8 197 -8 c 128,-1,5
 132 -8 132 -8 98 26 c 128,-1,6
 64 60 64 60 64 112 c 0,7,8
 64 116 64 116 64 121 c 1,9,-1
 122 121 l 1,10,11
 122 118 122 118 122 114 c 0,12,13
 122 83 122 83 140.5 62 c 128,-1,14
 159 41 159 41 195 41 c 128,-1,15
 231 41 231 41 251 60 c 128,-1,16
 271 79 271 79 271 114 c 0,17,18
 271 194 271 194 171 194 c 0,19,20
 136 194 136 194 90 181 c 1,21,-1
 76 192 l 1,22,-1
 95 387 l 1,23,-1
 314 387 l 1,24,-1
 310 338 l 1,25,-1
 147 338 l 1,26,-1
 136 227 l 1,27,28
 171 235 171 235 197 235 c 0,0,1
EndSplineSet
EndChar

StartChar: sixinferior
Encoding: 8326 8326 235
Width: 399
GlyphClass: 2
Flags: W
LayerCount: 2
Fore
SplineSet
209 346 m 0,0,1
 168 346 168 346 146.5 308.5 c 128,-1,2
 125 271 125 271 125 203 c 1,3,4
 168 231 168 231 219.5 231 c 128,-1,5
 271 231 271 231 307 200 c 128,-1,6
 343 169 343 169 343 112 c 128,-1,7
 343 55 343 55 306.5 24 c 128,-1,8
 270 -7 270 -7 203.5 -7 c 128,-1,9
 137 -7 137 -7 99 42 c 128,-1,10
 61 91 61 91 61 186 c 128,-1,11
 61 281 61 281 99.5 338 c 128,-1,12
 138 395 138 395 210 395 c 0,13,14
 267 395 267 395 300 368 c 128,-1,15
 333 341 333 341 338 292 c 1,16,-1
 276 279 l 1,17,18
 271 346 271 346 209 346 c 0,0,1
201 41 m 0,19,20
 280 41 280 41 280 114 c 0,21,22
 280 148 280 148 260 165 c 128,-1,23
 240 182 240 182 203 182 c 128,-1,24
 166 182 166 182 124 154 c 1,25,26
 127 100 127 100 148 70.5 c 128,-1,27
 169 41 169 41 201 41 c 0,19,20
EndSplineSet
EndChar

StartChar: seveninferior
Encoding: 8327 8327 236
Width: 343
GlyphClass: 2
Flags: W
LayerCount: 2
Fore
SplineSet
295 387 m 1,0,-1
 295 343 l 1,1,-1
 135 0 l 1,2,-1
 70 0 l 1,3,-1
 230 338 l 1,4,-1
 44 338 l 1,5,-1
 40 387 l 1,6,-1
 295 387 l 1,0,-1
EndSplineSet
EndChar

StartChar: eightinferior
Encoding: 8328 8328 237
Width: 411
GlyphClass: 2
Flags: W
LayerCount: 2
Fore
SplineSet
342 290 m 0,0,1
 342 223 342 223 270 192 c 1,2,3
 348 159 348 159 348 98 c 0,4,5
 348 46 348 46 308.5 19 c 128,-1,6
 269 -8 269 -8 206 -8 c 128,-1,7
 143 -8 143 -8 103 19 c 128,-1,8
 63 46 63 46 63 98 c 0,9,10
 63 167 63 167 136 199 c 1,11,12
 71 233 71 233 71 285.5 c 128,-1,13
 71 338 71 338 108 366 c 128,-1,14
 145 394 145 394 206 394 c 128,-1,15
 267 394 267 394 304.5 366 c 128,-1,16
 342 338 342 338 342 290 c 0,0,1
284 103 m 0,17,18
 284 144 284 144 214 167 c 0,19,20
 205 170 205 170 183 178 c 1,21,22
 127 159 127 159 127 103 c 0,23,24
 127 71 127 71 147.5 54 c 128,-1,25
 168 37 168 37 205 37 c 0,26,27
 284 37 284 37 284 103 c 0,17,18
153 332 m 128,-1,29
 135 315 135 315 135 286.5 c 128,-1,30
 135 258 135 258 155.5 242.5 c 128,-1,31
 176 227 176 227 214 213 c 1,32,33
 242 222 242 222 259.5 241.5 c 128,-1,34
 277 261 277 261 277 287 c 128,-1,35
 277 313 277 313 259 331 c 128,-1,36
 241 349 241 349 206 349 c 128,-1,28
 171 349 171 349 153 332 c 128,-1,29
EndSplineSet
EndChar

StartChar: nineinferior
Encoding: 8329 8329 238
Width: 396
GlyphClass: 2
Flags: W
LayerCount: 2
Fore
SplineSet
297 49.5 m 128,-1,1
 258 -7 258 -7 191 -7 c 128,-1,2
 124 -7 124 -7 90 26 c 128,-1,3
 56 59 56 59 56 114 c 1,4,-1
 115 114 l 1,5,6
 115 81 115 81 133.5 61 c 128,-1,7
 152 41 152 41 187 41 c 0,8,9
 272 41 272 41 275 184 c 1,10,11
 229 155 229 155 178 155 c 128,-1,12
 127 155 127 155 91.5 185.5 c 128,-1,13
 56 216 56 216 56 273 c 128,-1,14
 56 330 56 330 92.5 362.5 c 128,-1,15
 129 395 129 395 195 395 c 128,-1,16
 261 395 261 395 298.5 347 c 128,-1,17
 336 299 336 299 336 202.5 c 128,-1,0
 336 106 336 106 297 49.5 c 128,-1,1
195 346 m 0,18,19
 119 346 119 346 119 272 c 0,20,21
 119 239 119 239 138 221.5 c 128,-1,22
 157 204 157 204 194 204 c 128,-1,23
 231 204 231 204 274 233 c 1,24,25
 274 289 274 289 252 317.5 c 128,-1,26
 230 346 230 346 195 346 c 0,18,19
EndSplineSet
EndChar

StartChar: Euro
Encoding: 8364 8364 239
Width: 621
GlyphClass: 2
Flags: W
LayerCount: 2
Fore
SplineSet
340 46 m 0,0,1
 460 46 460 46 506 191 c 1,2,-1
 573 173 l 1,3,4
 511 -15 511 -15 339 -15 c 0,5,6
 274 -15 274 -15 224 9 c 128,-1,7
 174 33 174 33 143 75 c 0,8,9
 84 155 84 155 68 269 c 1,10,-1
 -1 269 l 1,11,-1
 11 315 l 1,12,-1
 63 315 l 1,13,14
 61 335 61 335 61 368 c 128,-1,15
 61 401 61 401 62 416 c 1,16,-1
 11 416 l 1,17,-1
 24 462 l 1,18,-1
 67 462 l 1,19,20
 96 673 96 673 242 728 c 0,21,22
 286 744 286 744 340 744 c 0,23,24
 449 744 449 744 563 687 c 1,25,-1
 537 627 l 1,26,27
 436 683 436 683 340 683 c 0,28,29
 176 683 176 683 146 462 c 1,30,-1
 447 462 l 1,31,-1
 434 416 l 1,32,-1
 142 416 l 1,33,34
 141 402 141 402 141 369.5 c 128,-1,35
 141 337 141 337 143 315 c 1,36,-1
 434 315 l 1,37,-1
 422 269 l 1,38,-1
 149 269 l 1,39,40
 184 46 184 46 340 46 c 0,0,1
EndSplineSet
EndChar

StartChar: trademark
Encoding: 8482 8482 240
Width: 871
GlyphClass: 2
Flags: W
LayerCount: 2
Fore
SplineSet
197 340 m 1,0,-1
 135 340 l 1,1,-1
 135 736 l 1,2,-1
 28 736 l 1,3,-1
 28 778 l 1,4,-1
 304 778 l 1,5,-1
 304 736 l 1,6,-1
 197 736 l 1,7,-1
 197 340 l 1,0,-1
451 778 m 2,8,9
 471 778 471 778 475 759 c 1,10,-1
 575 475 l 1,11,-1
 679 760 l 2,12,13
 685 778 685 778 704 778 c 2,14,-1
 769 778 l 1,15,-1
 795 340 l 1,16,-1
 733 340 l 1,17,-1
 711 697 l 1,18,-1
 603 411 l 1,19,-1
 547 411 l 1,20,-1
 444 697 l 1,21,-1
 423 340 l 1,22,-1
 361 340 l 1,23,-1
 385 778 l 1,24,-1
 451 778 l 2,8,9
EndSplineSet
EndChar

StartChar: Omega
Encoding: 8486 8486 241
Width: 808
GlyphClass: 2
Flags: W
LayerCount: 2
Fore
SplineSet
591 614.5 m 128,-1,1
 526 682 526 682 402.5 682 c 128,-1,2
 279 682 279 682 214 614.5 c 128,-1,3
 149 547 149 547 149 419 c 0,4,5
 149 341 149 341 191 272.5 c 128,-1,6
 233 204 233 204 299 175 c 1,7,-1
 299 0 l 1,8,-1
 86 0 l 1,9,-1
 86 52 l 1,10,-1
 234 60 l 1,11,-1
 234 141 l 1,12,13
 162 181 162 181 115.5 257 c 128,-1,14
 69 333 69 333 69 426 c 0,15,16
 69 576 69 576 156.5 660 c 128,-1,17
 244 744 244 744 403 744 c 128,-1,18
 562 744 562 744 649.5 659.5 c 128,-1,19
 737 575 737 575 737 426 c 0,20,21
 737 333 737 333 690 257.5 c 128,-1,22
 643 182 643 182 571 141 c 1,23,-1
 571 60 l 1,24,-1
 720 52 l 1,25,-1
 720 0 l 1,26,-1
 506 0 l 1,27,-1
 506 175 l 1,28,29
 573 204 573 204 614.5 272.5 c 128,-1,30
 656 341 656 341 656 419 c 0,31,0
 656 547 656 547 591 614.5 c 128,-1,1
EndSplineSet
EndChar

StartChar: partialdiff
Encoding: 8706 8706 242
Width: 619
GlyphClass: 2
Flags: W
LayerCount: 2
Fore
SplineSet
563 370 m 0,0,1
 563 185 563 185 486.5 85.5 c 128,-1,2
 410 -14 410 -14 268 -14 c 0,3,4
 172 -14 172 -14 116 54 c 128,-1,5
 60 122 60 122 60 235 c 0,6,7
 60 393 60 393 130 482.5 c 128,-1,8
 200 572 200 572 323 572 c 0,9,10
 430 572 430 572 481 477 c 1,11,-1
 486 477 l 1,12,13
 464 585 464 585 434 651 c 128,-1,14
 404 717 404 717 348 788 c 1,15,-1
 400 835 l 1,16,17
 477 745 477 745 520 623 c 128,-1,18
 563 501 563 501 563 370 c 0,0,1
336 507 m 0,19,20
 245 507 245 507 194 435 c 128,-1,21
 143 363 143 363 143 239 c 0,22,23
 143 153 143 153 179 101.5 c 128,-1,24
 215 50 215 50 277 50 c 0,25,26
 372 50 372 50 424.5 126 c 128,-1,27
 477 202 477 202 477 327 c 0,28,29
 477 409 477 409 440 458 c 128,-1,30
 403 507 403 507 336 507 c 0,19,20
EndSplineSet
EndChar

StartChar: Delta
Encoding: 8710 8710 243
Width: 643
GlyphClass: 2
Flags: W
LayerCount: 2
Fore
SplineSet
27 0 m 1,0,-1
 268 730 l 1,1,-1
 374 730 l 1,2,-1
 614 0 l 1,3,-1
 27 0 l 1,0,-1
319 655 m 1,4,-1
 124 62 l 1,5,-1
 517 62 l 1,6,-1
 324 655 l 1,7,-1
 319 655 l 1,4,-1
EndSplineSet
EndChar

StartChar: product
Encoding: 8719 8719 244
Width: 696
GlyphClass: 2
Flags: W
LayerCount: 2
Fore
SplineSet
569 -170 m 1,0,-1
 489 -170 l 1,1,-1
 489 615 l 1,2,-1
 206 615 l 1,3,-1
 206 -170 l 1,4,-1
 126 -170 l 1,5,-1
 126 610 l 1,6,-1
 66 618 l 1,7,-1
 66 670 l 1,8,-1
 629 670 l 1,9,-1
 629 618 l 1,10,-1
 569 610 l 1,11,-1
 569 -170 l 1,0,-1
EndSplineSet
EndChar

StartChar: summation
Encoding: 8721 8721 245
Width: 555
GlyphClass: 2
Flags: W
LayerCount: 2
Fore
SplineSet
526 14 m 1,0,-1
 526 -139 l 2,1,2
 526 -170 526 -170 495 -170 c 2,3,-1
 44 -170 l 1,4,-1
 44 -119 l 1,5,-1
 264 250 l 1,6,-1
 54 619 l 1,7,-1
 54 670 l 1,8,-1
 485 670 l 2,9,10
 516 670 516 670 516 639 c 2,11,-1
 516 486 l 1,12,-1
 464 486 l 1,13,-1
 456 615 l 1,14,-1
 146 615 l 1,15,-1
 350 250 l 1,16,-1
 136 -115 l 1,17,-1
 466 -115 l 1,18,-1
 474 14 l 1,19,-1
 526 14 l 1,0,-1
EndSplineSet
EndChar

StartChar: minus
Encoding: 8722 8722 246
Width: 584
GlyphClass: 2
Flags: W
LayerCount: 2
Fore
SplineSet
489 333 m 1,0,-1
 95 333 l 1,1,-1
 95 397 l 1,2,-1
 489 397 l 1,3,-1
 489 333 l 1,0,-1
EndSplineSet
EndChar

StartChar: radical
Encoding: 8730 8730 247
Width: 551
GlyphClass: 2
Flags: W
LayerCount: 2
Fore
SplineSet
619 770 m 1,0,-1
 484 770 l 1,1,-1
 252 0 l 1,2,-1
 162 0 l 1,3,-1
 -1 437 l 1,4,-1
 83 437 l 1,5,-1
 207 91 l 1,6,-1
 416 821 l 1,7,-1
 619 821 l 1,8,-1
 619 770 l 1,0,-1
EndSplineSet
EndChar

StartChar: infinity
Encoding: 8734 8734 248
Width: 943
GlyphClass: 2
Flags: W
LayerCount: 2
Fore
SplineSet
145 365 m 128,-1,1
 145 291 145 291 186 251 c 128,-1,2
 227 211 227 211 283.5 211 c 128,-1,3
 340 211 340 211 383.5 254 c 128,-1,4
 427 297 427 297 445 364 c 1,5,6
 427 433 427 433 383.5 476 c 128,-1,7
 340 519 340 519 283.5 519 c 128,-1,8
 227 519 227 519 186 479 c 128,-1,0
 145 439 145 439 145 365 c 128,-1,1
663 580 m 0,9,10
 754 580 754 580 810.5 522 c 128,-1,11
 867 464 867 464 867 365 c 128,-1,12
 867 266 867 266 810.5 208 c 128,-1,13
 754 150 754 150 663 150 c 0,14,15
 599 150 599 150 548 186.5 c 128,-1,16
 497 223 497 223 472 301 c 1,17,18
 446 223 446 223 395 186.5 c 128,-1,19
 344 150 344 150 281 150 c 0,20,21
 189 150 189 150 132.5 208 c 128,-1,22
 76 266 76 266 76 365 c 128,-1,23
 76 464 76 464 132.5 522 c 128,-1,24
 189 580 189 580 281 580 c 0,25,26
 344 580 344 580 395 543.5 c 128,-1,27
 446 507 446 507 472 429 c 1,28,29
 497 507 497 507 548 543.5 c 128,-1,30
 599 580 599 580 663 580 c 0,9,10
799 365 m 128,-1,32
 799 439 799 439 757.5 479 c 128,-1,33
 716 519 716 519 659.5 519 c 128,-1,34
 603 519 603 519 559.5 476 c 128,-1,35
 516 433 516 433 499 364 c 1,36,37
 516 297 516 297 559.5 254 c 128,-1,38
 603 211 603 211 659.5 211 c 128,-1,39
 716 211 716 211 757.5 251 c 128,-1,31
 799 291 799 291 799 365 c 128,-1,32
EndSplineSet
EndChar

StartChar: integral
Encoding: 8747 8747 249
Width: 371
GlyphClass: 2
Flags: W
LayerCount: 2
Fore
SplineSet
225 481 m 2,0,-1
 225 3 l 2,1,2
 225 -113 225 -113 182 -156 c 128,-1,3
 139 -199 139 -199 55 -199 c 0,4,5
 -2 -199 -2 -199 -51 -178 c 1,6,-1
 -31 -120 l 1,7,8
 5 -138 5 -138 50 -138 c 128,-1,9
 95 -138 95 -138 120.5 -108.5 c 128,-1,10
 146 -79 146 -79 146 5 c 2,11,-1
 146 483 l 2,12,13
 146 599 146 599 189 642 c 128,-1,14
 232 685 232 685 316 685 c 0,15,16
 373 685 373 685 422 664 c 1,17,-1
 402 606 l 1,18,19
 366 624 366 624 321 624 c 128,-1,20
 276 624 276 624 250.5 594.5 c 128,-1,21
 225 565 225 565 225 481 c 2,0,-1
EndSplineSet
EndChar

